G04 #@! TF.GenerationSoftware,KiCad,Pcbnew,(6.0.9)*
G04 #@! TF.CreationDate,2022-11-21T19:08:44+01:00*
G04 #@! TF.ProjectId,PMOD series resistor board,504d4f44-2073-4657-9269-657320726573,V1.0*
G04 #@! TF.SameCoordinates,Original*
G04 #@! TF.FileFunction,Copper,L1,Top*
G04 #@! TF.FilePolarity,Positive*
%FSLAX46Y46*%
G04 Gerber Fmt 4.6, Leading zero omitted, Abs format (unit mm)*
G04 Created by KiCad (PCBNEW (6.0.9)) date 2022-11-21 19:08:44*
%MOMM*%
%LPD*%
G01*
G04 APERTURE LIST*
G04 #@! TA.AperFunction,SMDPad,CuDef*
%ADD10R,0.800000X0.500000*%
G04 #@! TD*
G04 #@! TA.AperFunction,SMDPad,CuDef*
%ADD11R,0.800000X0.400000*%
G04 #@! TD*
G04 #@! TA.AperFunction,ComponentPad*
%ADD12O,1.700000X1.700000*%
G04 #@! TD*
G04 #@! TA.AperFunction,ComponentPad*
%ADD13R,1.700000X1.700000*%
G04 #@! TD*
G04 #@! TA.AperFunction,Conductor*
%ADD14C,0.440000*%
G04 #@! TD*
G04 #@! TA.AperFunction,Conductor*
%ADD15C,1.000000*%
G04 #@! TD*
G04 APERTURE END LIST*
D10*
X180710000Y-132150000D03*
D11*
X180710000Y-132950000D03*
X180710000Y-133750000D03*
D10*
X180710000Y-134550000D03*
X182510000Y-134550000D03*
D11*
X182510000Y-133750000D03*
X182510000Y-132950000D03*
D10*
X182510000Y-132150000D03*
X182510000Y-137230000D03*
D11*
X182510000Y-138030000D03*
X182510000Y-138830000D03*
D10*
X182510000Y-139630000D03*
X180710000Y-139630000D03*
D11*
X180710000Y-138830000D03*
X180710000Y-138030000D03*
D10*
X180710000Y-137230000D03*
D12*
X190500000Y-144780000D03*
X190500000Y-142240000D03*
X190500000Y-139700000D03*
X190500000Y-137160000D03*
X190500000Y-134620000D03*
X190500000Y-132080000D03*
X187960000Y-144780000D03*
X187960000Y-142240000D03*
X187960000Y-139700000D03*
X187960000Y-137160000D03*
X187960000Y-134620000D03*
D13*
X187960000Y-132080000D03*
X175260000Y-132080000D03*
D12*
X175260000Y-134620000D03*
X175260000Y-137160000D03*
X175260000Y-139700000D03*
X175260000Y-142240000D03*
X175260000Y-144780000D03*
X172720000Y-132080000D03*
X172720000Y-134620000D03*
X172720000Y-137160000D03*
X172720000Y-139700000D03*
X172720000Y-142240000D03*
X172720000Y-144780000D03*
D10*
X180710000Y-114370000D03*
D11*
X180710000Y-115170000D03*
X180710000Y-115970000D03*
D10*
X180710000Y-116770000D03*
X182510000Y-116770000D03*
D11*
X182510000Y-115970000D03*
X182510000Y-115170000D03*
D10*
X182510000Y-114370000D03*
X180710000Y-109290000D03*
D11*
X180710000Y-110090000D03*
X180710000Y-110890000D03*
D10*
X180710000Y-111690000D03*
X182510000Y-111690000D03*
D11*
X182510000Y-110890000D03*
X182510000Y-110090000D03*
D10*
X182510000Y-109290000D03*
D13*
X175260000Y-109220000D03*
D12*
X175260000Y-111760000D03*
X175260000Y-114300000D03*
X175260000Y-116840000D03*
X175260000Y-119380000D03*
X175260000Y-121920000D03*
X172720000Y-109220000D03*
X172720000Y-111760000D03*
X172720000Y-114300000D03*
X172720000Y-116840000D03*
X172720000Y-119380000D03*
X172720000Y-121920000D03*
D13*
X187960000Y-109220000D03*
D12*
X187960000Y-111760000D03*
X187960000Y-114300000D03*
X187960000Y-116840000D03*
X187960000Y-119380000D03*
X187960000Y-121920000D03*
X190500000Y-109220000D03*
X190500000Y-111760000D03*
X190500000Y-114300000D03*
X190500000Y-116840000D03*
X190500000Y-119380000D03*
X190500000Y-121920000D03*
D14*
X173990000Y-138430000D02*
X172720000Y-137160000D01*
X178780526Y-138030000D02*
X178380526Y-138430000D01*
X180710000Y-138030000D02*
X178780526Y-138030000D01*
X178014917Y-139700000D02*
X175260000Y-139700000D01*
X178884917Y-138830000D02*
X178014917Y-139700000D01*
X178380526Y-138430000D02*
X173990000Y-138430000D01*
X180710000Y-138830000D02*
X178884917Y-138830000D01*
X173990000Y-140970000D02*
X172720000Y-139700000D01*
X177800000Y-140970000D02*
X173990000Y-140970000D01*
X179140000Y-139630000D02*
X177800000Y-140970000D01*
X180710000Y-139630000D02*
X179140000Y-139630000D01*
X189230000Y-135890000D02*
X190500000Y-134620000D01*
X185186250Y-135890000D02*
X189230000Y-135890000D01*
X183846250Y-134550000D02*
X185186250Y-135890000D01*
X182510000Y-134550000D02*
X183846250Y-134550000D01*
X184055031Y-132950000D02*
X184455031Y-133350000D01*
X184455031Y-133350000D02*
X189230000Y-133350000D01*
X189230000Y-133350000D02*
X190500000Y-132080000D01*
X183950640Y-133750000D02*
X184820640Y-134620000D01*
X182510000Y-132950000D02*
X184055031Y-132950000D01*
X182510000Y-133750000D02*
X183950640Y-133750000D01*
X184820640Y-134620000D02*
X187960000Y-134620000D01*
X182510000Y-139630000D02*
X184080000Y-139630000D01*
X185054390Y-139700000D02*
X187960000Y-139700000D01*
X184184390Y-138830000D02*
X185054390Y-139700000D01*
X182510000Y-138830000D02*
X184184390Y-138830000D01*
X184080000Y-139630000D02*
X185420000Y-140970000D01*
X185420000Y-140970000D02*
X189230000Y-140970000D01*
X189230000Y-140970000D02*
X190500000Y-139700000D01*
X173990000Y-133350000D02*
X172720000Y-132080000D01*
X178835000Y-132950000D02*
X178435000Y-133350000D01*
X178435000Y-133350000D02*
X173990000Y-133350000D01*
X180710000Y-132950000D02*
X178835000Y-132950000D01*
X178939391Y-133750000D02*
X178069391Y-134620000D01*
X178069391Y-134620000D02*
X175260000Y-134620000D01*
X180710000Y-133750000D02*
X178939391Y-133750000D01*
X173990000Y-135890000D02*
X172720000Y-134620000D01*
X177800000Y-135890000D02*
X173990000Y-135890000D01*
X179140000Y-134550000D02*
X177800000Y-135890000D01*
X180710000Y-134550000D02*
X179140000Y-134550000D01*
X189230000Y-118110000D02*
X190500000Y-116840000D01*
X184080000Y-116770000D02*
X185420000Y-118110000D01*
X189230000Y-115570000D02*
X190500000Y-114300000D01*
X184688781Y-115570000D02*
X189230000Y-115570000D01*
X185420000Y-118110000D02*
X189230000Y-118110000D01*
X185054390Y-116840000D02*
X187960000Y-116840000D01*
X182510000Y-116770000D02*
X184080000Y-116770000D01*
X184184390Y-115970000D02*
X185054390Y-116840000D01*
X182510000Y-115970000D02*
X184184390Y-115970000D01*
X182510000Y-115170000D02*
X184288781Y-115170000D01*
X184288781Y-115170000D02*
X184688781Y-115570000D01*
X173990000Y-115570000D02*
X172720000Y-114300000D01*
X178435000Y-115570000D02*
X173990000Y-115570000D01*
X178835000Y-115170000D02*
X178435000Y-115570000D01*
X180710000Y-115170000D02*
X178835000Y-115170000D01*
X178939391Y-115970000D02*
X178069391Y-116840000D01*
X178069391Y-116840000D02*
X175260000Y-116840000D01*
X180710000Y-115970000D02*
X178939391Y-115970000D01*
X173990000Y-118110000D02*
X172720000Y-116840000D01*
X177800000Y-118110000D02*
X173990000Y-118110000D01*
X179140000Y-116770000D02*
X177800000Y-118110000D01*
X180710000Y-116770000D02*
X179140000Y-116770000D01*
X189230000Y-113030000D02*
X190500000Y-111760000D01*
X184163750Y-111690000D02*
X185503750Y-113030000D01*
X185503750Y-113030000D02*
X189230000Y-113030000D01*
X185138140Y-111760000D02*
X187960000Y-111760000D01*
X182510000Y-111690000D02*
X184163750Y-111690000D01*
X184268140Y-110890000D02*
X185138140Y-111760000D01*
X182510000Y-110890000D02*
X184268140Y-110890000D01*
X184785000Y-110490000D02*
X189230000Y-110490000D01*
X184385000Y-110090000D02*
X184785000Y-110490000D01*
X182510000Y-110090000D02*
X184385000Y-110090000D01*
X189230000Y-110490000D02*
X190500000Y-109220000D01*
X173990000Y-113030000D02*
X172720000Y-111760000D01*
X177950000Y-113030000D02*
X173990000Y-113030000D01*
X179290000Y-111690000D02*
X177950000Y-113030000D01*
X178315610Y-111760000D02*
X175260000Y-111760000D01*
X180710000Y-111690000D02*
X179290000Y-111690000D01*
X179185610Y-110890000D02*
X178315610Y-111760000D01*
X180710000Y-110890000D02*
X179185610Y-110890000D01*
X179070000Y-110090000D02*
X180710000Y-110090000D01*
X178670000Y-110490000D02*
X179070000Y-110090000D01*
X173990000Y-110490000D02*
X178670000Y-110490000D01*
X172720000Y-109220000D02*
X173990000Y-110490000D01*
D15*
X194310000Y-121920000D02*
X190500000Y-121920000D01*
X194310000Y-144780000D02*
X195580000Y-143510000D01*
X195580000Y-123190000D02*
X194310000Y-121920000D01*
X190500000Y-144780000D02*
X194310000Y-144780000D01*
X195580000Y-143510000D02*
X195580000Y-123190000D01*
X175260000Y-144780000D02*
X187960000Y-144780000D01*
X190500000Y-144780000D02*
X187960000Y-144780000D01*
X172720000Y-144780000D02*
X175260000Y-144780000D01*
X175260000Y-121920000D02*
X187960000Y-121920000D01*
X172720000Y-121920000D02*
X175260000Y-121920000D01*
X190500000Y-121920000D02*
X187960000Y-121920000D01*
D14*
X180710000Y-137230000D02*
X175330000Y-137230000D01*
X175330000Y-137230000D02*
X175260000Y-137160000D01*
X189230000Y-138430000D02*
X190500000Y-137160000D01*
X187433948Y-138430000D02*
X189230000Y-138430000D01*
X187033948Y-138030000D02*
X187433948Y-138430000D01*
X182510000Y-138030000D02*
X187033948Y-138030000D01*
X187890000Y-137230000D02*
X187960000Y-137160000D01*
X182510000Y-137230000D02*
X187890000Y-137230000D01*
X175330000Y-132150000D02*
X175260000Y-132080000D01*
X180710000Y-132150000D02*
X175330000Y-132150000D01*
X187890000Y-132150000D02*
X187960000Y-132080000D01*
X182510000Y-132150000D02*
X187890000Y-132150000D01*
X180710000Y-114370000D02*
X175330000Y-114370000D01*
X175330000Y-114370000D02*
X175260000Y-114300000D01*
X187890000Y-114370000D02*
X187960000Y-114300000D01*
X182510000Y-114370000D02*
X187890000Y-114370000D01*
X187890000Y-109290000D02*
X187960000Y-109220000D01*
X182510000Y-109290000D02*
X187890000Y-109290000D01*
X180640000Y-109220000D02*
X180710000Y-109290000D01*
X175260000Y-109220000D02*
X180640000Y-109220000D01*
G04 #@! TA.AperFunction,Conductor*
G36*
X200347621Y-105684502D02*
G01*
X200394114Y-105738158D01*
X200405500Y-105790500D01*
X200405500Y-148209500D01*
X200385498Y-148277621D01*
X200331842Y-148324114D01*
X200279500Y-148335500D01*
X169290500Y-148335500D01*
X169222379Y-148315498D01*
X169175886Y-148261842D01*
X169164500Y-148209500D01*
X169164500Y-144750964D01*
X171611148Y-144750964D01*
X171624424Y-144953522D01*
X171674392Y-145150269D01*
X171759377Y-145334616D01*
X171762710Y-145339332D01*
X171872358Y-145494481D01*
X171876533Y-145500389D01*
X171880675Y-145504424D01*
X171916347Y-145539174D01*
X172021938Y-145642035D01*
X172026742Y-145645245D01*
X172094400Y-145690453D01*
X172190720Y-145754812D01*
X172196023Y-145757090D01*
X172196026Y-145757092D01*
X172284707Y-145795192D01*
X172377228Y-145834942D01*
X172450244Y-145851464D01*
X172569579Y-145878467D01*
X172569584Y-145878468D01*
X172575216Y-145879742D01*
X172580987Y-145879969D01*
X172580989Y-145879969D01*
X172640756Y-145882317D01*
X172778053Y-145887712D01*
X172878499Y-145873148D01*
X172973231Y-145859413D01*
X172973236Y-145859412D01*
X172978945Y-145858584D01*
X172984409Y-145856729D01*
X172984414Y-145856728D01*
X173165693Y-145795192D01*
X173165698Y-145795190D01*
X173171165Y-145793334D01*
X173348276Y-145694147D01*
X173410934Y-145642035D01*
X173504345Y-145564345D01*
X173505945Y-145566269D01*
X173558851Y-145537379D01*
X173585634Y-145534500D01*
X174400322Y-145534500D01*
X174468443Y-145554502D01*
X174488243Y-145570246D01*
X174557793Y-145637998D01*
X174557798Y-145638002D01*
X174561938Y-145642035D01*
X174730720Y-145754812D01*
X174736023Y-145757090D01*
X174736026Y-145757092D01*
X174824707Y-145795192D01*
X174917228Y-145834942D01*
X174990244Y-145851464D01*
X175109579Y-145878467D01*
X175109584Y-145878468D01*
X175115216Y-145879742D01*
X175120987Y-145879969D01*
X175120989Y-145879969D01*
X175180756Y-145882317D01*
X175318053Y-145887712D01*
X175418499Y-145873148D01*
X175513231Y-145859413D01*
X175513236Y-145859412D01*
X175518945Y-145858584D01*
X175524409Y-145856729D01*
X175524414Y-145856728D01*
X175705693Y-145795192D01*
X175705698Y-145795190D01*
X175711165Y-145793334D01*
X175888276Y-145694147D01*
X175950934Y-145642035D01*
X176044345Y-145564345D01*
X176045945Y-145566269D01*
X176098851Y-145537379D01*
X176125634Y-145534500D01*
X187100322Y-145534500D01*
X187168443Y-145554502D01*
X187188243Y-145570246D01*
X187257793Y-145637998D01*
X187257798Y-145638002D01*
X187261938Y-145642035D01*
X187430720Y-145754812D01*
X187436023Y-145757090D01*
X187436026Y-145757092D01*
X187524707Y-145795192D01*
X187617228Y-145834942D01*
X187690244Y-145851464D01*
X187809579Y-145878467D01*
X187809584Y-145878468D01*
X187815216Y-145879742D01*
X187820987Y-145879969D01*
X187820989Y-145879969D01*
X187880756Y-145882317D01*
X188018053Y-145887712D01*
X188118499Y-145873148D01*
X188213231Y-145859413D01*
X188213236Y-145859412D01*
X188218945Y-145858584D01*
X188224409Y-145856729D01*
X188224414Y-145856728D01*
X188405693Y-145795192D01*
X188405698Y-145795190D01*
X188411165Y-145793334D01*
X188588276Y-145694147D01*
X188650934Y-145642035D01*
X188744345Y-145564345D01*
X188745945Y-145566269D01*
X188798851Y-145537379D01*
X188825634Y-145534500D01*
X189640322Y-145534500D01*
X189708443Y-145554502D01*
X189728243Y-145570246D01*
X189797793Y-145637998D01*
X189797798Y-145638002D01*
X189801938Y-145642035D01*
X189970720Y-145754812D01*
X189976023Y-145757090D01*
X189976026Y-145757092D01*
X190064707Y-145795192D01*
X190157228Y-145834942D01*
X190230244Y-145851464D01*
X190349579Y-145878467D01*
X190349584Y-145878468D01*
X190355216Y-145879742D01*
X190360987Y-145879969D01*
X190360989Y-145879969D01*
X190420756Y-145882317D01*
X190558053Y-145887712D01*
X190658499Y-145873148D01*
X190753231Y-145859413D01*
X190753236Y-145859412D01*
X190758945Y-145858584D01*
X190764409Y-145856729D01*
X190764414Y-145856728D01*
X190945693Y-145795192D01*
X190945698Y-145795190D01*
X190951165Y-145793334D01*
X191128276Y-145694147D01*
X191190934Y-145642035D01*
X191284345Y-145564345D01*
X191285945Y-145566269D01*
X191338851Y-145537379D01*
X191365634Y-145534500D01*
X194243235Y-145534500D01*
X194262185Y-145535933D01*
X194276255Y-145538074D01*
X194276259Y-145538074D01*
X194283489Y-145539174D01*
X194290780Y-145538581D01*
X194290783Y-145538581D01*
X194335848Y-145534915D01*
X194346063Y-145534500D01*
X194354053Y-145534500D01*
X194361302Y-145533655D01*
X194382113Y-145531229D01*
X194386487Y-145530796D01*
X194451549Y-145525504D01*
X194451552Y-145525503D01*
X194458847Y-145524910D01*
X194465809Y-145522655D01*
X194471677Y-145521482D01*
X194477484Y-145520110D01*
X194484754Y-145519262D01*
X194553060Y-145494468D01*
X194557163Y-145493060D01*
X194626222Y-145470688D01*
X194632479Y-145466891D01*
X194637926Y-145464398D01*
X194643254Y-145461730D01*
X194650134Y-145459232D01*
X194710849Y-145419426D01*
X194714559Y-145417085D01*
X194771838Y-145382327D01*
X194771840Y-145382325D01*
X194776633Y-145379417D01*
X194784974Y-145372051D01*
X194784995Y-145372075D01*
X194788038Y-145369379D01*
X194791148Y-145366779D01*
X194797268Y-145362766D01*
X194850198Y-145306891D01*
X194852576Y-145304448D01*
X196066301Y-144090723D01*
X196080712Y-144078338D01*
X196098071Y-144065563D01*
X196132089Y-144025521D01*
X196139019Y-144018005D01*
X196144662Y-144012362D01*
X196162214Y-143990178D01*
X196164981Y-143986804D01*
X196207243Y-143937058D01*
X196211982Y-143931480D01*
X196215311Y-143924961D01*
X196218628Y-143919987D01*
X196221763Y-143914911D01*
X196226307Y-143909168D01*
X196257053Y-143843382D01*
X196258985Y-143839430D01*
X196284467Y-143789527D01*
X196291993Y-143774788D01*
X196293732Y-143767680D01*
X196295814Y-143762082D01*
X196297701Y-143756409D01*
X196300800Y-143749779D01*
X196315585Y-143678697D01*
X196316556Y-143674406D01*
X196332477Y-143609344D01*
X196332477Y-143609343D01*
X196333811Y-143603892D01*
X196334500Y-143592786D01*
X196334534Y-143592788D01*
X196334777Y-143588729D01*
X196335137Y-143584695D01*
X196336628Y-143577527D01*
X196334546Y-143500585D01*
X196334500Y-143497177D01*
X196334500Y-123256766D01*
X196335933Y-123237816D01*
X196338074Y-123223746D01*
X196338074Y-123223740D01*
X196339174Y-123216511D01*
X196334915Y-123164152D01*
X196334500Y-123153937D01*
X196334500Y-123145947D01*
X196331226Y-123117865D01*
X196330795Y-123113509D01*
X196325503Y-123048448D01*
X196324910Y-123041152D01*
X196322653Y-123034186D01*
X196321481Y-123028318D01*
X196320110Y-123022517D01*
X196319262Y-123015246D01*
X196294477Y-122946965D01*
X196293051Y-122942810D01*
X196289067Y-122930510D01*
X196270688Y-122873778D01*
X196266889Y-122867518D01*
X196264390Y-122862059D01*
X196261729Y-122856744D01*
X196259232Y-122849866D01*
X196255224Y-122843752D01*
X196255220Y-122843745D01*
X196219408Y-122789124D01*
X196217061Y-122785404D01*
X196182324Y-122728160D01*
X196179416Y-122723367D01*
X196172050Y-122715026D01*
X196172075Y-122715004D01*
X196169385Y-122711970D01*
X196166781Y-122708855D01*
X196162766Y-122702732D01*
X196106854Y-122649766D01*
X196104413Y-122647389D01*
X194890724Y-121433700D01*
X194878337Y-121419287D01*
X194869904Y-121407828D01*
X194865563Y-121401929D01*
X194825521Y-121367911D01*
X194818005Y-121360981D01*
X194812362Y-121355338D01*
X194790202Y-121337806D01*
X194786816Y-121335030D01*
X194764263Y-121315869D01*
X194731480Y-121288018D01*
X194724960Y-121284689D01*
X194719982Y-121281369D01*
X194714909Y-121278236D01*
X194709167Y-121273693D01*
X194643383Y-121242947D01*
X194639433Y-121241016D01*
X194581307Y-121211336D01*
X194574788Y-121208007D01*
X194567678Y-121206267D01*
X194562058Y-121204177D01*
X194556407Y-121202297D01*
X194549778Y-121199199D01*
X194542614Y-121197709D01*
X194542611Y-121197708D01*
X194502505Y-121189367D01*
X194478686Y-121184413D01*
X194474427Y-121183449D01*
X194403892Y-121166189D01*
X194398295Y-121165842D01*
X194398290Y-121165841D01*
X194392786Y-121165500D01*
X194392788Y-121165466D01*
X194388729Y-121165223D01*
X194384695Y-121164863D01*
X194377527Y-121163372D01*
X194370210Y-121163570D01*
X194300585Y-121165454D01*
X194297177Y-121165500D01*
X191360353Y-121165500D01*
X191292232Y-121145498D01*
X191274824Y-121132025D01*
X191179498Y-121043906D01*
X191179495Y-121043904D01*
X191175258Y-121039987D01*
X191003581Y-120931667D01*
X190815039Y-120856446D01*
X190809379Y-120855320D01*
X190809375Y-120855319D01*
X190621613Y-120817971D01*
X190621610Y-120817971D01*
X190615946Y-120816844D01*
X190610171Y-120816768D01*
X190610167Y-120816768D01*
X190508793Y-120815441D01*
X190412971Y-120814187D01*
X190407274Y-120815166D01*
X190407273Y-120815166D01*
X190218607Y-120847585D01*
X190212910Y-120848564D01*
X190022463Y-120918824D01*
X189848010Y-121022612D01*
X189843667Y-121026421D01*
X189843666Y-121026422D01*
X189720732Y-121134232D01*
X189656328Y-121164109D01*
X189637654Y-121165500D01*
X188820353Y-121165500D01*
X188752232Y-121145498D01*
X188734824Y-121132025D01*
X188639498Y-121043906D01*
X188639495Y-121043904D01*
X188635258Y-121039987D01*
X188463581Y-120931667D01*
X188275039Y-120856446D01*
X188269379Y-120855320D01*
X188269375Y-120855319D01*
X188081613Y-120817971D01*
X188081610Y-120817971D01*
X188075946Y-120816844D01*
X188070171Y-120816768D01*
X188070167Y-120816768D01*
X187968793Y-120815441D01*
X187872971Y-120814187D01*
X187867274Y-120815166D01*
X187867273Y-120815166D01*
X187678607Y-120847585D01*
X187672910Y-120848564D01*
X187482463Y-120918824D01*
X187308010Y-121022612D01*
X187303667Y-121026421D01*
X187303666Y-121026422D01*
X187180732Y-121134232D01*
X187116328Y-121164109D01*
X187097654Y-121165500D01*
X176120353Y-121165500D01*
X176052232Y-121145498D01*
X176034824Y-121132025D01*
X175939498Y-121043906D01*
X175939495Y-121043904D01*
X175935258Y-121039987D01*
X175763581Y-120931667D01*
X175575039Y-120856446D01*
X175569379Y-120855320D01*
X175569375Y-120855319D01*
X175381613Y-120817971D01*
X175381610Y-120817971D01*
X175375946Y-120816844D01*
X175370171Y-120816768D01*
X175370167Y-120816768D01*
X175268793Y-120815441D01*
X175172971Y-120814187D01*
X175167274Y-120815166D01*
X175167273Y-120815166D01*
X174978607Y-120847585D01*
X174972910Y-120848564D01*
X174782463Y-120918824D01*
X174608010Y-121022612D01*
X174603667Y-121026421D01*
X174603666Y-121026422D01*
X174480732Y-121134232D01*
X174416328Y-121164109D01*
X174397654Y-121165500D01*
X173580353Y-121165500D01*
X173512232Y-121145498D01*
X173494824Y-121132025D01*
X173399498Y-121043906D01*
X173399495Y-121043904D01*
X173395258Y-121039987D01*
X173223581Y-120931667D01*
X173035039Y-120856446D01*
X173029379Y-120855320D01*
X173029375Y-120855319D01*
X172841613Y-120817971D01*
X172841610Y-120817971D01*
X172835946Y-120816844D01*
X172830171Y-120816768D01*
X172830167Y-120816768D01*
X172728793Y-120815441D01*
X172632971Y-120814187D01*
X172627274Y-120815166D01*
X172627273Y-120815166D01*
X172438607Y-120847585D01*
X172432910Y-120848564D01*
X172242463Y-120918824D01*
X172068010Y-121022612D01*
X172063670Y-121026418D01*
X172063666Y-121026421D01*
X171943249Y-121132025D01*
X171915392Y-121156455D01*
X171789720Y-121315869D01*
X171695203Y-121495515D01*
X171635007Y-121689378D01*
X171611148Y-121890964D01*
X171624424Y-122093522D01*
X171674392Y-122290269D01*
X171759377Y-122474616D01*
X171876533Y-122640389D01*
X172021938Y-122782035D01*
X172026742Y-122785245D01*
X172026980Y-122785404D01*
X172190720Y-122894812D01*
X172196023Y-122897090D01*
X172196026Y-122897092D01*
X172371921Y-122972662D01*
X172377228Y-122974942D01*
X172450244Y-122991464D01*
X172569579Y-123018467D01*
X172569584Y-123018468D01*
X172575216Y-123019742D01*
X172580987Y-123019969D01*
X172580989Y-123019969D01*
X172640756Y-123022317D01*
X172778053Y-123027712D01*
X172878499Y-123013148D01*
X172973231Y-122999413D01*
X172973236Y-122999412D01*
X172978945Y-122998584D01*
X172984409Y-122996729D01*
X172984414Y-122996728D01*
X173165693Y-122935192D01*
X173165698Y-122935190D01*
X173171165Y-122933334D01*
X173348276Y-122834147D01*
X173410934Y-122782035D01*
X173504345Y-122704345D01*
X173505945Y-122706269D01*
X173558851Y-122677379D01*
X173585634Y-122674500D01*
X174400322Y-122674500D01*
X174468443Y-122694502D01*
X174488243Y-122710246D01*
X174557793Y-122777998D01*
X174557798Y-122778002D01*
X174561938Y-122782035D01*
X174730720Y-122894812D01*
X174736023Y-122897090D01*
X174736026Y-122897092D01*
X174911921Y-122972662D01*
X174917228Y-122974942D01*
X174990244Y-122991464D01*
X175109579Y-123018467D01*
X175109584Y-123018468D01*
X175115216Y-123019742D01*
X175120987Y-123019969D01*
X175120989Y-123019969D01*
X175180756Y-123022317D01*
X175318053Y-123027712D01*
X175418499Y-123013148D01*
X175513231Y-122999413D01*
X175513236Y-122999412D01*
X175518945Y-122998584D01*
X175524409Y-122996729D01*
X175524414Y-122996728D01*
X175705693Y-122935192D01*
X175705698Y-122935190D01*
X175711165Y-122933334D01*
X175888276Y-122834147D01*
X175950934Y-122782035D01*
X176044345Y-122704345D01*
X176045945Y-122706269D01*
X176098851Y-122677379D01*
X176125634Y-122674500D01*
X187100322Y-122674500D01*
X187168443Y-122694502D01*
X187188243Y-122710246D01*
X187257793Y-122777998D01*
X187257798Y-122778002D01*
X187261938Y-122782035D01*
X187430720Y-122894812D01*
X187436023Y-122897090D01*
X187436026Y-122897092D01*
X187611921Y-122972662D01*
X187617228Y-122974942D01*
X187690244Y-122991464D01*
X187809579Y-123018467D01*
X187809584Y-123018468D01*
X187815216Y-123019742D01*
X187820987Y-123019969D01*
X187820989Y-123019969D01*
X187880756Y-123022317D01*
X188018053Y-123027712D01*
X188118499Y-123013148D01*
X188213231Y-122999413D01*
X188213236Y-122999412D01*
X188218945Y-122998584D01*
X188224409Y-122996729D01*
X188224414Y-122996728D01*
X188405693Y-122935192D01*
X188405698Y-122935190D01*
X188411165Y-122933334D01*
X188588276Y-122834147D01*
X188650934Y-122782035D01*
X188744345Y-122704345D01*
X188745945Y-122706269D01*
X188798851Y-122677379D01*
X188825634Y-122674500D01*
X189640322Y-122674500D01*
X189708443Y-122694502D01*
X189728243Y-122710246D01*
X189797793Y-122777998D01*
X189797798Y-122778002D01*
X189801938Y-122782035D01*
X189970720Y-122894812D01*
X189976023Y-122897090D01*
X189976026Y-122897092D01*
X190151921Y-122972662D01*
X190157228Y-122974942D01*
X190230244Y-122991464D01*
X190349579Y-123018467D01*
X190349584Y-123018468D01*
X190355216Y-123019742D01*
X190360987Y-123019969D01*
X190360989Y-123019969D01*
X190420756Y-123022317D01*
X190558053Y-123027712D01*
X190658499Y-123013148D01*
X190753231Y-122999413D01*
X190753236Y-122999412D01*
X190758945Y-122998584D01*
X190764409Y-122996729D01*
X190764414Y-122996728D01*
X190945693Y-122935192D01*
X190945698Y-122935190D01*
X190951165Y-122933334D01*
X191128276Y-122834147D01*
X191190934Y-122782035D01*
X191284345Y-122704345D01*
X191285945Y-122706269D01*
X191338851Y-122677379D01*
X191365634Y-122674500D01*
X193945284Y-122674500D01*
X194013405Y-122694502D01*
X194034379Y-122711404D01*
X194788595Y-123465619D01*
X194822620Y-123527932D01*
X194825500Y-123554715D01*
X194825500Y-143145286D01*
X194805498Y-143213407D01*
X194788595Y-143234381D01*
X194034381Y-143988595D01*
X193972069Y-144022621D01*
X193945286Y-144025500D01*
X191360353Y-144025500D01*
X191292232Y-144005498D01*
X191274824Y-143992025D01*
X191179498Y-143903906D01*
X191179495Y-143903904D01*
X191175258Y-143899987D01*
X191003581Y-143791667D01*
X190815039Y-143716446D01*
X190809379Y-143715320D01*
X190809375Y-143715319D01*
X190621613Y-143677971D01*
X190621610Y-143677971D01*
X190615946Y-143676844D01*
X190610171Y-143676768D01*
X190610167Y-143676768D01*
X190508793Y-143675441D01*
X190412971Y-143674187D01*
X190407274Y-143675166D01*
X190407273Y-143675166D01*
X190218607Y-143707585D01*
X190212910Y-143708564D01*
X190022463Y-143778824D01*
X189848010Y-143882612D01*
X189843667Y-143886421D01*
X189843666Y-143886422D01*
X189720732Y-143994232D01*
X189656328Y-144024109D01*
X189637654Y-144025500D01*
X188820353Y-144025500D01*
X188752232Y-144005498D01*
X188734824Y-143992025D01*
X188639498Y-143903906D01*
X188639495Y-143903904D01*
X188635258Y-143899987D01*
X188463581Y-143791667D01*
X188275039Y-143716446D01*
X188269379Y-143715320D01*
X188269375Y-143715319D01*
X188081613Y-143677971D01*
X188081610Y-143677971D01*
X188075946Y-143676844D01*
X188070171Y-143676768D01*
X188070167Y-143676768D01*
X187968793Y-143675441D01*
X187872971Y-143674187D01*
X187867274Y-143675166D01*
X187867273Y-143675166D01*
X187678607Y-143707585D01*
X187672910Y-143708564D01*
X187482463Y-143778824D01*
X187308010Y-143882612D01*
X187303667Y-143886421D01*
X187303666Y-143886422D01*
X187180732Y-143994232D01*
X187116328Y-144024109D01*
X187097654Y-144025500D01*
X176120353Y-144025500D01*
X176052232Y-144005498D01*
X176034824Y-143992025D01*
X175939498Y-143903906D01*
X175939495Y-143903904D01*
X175935258Y-143899987D01*
X175763581Y-143791667D01*
X175575039Y-143716446D01*
X175569379Y-143715320D01*
X175569375Y-143715319D01*
X175381613Y-143677971D01*
X175381610Y-143677971D01*
X175375946Y-143676844D01*
X175370171Y-143676768D01*
X175370167Y-143676768D01*
X175268793Y-143675441D01*
X175172971Y-143674187D01*
X175167274Y-143675166D01*
X175167273Y-143675166D01*
X174978607Y-143707585D01*
X174972910Y-143708564D01*
X174782463Y-143778824D01*
X174608010Y-143882612D01*
X174603667Y-143886421D01*
X174603666Y-143886422D01*
X174480732Y-143994232D01*
X174416328Y-144024109D01*
X174397654Y-144025500D01*
X173580353Y-144025500D01*
X173512232Y-144005498D01*
X173494824Y-143992025D01*
X173399498Y-143903906D01*
X173399495Y-143903904D01*
X173395258Y-143899987D01*
X173223581Y-143791667D01*
X173035039Y-143716446D01*
X173029379Y-143715320D01*
X173029375Y-143715319D01*
X172841613Y-143677971D01*
X172841610Y-143677971D01*
X172835946Y-143676844D01*
X172830171Y-143676768D01*
X172830167Y-143676768D01*
X172728793Y-143675441D01*
X172632971Y-143674187D01*
X172627274Y-143675166D01*
X172627273Y-143675166D01*
X172438607Y-143707585D01*
X172432910Y-143708564D01*
X172242463Y-143778824D01*
X172068010Y-143882612D01*
X172063670Y-143886418D01*
X172063666Y-143886421D01*
X171949202Y-143986804D01*
X171915392Y-144016455D01*
X171911817Y-144020990D01*
X171911816Y-144020991D01*
X171910531Y-144022621D01*
X171789720Y-144175869D01*
X171695203Y-144355515D01*
X171635007Y-144549378D01*
X171611148Y-144750964D01*
X169164500Y-144750964D01*
X169164500Y-142506962D01*
X171648671Y-142506962D01*
X171673443Y-142604502D01*
X171677284Y-142615348D01*
X171757394Y-142789120D01*
X171763145Y-142799081D01*
X171873579Y-142955343D01*
X171881057Y-142964098D01*
X172018114Y-143097612D01*
X172027058Y-143104855D01*
X172186156Y-143211161D01*
X172196266Y-143216651D01*
X172372077Y-143292185D01*
X172383020Y-143295740D01*
X172448332Y-143310519D01*
X172462405Y-143309630D01*
X172465828Y-143300681D01*
X172974000Y-143300681D01*
X172977966Y-143314187D01*
X172986672Y-143315433D01*
X173165497Y-143254730D01*
X173175994Y-143250056D01*
X173342958Y-143156552D01*
X173352430Y-143150042D01*
X173499553Y-143027682D01*
X173507682Y-143019553D01*
X173630042Y-142872430D01*
X173636552Y-142862958D01*
X173730056Y-142695994D01*
X173734730Y-142685497D01*
X173795335Y-142506962D01*
X174188671Y-142506962D01*
X174213443Y-142604502D01*
X174217284Y-142615348D01*
X174297394Y-142789120D01*
X174303145Y-142799081D01*
X174413579Y-142955343D01*
X174421057Y-142964098D01*
X174558114Y-143097612D01*
X174567058Y-143104855D01*
X174726156Y-143211161D01*
X174736266Y-143216651D01*
X174912077Y-143292185D01*
X174923020Y-143295740D01*
X174988332Y-143310519D01*
X175002405Y-143309630D01*
X175005828Y-143300681D01*
X175514000Y-143300681D01*
X175517966Y-143314187D01*
X175526672Y-143315433D01*
X175705497Y-143254730D01*
X175715994Y-143250056D01*
X175882958Y-143156552D01*
X175892430Y-143150042D01*
X176039553Y-143027682D01*
X176047682Y-143019553D01*
X176170042Y-142872430D01*
X176176552Y-142862958D01*
X176270056Y-142695994D01*
X176274730Y-142685497D01*
X176335335Y-142506962D01*
X186888671Y-142506962D01*
X186913443Y-142604502D01*
X186917284Y-142615348D01*
X186997394Y-142789120D01*
X187003145Y-142799081D01*
X187113579Y-142955343D01*
X187121057Y-142964098D01*
X187258114Y-143097612D01*
X187267058Y-143104855D01*
X187426156Y-143211161D01*
X187436266Y-143216651D01*
X187612077Y-143292185D01*
X187623020Y-143295740D01*
X187688332Y-143310519D01*
X187702405Y-143309630D01*
X187705828Y-143300681D01*
X188214000Y-143300681D01*
X188217966Y-143314187D01*
X188226672Y-143315433D01*
X188405497Y-143254730D01*
X188415994Y-143250056D01*
X188582958Y-143156552D01*
X188592430Y-143150042D01*
X188739553Y-143027682D01*
X188747682Y-143019553D01*
X188870042Y-142872430D01*
X188876552Y-142862958D01*
X188970056Y-142695994D01*
X188974730Y-142685497D01*
X189035335Y-142506962D01*
X189428671Y-142506962D01*
X189453443Y-142604502D01*
X189457284Y-142615348D01*
X189537394Y-142789120D01*
X189543145Y-142799081D01*
X189653579Y-142955343D01*
X189661057Y-142964098D01*
X189798114Y-143097612D01*
X189807058Y-143104855D01*
X189966156Y-143211161D01*
X189976266Y-143216651D01*
X190152077Y-143292185D01*
X190163020Y-143295740D01*
X190228332Y-143310519D01*
X190242405Y-143309630D01*
X190245828Y-143300681D01*
X190754000Y-143300681D01*
X190757966Y-143314187D01*
X190766672Y-143315433D01*
X190945497Y-143254730D01*
X190955994Y-143250056D01*
X191122958Y-143156552D01*
X191132430Y-143150042D01*
X191279553Y-143027682D01*
X191287682Y-143019553D01*
X191410042Y-142872430D01*
X191416552Y-142862958D01*
X191510056Y-142695994D01*
X191514730Y-142685497D01*
X191575443Y-142506644D01*
X191574210Y-142497993D01*
X191560642Y-142494000D01*
X190772115Y-142494000D01*
X190756876Y-142498475D01*
X190755671Y-142499865D01*
X190754000Y-142507548D01*
X190754000Y-143300681D01*
X190245828Y-143300681D01*
X190246000Y-143300232D01*
X190246000Y-142512115D01*
X190241525Y-142496876D01*
X190240135Y-142495671D01*
X190232452Y-142494000D01*
X189443494Y-142494000D01*
X189429963Y-142497973D01*
X189428671Y-142506962D01*
X189035335Y-142506962D01*
X189035443Y-142506644D01*
X189034210Y-142497993D01*
X189020642Y-142494000D01*
X188232115Y-142494000D01*
X188216876Y-142498475D01*
X188215671Y-142499865D01*
X188214000Y-142507548D01*
X188214000Y-143300681D01*
X187705828Y-143300681D01*
X187706000Y-143300232D01*
X187706000Y-142512115D01*
X187701525Y-142496876D01*
X187700135Y-142495671D01*
X187692452Y-142494000D01*
X186903494Y-142494000D01*
X186889963Y-142497973D01*
X186888671Y-142506962D01*
X176335335Y-142506962D01*
X176335443Y-142506644D01*
X176334210Y-142497993D01*
X176320642Y-142494000D01*
X175532115Y-142494000D01*
X175516876Y-142498475D01*
X175515671Y-142499865D01*
X175514000Y-142507548D01*
X175514000Y-143300681D01*
X175005828Y-143300681D01*
X175006000Y-143300232D01*
X175006000Y-142512115D01*
X175001525Y-142496876D01*
X175000135Y-142495671D01*
X174992452Y-142494000D01*
X174203494Y-142494000D01*
X174189963Y-142497973D01*
X174188671Y-142506962D01*
X173795335Y-142506962D01*
X173795443Y-142506644D01*
X173794210Y-142497993D01*
X173780642Y-142494000D01*
X172992115Y-142494000D01*
X172976876Y-142498475D01*
X172975671Y-142499865D01*
X172974000Y-142507548D01*
X172974000Y-143300681D01*
X172465828Y-143300681D01*
X172466000Y-143300232D01*
X172466000Y-142512115D01*
X172461525Y-142496876D01*
X172460135Y-142495671D01*
X172452452Y-142494000D01*
X171663494Y-142494000D01*
X171649963Y-142497973D01*
X171648671Y-142506962D01*
X169164500Y-142506962D01*
X169164500Y-141982799D01*
X171647943Y-141982799D01*
X171654675Y-141986000D01*
X172447885Y-141986000D01*
X172463124Y-141981525D01*
X172464329Y-141980135D01*
X172466000Y-141972452D01*
X172466000Y-141181500D01*
X172462194Y-141168538D01*
X172447279Y-141166602D01*
X172438732Y-141168071D01*
X172427620Y-141171048D01*
X172248095Y-141237279D01*
X172237717Y-141242229D01*
X172073273Y-141340063D01*
X172063961Y-141346829D01*
X171920097Y-141472994D01*
X171912180Y-141481337D01*
X171793718Y-141631605D01*
X171787450Y-141641256D01*
X171698358Y-141810592D01*
X171693953Y-141821227D01*
X171648162Y-141968698D01*
X171647943Y-141982799D01*
X169164500Y-141982799D01*
X169164500Y-139670964D01*
X171611148Y-139670964D01*
X171624424Y-139873522D01*
X171625845Y-139879118D01*
X171625846Y-139879123D01*
X171657625Y-140004249D01*
X171674392Y-140070269D01*
X171676809Y-140075512D01*
X171754652Y-140244367D01*
X171759377Y-140254616D01*
X171762710Y-140259332D01*
X171862273Y-140400211D01*
X171876533Y-140420389D01*
X172021938Y-140562035D01*
X172190720Y-140674812D01*
X172196023Y-140677090D01*
X172196026Y-140677092D01*
X172371921Y-140752662D01*
X172377228Y-140754942D01*
X172426588Y-140766111D01*
X172569579Y-140798467D01*
X172569584Y-140798468D01*
X172575216Y-140799742D01*
X172580987Y-140799969D01*
X172580989Y-140799969D01*
X172640756Y-140802317D01*
X172778053Y-140807712D01*
X172878499Y-140793148D01*
X172973231Y-140779413D01*
X172973236Y-140779412D01*
X172978945Y-140778584D01*
X173015689Y-140766111D01*
X173086623Y-140763155D01*
X173145285Y-140796329D01*
X173449403Y-141100447D01*
X173483429Y-141162759D01*
X173478364Y-141233574D01*
X173435817Y-141290410D01*
X173369297Y-141315221D01*
X173299923Y-141300130D01*
X173293073Y-141296104D01*
X173228236Y-141255195D01*
X173217989Y-141249974D01*
X173040260Y-141179068D01*
X173029232Y-141175801D01*
X172991769Y-141168350D01*
X172978894Y-141169502D01*
X172974000Y-141184658D01*
X172974000Y-141967885D01*
X172978475Y-141983124D01*
X172979865Y-141984329D01*
X172987548Y-141986000D01*
X173777398Y-141986000D01*
X173790929Y-141982027D01*
X173792098Y-141973892D01*
X173756658Y-141848231D01*
X173752533Y-141837484D01*
X173667903Y-141665871D01*
X173661893Y-141656063D01*
X173603389Y-141577717D01*
X173578657Y-141511167D01*
X173593831Y-141441811D01*
X173644093Y-141391669D01*
X173713485Y-141376660D01*
X173759412Y-141390202D01*
X173759791Y-141390486D01*
X173800854Y-141405880D01*
X173810155Y-141409799D01*
X173849843Y-141428432D01*
X173858713Y-141429813D01*
X173864905Y-141431706D01*
X173872320Y-141433652D01*
X173878652Y-141435044D01*
X173887060Y-141438196D01*
X173930789Y-141441445D01*
X173940814Y-141442596D01*
X173953039Y-141444500D01*
X173967216Y-141444500D01*
X173976553Y-141444846D01*
X173983828Y-141445387D01*
X174022605Y-141448268D01*
X174031381Y-141446395D01*
X174040337Y-141445784D01*
X174040345Y-141445894D01*
X174053555Y-141444500D01*
X174223162Y-141444500D01*
X174291283Y-141464502D01*
X174337776Y-141518158D01*
X174347880Y-141588432D01*
X174329985Y-141636060D01*
X174330141Y-141636142D01*
X174329490Y-141637380D01*
X174328834Y-141639125D01*
X174327452Y-141641254D01*
X174238358Y-141810592D01*
X174233953Y-141821227D01*
X174188162Y-141968698D01*
X174187943Y-141982799D01*
X174194675Y-141986000D01*
X176317398Y-141986000D01*
X176330929Y-141982027D01*
X176332098Y-141973892D01*
X176296658Y-141848231D01*
X176292533Y-141837484D01*
X176207903Y-141665871D01*
X176201890Y-141656058D01*
X176194295Y-141645887D01*
X176169564Y-141579337D01*
X176184740Y-141509981D01*
X176235002Y-141459840D01*
X176295254Y-141444500D01*
X177732746Y-141444500D01*
X177743805Y-141445736D01*
X177743854Y-141445133D01*
X177752798Y-141445853D01*
X177761555Y-141447834D01*
X177811395Y-141444742D01*
X177819197Y-141444500D01*
X177834069Y-141444500D01*
X177843418Y-141443161D01*
X177853467Y-141442132D01*
X177888252Y-141439974D01*
X177888253Y-141439974D01*
X177897212Y-141439418D01*
X177905652Y-141436371D01*
X177912016Y-141435053D01*
X177919457Y-141433197D01*
X177925659Y-141431383D01*
X177934546Y-141430111D01*
X177942717Y-141426396D01*
X177942720Y-141426395D01*
X177974471Y-141411959D01*
X177983835Y-141408147D01*
X178016615Y-141396313D01*
X178016617Y-141396312D01*
X178025054Y-141393266D01*
X178032298Y-141387975D01*
X178038003Y-141384941D01*
X178044678Y-141381040D01*
X178050107Y-141377568D01*
X178058275Y-141373854D01*
X178065071Y-141367998D01*
X178065076Y-141367995D01*
X178091491Y-141345235D01*
X178099406Y-141338950D01*
X178105451Y-141334534D01*
X178105455Y-141334531D01*
X178109387Y-141331658D01*
X178119410Y-141321635D01*
X178126257Y-141315277D01*
X178154440Y-141290993D01*
X178161242Y-141285132D01*
X178166126Y-141277597D01*
X178172025Y-141270835D01*
X178172109Y-141270908D01*
X178180466Y-141260579D01*
X179299639Y-140141405D01*
X179361951Y-140107380D01*
X179388734Y-140104500D01*
X180155185Y-140104500D01*
X180201766Y-140113765D01*
X180210699Y-140119734D01*
X180222873Y-140122156D01*
X180222874Y-140122156D01*
X180277836Y-140133088D01*
X180284933Y-140134500D01*
X180709931Y-140134500D01*
X181135066Y-140134499D01*
X181170818Y-140127388D01*
X181197126Y-140122156D01*
X181197128Y-140122155D01*
X181209301Y-140119734D01*
X181219621Y-140112839D01*
X181219622Y-140112838D01*
X181283168Y-140070377D01*
X181293484Y-140063484D01*
X181349734Y-139979301D01*
X181364500Y-139905067D01*
X181364499Y-139354934D01*
X181364499Y-139354933D01*
X181855500Y-139354933D01*
X181855501Y-139905066D01*
X181870266Y-139979301D01*
X181877161Y-139989620D01*
X181877162Y-139989622D01*
X181886936Y-140004249D01*
X181926516Y-140063484D01*
X182010699Y-140119734D01*
X182084933Y-140134500D01*
X182509931Y-140134500D01*
X182935066Y-140134499D01*
X182970818Y-140127388D01*
X182997126Y-140122156D01*
X182997128Y-140122155D01*
X183009301Y-140119734D01*
X183018235Y-140113765D01*
X183064815Y-140104500D01*
X183831265Y-140104500D01*
X183899386Y-140124502D01*
X183920360Y-140141405D01*
X185036914Y-141257958D01*
X185043865Y-141266658D01*
X185044326Y-141266266D01*
X185050145Y-141273103D01*
X185054935Y-141280695D01*
X185061664Y-141286638D01*
X185061665Y-141286639D01*
X185092382Y-141313767D01*
X185098069Y-141319113D01*
X185108568Y-141329612D01*
X185112149Y-141332296D01*
X185112156Y-141332302D01*
X185116114Y-141335268D01*
X185123953Y-141341650D01*
X185156810Y-141370668D01*
X185164933Y-141374482D01*
X185170351Y-141378041D01*
X185176934Y-141381997D01*
X185182611Y-141385105D01*
X185189791Y-141390486D01*
X185198196Y-141393637D01*
X185198198Y-141393638D01*
X185205337Y-141396314D01*
X185230854Y-141405880D01*
X185240155Y-141409799D01*
X185279843Y-141428432D01*
X185288713Y-141429813D01*
X185294905Y-141431706D01*
X185302344Y-141433658D01*
X185308658Y-141435046D01*
X185317060Y-141438196D01*
X185326006Y-141438861D01*
X185326007Y-141438861D01*
X185340986Y-141439974D01*
X185360769Y-141441444D01*
X185360782Y-141441445D01*
X185370827Y-141442598D01*
X185375111Y-141443265D01*
X185378228Y-141443751D01*
X185378230Y-141443751D01*
X185383039Y-141444500D01*
X185397206Y-141444500D01*
X185406544Y-141444846D01*
X185452605Y-141448269D01*
X185461381Y-141446396D01*
X185470338Y-141445785D01*
X185470345Y-141445895D01*
X185483561Y-141444500D01*
X186923162Y-141444500D01*
X186991283Y-141464502D01*
X187037776Y-141518158D01*
X187047880Y-141588432D01*
X187029985Y-141636060D01*
X187030141Y-141636142D01*
X187029490Y-141637380D01*
X187028834Y-141639125D01*
X187027452Y-141641254D01*
X186938358Y-141810592D01*
X186933953Y-141821227D01*
X186888162Y-141968698D01*
X186887943Y-141982799D01*
X186894675Y-141986000D01*
X189017398Y-141986000D01*
X189030929Y-141982027D01*
X189032098Y-141973892D01*
X188996658Y-141848231D01*
X188992533Y-141837484D01*
X188907903Y-141665871D01*
X188901890Y-141656058D01*
X188894295Y-141645887D01*
X188869564Y-141579337D01*
X188884740Y-141509981D01*
X188935002Y-141459840D01*
X188995254Y-141444500D01*
X189162746Y-141444500D01*
X189173805Y-141445736D01*
X189173854Y-141445133D01*
X189182798Y-141445853D01*
X189191555Y-141447834D01*
X189241395Y-141444742D01*
X189249197Y-141444500D01*
X189264069Y-141444500D01*
X189273418Y-141443161D01*
X189283467Y-141442132D01*
X189318252Y-141439974D01*
X189318253Y-141439974D01*
X189327212Y-141439418D01*
X189335652Y-141436371D01*
X189342016Y-141435053D01*
X189349457Y-141433197D01*
X189355659Y-141431383D01*
X189364546Y-141430111D01*
X189372717Y-141426396D01*
X189372720Y-141426395D01*
X189404471Y-141411959D01*
X189413835Y-141408147D01*
X189446613Y-141396314D01*
X189446617Y-141396312D01*
X189455054Y-141393266D01*
X189458218Y-141390955D01*
X189525264Y-141377149D01*
X189591504Y-141402698D01*
X189633416Y-141460003D01*
X189637693Y-141530870D01*
X189613827Y-141580726D01*
X189573722Y-141631598D01*
X189567450Y-141641256D01*
X189478358Y-141810592D01*
X189473953Y-141821227D01*
X189428162Y-141968698D01*
X189427943Y-141982799D01*
X189434675Y-141986000D01*
X190227885Y-141986000D01*
X190243124Y-141981525D01*
X190244329Y-141980135D01*
X190246000Y-141972452D01*
X190246000Y-141967885D01*
X190754000Y-141967885D01*
X190758475Y-141983124D01*
X190759865Y-141984329D01*
X190767548Y-141986000D01*
X191557398Y-141986000D01*
X191570929Y-141982027D01*
X191572098Y-141973892D01*
X191536658Y-141848231D01*
X191532533Y-141837484D01*
X191447903Y-141665871D01*
X191441893Y-141656063D01*
X191327400Y-141502739D01*
X191319710Y-141494199D01*
X191179192Y-141364304D01*
X191170067Y-141357303D01*
X191008236Y-141255195D01*
X190997989Y-141249974D01*
X190820260Y-141179068D01*
X190809232Y-141175801D01*
X190771769Y-141168350D01*
X190758894Y-141169502D01*
X190754000Y-141184658D01*
X190754000Y-141967885D01*
X190246000Y-141967885D01*
X190246000Y-141181500D01*
X190242194Y-141168538D01*
X190227279Y-141166602D01*
X190218732Y-141168071D01*
X190207620Y-141171048D01*
X190028095Y-141237279D01*
X190017717Y-141242229D01*
X189923896Y-141298047D01*
X189855126Y-141315687D01*
X189787736Y-141293347D01*
X189743122Y-141238119D01*
X189735448Y-141167538D01*
X189770378Y-141100667D01*
X190074559Y-140796486D01*
X190136871Y-140762460D01*
X190191460Y-140762688D01*
X190253509Y-140776728D01*
X190349580Y-140798467D01*
X190349583Y-140798467D01*
X190355216Y-140799742D01*
X190360987Y-140799969D01*
X190360989Y-140799969D01*
X190420756Y-140802317D01*
X190558053Y-140807712D01*
X190658499Y-140793148D01*
X190753231Y-140779413D01*
X190753236Y-140779412D01*
X190758945Y-140778584D01*
X190764409Y-140776729D01*
X190764414Y-140776728D01*
X190945693Y-140715192D01*
X190945698Y-140715190D01*
X190951165Y-140713334D01*
X191128276Y-140614147D01*
X191190934Y-140562035D01*
X191279913Y-140488031D01*
X191284345Y-140484345D01*
X191363148Y-140389595D01*
X191410453Y-140332718D01*
X191410455Y-140332715D01*
X191414147Y-140328276D01*
X191513334Y-140151165D01*
X191515190Y-140145698D01*
X191515192Y-140145693D01*
X191576728Y-139964414D01*
X191576729Y-139964409D01*
X191578584Y-139958945D01*
X191579412Y-139953236D01*
X191579413Y-139953231D01*
X191607179Y-139761727D01*
X191607712Y-139758053D01*
X191609232Y-139700000D01*
X191590658Y-139497859D01*
X191589090Y-139492299D01*
X191537125Y-139308046D01*
X191537124Y-139308044D01*
X191535557Y-139302487D01*
X191530817Y-139292874D01*
X191448331Y-139125609D01*
X191445776Y-139120428D01*
X191442320Y-139115799D01*
X191401500Y-139061135D01*
X191324320Y-138957779D01*
X191175258Y-138819987D01*
X191170375Y-138816906D01*
X191170371Y-138816903D01*
X191008464Y-138714748D01*
X191003581Y-138711667D01*
X190815039Y-138636446D01*
X190809379Y-138635320D01*
X190809375Y-138635319D01*
X190621613Y-138597971D01*
X190621610Y-138597971D01*
X190615946Y-138596844D01*
X190610171Y-138596768D01*
X190610167Y-138596768D01*
X190508793Y-138595441D01*
X190412971Y-138594187D01*
X190407274Y-138595166D01*
X190407273Y-138595166D01*
X190218607Y-138627585D01*
X190212910Y-138628564D01*
X190022463Y-138698824D01*
X189928875Y-138754503D01*
X189925333Y-138756610D01*
X189856562Y-138774250D01*
X189789172Y-138751909D01*
X189744559Y-138696681D01*
X189736886Y-138626101D01*
X189771815Y-138559230D01*
X190074559Y-138256486D01*
X190136871Y-138222460D01*
X190191460Y-138222688D01*
X190253509Y-138236728D01*
X190349580Y-138258467D01*
X190349583Y-138258467D01*
X190355216Y-138259742D01*
X190360987Y-138259969D01*
X190360989Y-138259969D01*
X190420756Y-138262317D01*
X190558053Y-138267712D01*
X190658499Y-138253148D01*
X190753231Y-138239413D01*
X190753236Y-138239412D01*
X190758945Y-138238584D01*
X190764409Y-138236729D01*
X190764414Y-138236728D01*
X190945693Y-138175192D01*
X190945698Y-138175190D01*
X190951165Y-138173334D01*
X191128276Y-138074147D01*
X191190934Y-138022035D01*
X191279913Y-137948031D01*
X191284345Y-137944345D01*
X191354319Y-137860211D01*
X191410453Y-137792718D01*
X191410455Y-137792715D01*
X191414147Y-137788276D01*
X191513334Y-137611165D01*
X191515190Y-137605698D01*
X191515192Y-137605693D01*
X191576728Y-137424414D01*
X191576729Y-137424409D01*
X191578584Y-137418945D01*
X191579412Y-137413236D01*
X191579413Y-137413231D01*
X191607179Y-137221727D01*
X191607712Y-137218053D01*
X191609232Y-137160000D01*
X191590658Y-136957859D01*
X191589090Y-136952299D01*
X191537125Y-136768046D01*
X191537124Y-136768044D01*
X191535557Y-136762487D01*
X191532112Y-136755500D01*
X191448331Y-136585609D01*
X191448330Y-136585608D01*
X191445776Y-136580428D01*
X191442320Y-136575799D01*
X191386693Y-136501307D01*
X191324320Y-136417779D01*
X191175258Y-136279987D01*
X191170375Y-136276906D01*
X191170371Y-136276903D01*
X191008464Y-136174748D01*
X191003581Y-136171667D01*
X190815039Y-136096446D01*
X190809379Y-136095320D01*
X190809375Y-136095319D01*
X190621613Y-136057971D01*
X190621610Y-136057971D01*
X190615946Y-136056844D01*
X190610171Y-136056768D01*
X190610167Y-136056768D01*
X190508793Y-136055441D01*
X190412971Y-136054187D01*
X190407274Y-136055166D01*
X190407273Y-136055166D01*
X190218607Y-136087585D01*
X190212910Y-136088564D01*
X190022463Y-136158824D01*
X189928875Y-136214503D01*
X189925333Y-136216610D01*
X189856562Y-136234250D01*
X189789172Y-136211909D01*
X189744559Y-136156681D01*
X189736886Y-136086101D01*
X189771815Y-136019230D01*
X190074559Y-135716486D01*
X190136871Y-135682460D01*
X190191460Y-135682688D01*
X190253509Y-135696728D01*
X190349580Y-135718467D01*
X190349583Y-135718467D01*
X190355216Y-135719742D01*
X190360987Y-135719969D01*
X190360989Y-135719969D01*
X190420756Y-135722317D01*
X190558053Y-135727712D01*
X190658499Y-135713148D01*
X190753231Y-135699413D01*
X190753236Y-135699412D01*
X190758945Y-135698584D01*
X190764409Y-135696729D01*
X190764414Y-135696728D01*
X190945693Y-135635192D01*
X190945698Y-135635190D01*
X190951165Y-135633334D01*
X191128276Y-135534147D01*
X191190934Y-135482035D01*
X191279913Y-135408031D01*
X191284345Y-135404345D01*
X191363148Y-135309595D01*
X191410453Y-135252718D01*
X191410455Y-135252715D01*
X191414147Y-135248276D01*
X191513334Y-135071165D01*
X191515190Y-135065698D01*
X191515192Y-135065693D01*
X191576728Y-134884414D01*
X191576729Y-134884409D01*
X191578584Y-134878945D01*
X191579412Y-134873236D01*
X191579413Y-134873231D01*
X191607179Y-134681727D01*
X191607712Y-134678053D01*
X191609232Y-134620000D01*
X191590658Y-134417859D01*
X191589090Y-134412299D01*
X191537125Y-134228046D01*
X191537124Y-134228044D01*
X191535557Y-134222487D01*
X191530817Y-134212874D01*
X191448331Y-134045609D01*
X191445776Y-134040428D01*
X191442320Y-134035799D01*
X191398623Y-133977283D01*
X191324320Y-133877779D01*
X191175258Y-133739987D01*
X191170375Y-133736906D01*
X191170371Y-133736903D01*
X191008464Y-133634748D01*
X191003581Y-133631667D01*
X190815039Y-133556446D01*
X190809379Y-133555320D01*
X190809375Y-133555319D01*
X190621613Y-133517971D01*
X190621610Y-133517971D01*
X190615946Y-133516844D01*
X190610171Y-133516768D01*
X190610167Y-133516768D01*
X190508793Y-133515441D01*
X190412971Y-133514187D01*
X190407274Y-133515166D01*
X190407273Y-133515166D01*
X190218607Y-133547585D01*
X190212910Y-133548564D01*
X190022463Y-133618824D01*
X189928875Y-133674503D01*
X189925333Y-133676610D01*
X189856562Y-133694250D01*
X189789172Y-133671909D01*
X189744559Y-133616681D01*
X189736886Y-133546101D01*
X189771815Y-133479230D01*
X190074559Y-133176486D01*
X190136871Y-133142460D01*
X190191460Y-133142688D01*
X190253509Y-133156728D01*
X190349580Y-133178467D01*
X190349583Y-133178467D01*
X190355216Y-133179742D01*
X190360987Y-133179969D01*
X190360989Y-133179969D01*
X190420756Y-133182317D01*
X190558053Y-133187712D01*
X190658499Y-133173148D01*
X190753231Y-133159413D01*
X190753236Y-133159412D01*
X190758945Y-133158584D01*
X190764409Y-133156729D01*
X190764414Y-133156728D01*
X190945693Y-133095192D01*
X190945698Y-133095190D01*
X190951165Y-133093334D01*
X191128276Y-132994147D01*
X191190934Y-132942035D01*
X191279913Y-132868031D01*
X191284345Y-132864345D01*
X191341463Y-132795669D01*
X191410453Y-132712718D01*
X191410455Y-132712715D01*
X191414147Y-132708276D01*
X191513334Y-132531165D01*
X191515190Y-132525698D01*
X191515192Y-132525693D01*
X191576728Y-132344414D01*
X191576729Y-132344409D01*
X191578584Y-132338945D01*
X191579412Y-132333236D01*
X191579413Y-132333231D01*
X191607179Y-132141727D01*
X191607712Y-132138053D01*
X191609232Y-132080000D01*
X191590658Y-131877859D01*
X191589090Y-131872299D01*
X191537125Y-131688046D01*
X191537124Y-131688044D01*
X191535557Y-131682487D01*
X191532112Y-131675500D01*
X191448331Y-131505609D01*
X191445776Y-131500428D01*
X191324320Y-131337779D01*
X191175258Y-131199987D01*
X191170375Y-131196906D01*
X191170371Y-131196903D01*
X191008464Y-131094748D01*
X191003581Y-131091667D01*
X190815039Y-131016446D01*
X190809379Y-131015320D01*
X190809375Y-131015319D01*
X190621613Y-130977971D01*
X190621610Y-130977971D01*
X190615946Y-130976844D01*
X190610171Y-130976768D01*
X190610167Y-130976768D01*
X190508793Y-130975441D01*
X190412971Y-130974187D01*
X190407274Y-130975166D01*
X190407273Y-130975166D01*
X190319397Y-130990266D01*
X190212910Y-131008564D01*
X190022463Y-131078824D01*
X189848010Y-131182612D01*
X189843670Y-131186418D01*
X189843666Y-131186421D01*
X189699733Y-131312648D01*
X189695392Y-131316455D01*
X189569720Y-131475869D01*
X189567031Y-131480980D01*
X189567029Y-131480983D01*
X189519128Y-131572027D01*
X189475203Y-131655515D01*
X189415007Y-131849378D01*
X189391148Y-132050964D01*
X189404424Y-132253522D01*
X189405847Y-132259123D01*
X189405847Y-132259126D01*
X189437624Y-132384249D01*
X189435006Y-132455197D01*
X189404596Y-132504359D01*
X189279595Y-132629360D01*
X189217283Y-132663386D01*
X189146468Y-132658321D01*
X189089632Y-132615774D01*
X189064821Y-132549254D01*
X189064500Y-132540265D01*
X189064499Y-131211123D01*
X189064499Y-131204934D01*
X189049734Y-131130699D01*
X189023654Y-131091667D01*
X189000377Y-131056832D01*
X188993484Y-131046516D01*
X188909301Y-130990266D01*
X188835067Y-130975500D01*
X187960142Y-130975500D01*
X187084934Y-130975501D01*
X187049182Y-130982612D01*
X187022874Y-130987844D01*
X187022872Y-130987845D01*
X187010699Y-130990266D01*
X187000379Y-130997161D01*
X187000378Y-130997162D01*
X186939985Y-131037516D01*
X186926516Y-131046516D01*
X186870266Y-131130699D01*
X186855500Y-131204933D01*
X186855500Y-131549500D01*
X186835498Y-131617621D01*
X186781842Y-131664114D01*
X186729500Y-131675500D01*
X183064815Y-131675500D01*
X183018234Y-131666235D01*
X183009301Y-131660266D01*
X182997127Y-131657844D01*
X182997126Y-131657844D01*
X182941135Y-131646707D01*
X182935067Y-131645500D01*
X182510069Y-131645500D01*
X182084934Y-131645501D01*
X182049182Y-131652612D01*
X182022874Y-131657844D01*
X182022872Y-131657845D01*
X182010699Y-131660266D01*
X182000379Y-131667161D01*
X182000378Y-131667162D01*
X181977443Y-131682487D01*
X181926516Y-131716516D01*
X181870266Y-131800699D01*
X181855500Y-131874933D01*
X181855501Y-132425066D01*
X181870266Y-132499301D01*
X181877162Y-132509621D01*
X181881911Y-132521087D01*
X181879432Y-132522114D01*
X181895288Y-132572745D01*
X181879133Y-132627765D01*
X181881910Y-132628915D01*
X181877161Y-132640379D01*
X181870266Y-132650699D01*
X181855500Y-132724933D01*
X181855501Y-133175066D01*
X181870266Y-133249301D01*
X181877161Y-133259621D01*
X181877162Y-133259622D01*
X181890777Y-133279998D01*
X181911992Y-133347751D01*
X181890777Y-133420002D01*
X181877161Y-133440379D01*
X181877160Y-133440382D01*
X181870266Y-133450699D01*
X181855500Y-133524933D01*
X181855501Y-133975066D01*
X181862612Y-134010818D01*
X181867581Y-134035801D01*
X181870266Y-134049301D01*
X181877162Y-134059621D01*
X181881911Y-134071087D01*
X181879432Y-134072114D01*
X181895288Y-134122745D01*
X181879133Y-134177765D01*
X181881910Y-134178915D01*
X181877161Y-134190379D01*
X181870266Y-134200699D01*
X181855500Y-134274933D01*
X181855501Y-134825066D01*
X181870266Y-134899301D01*
X181877161Y-134909620D01*
X181877162Y-134909622D01*
X181886936Y-134924249D01*
X181926516Y-134983484D01*
X182010699Y-135039734D01*
X182084933Y-135054500D01*
X182509931Y-135054500D01*
X182935066Y-135054499D01*
X182970818Y-135047388D01*
X182997126Y-135042156D01*
X182997128Y-135042155D01*
X183009301Y-135039734D01*
X183018235Y-135033765D01*
X183064815Y-135024500D01*
X183597515Y-135024500D01*
X183665636Y-135044502D01*
X183686610Y-135061405D01*
X184803164Y-136177958D01*
X184810115Y-136186658D01*
X184810576Y-136186266D01*
X184816395Y-136193103D01*
X184821185Y-136200695D01*
X184827914Y-136206638D01*
X184827915Y-136206639D01*
X184858632Y-136233767D01*
X184864319Y-136239113D01*
X184874818Y-136249612D01*
X184878399Y-136252296D01*
X184878406Y-136252302D01*
X184882364Y-136255268D01*
X184890203Y-136261650D01*
X184923060Y-136290668D01*
X184931183Y-136294482D01*
X184936601Y-136298041D01*
X184943184Y-136301997D01*
X184948861Y-136305105D01*
X184956041Y-136310486D01*
X184964446Y-136313637D01*
X184964448Y-136313638D01*
X184986157Y-136321776D01*
X184997104Y-136325880D01*
X185006405Y-136329799D01*
X185046093Y-136348432D01*
X185054963Y-136349813D01*
X185061155Y-136351706D01*
X185068594Y-136353658D01*
X185074908Y-136355046D01*
X185083310Y-136358196D01*
X185092256Y-136358861D01*
X185092257Y-136358861D01*
X185107236Y-136359974D01*
X185127019Y-136361444D01*
X185127032Y-136361445D01*
X185137077Y-136362598D01*
X185141361Y-136363265D01*
X185144478Y-136363751D01*
X185144480Y-136363751D01*
X185149289Y-136364500D01*
X185163456Y-136364500D01*
X185172794Y-136364846D01*
X185218855Y-136368269D01*
X185227631Y-136366396D01*
X185236588Y-136365785D01*
X185236595Y-136365895D01*
X185249811Y-136364500D01*
X186922564Y-136364500D01*
X186990685Y-136384502D01*
X187037178Y-136438158D01*
X187047282Y-136508432D01*
X187029502Y-136555754D01*
X187029720Y-136555869D01*
X186961661Y-136685228D01*
X186960114Y-136688168D01*
X186910695Y-136739140D01*
X186848606Y-136755500D01*
X183064815Y-136755500D01*
X183018234Y-136746235D01*
X183009301Y-136740266D01*
X182997127Y-136737844D01*
X182997126Y-136737844D01*
X182941135Y-136726707D01*
X182935067Y-136725500D01*
X182510069Y-136725500D01*
X182084934Y-136725501D01*
X182049182Y-136732612D01*
X182022874Y-136737844D01*
X182022872Y-136737845D01*
X182010699Y-136740266D01*
X182000379Y-136747161D01*
X182000378Y-136747162D01*
X181977443Y-136762487D01*
X181926516Y-136796516D01*
X181870266Y-136880699D01*
X181855500Y-136954933D01*
X181855501Y-137505066D01*
X181870266Y-137579301D01*
X181877162Y-137589621D01*
X181881911Y-137601087D01*
X181879432Y-137602114D01*
X181895288Y-137652745D01*
X181879133Y-137707765D01*
X181881910Y-137708915D01*
X181877161Y-137720379D01*
X181870266Y-137730699D01*
X181855500Y-137804933D01*
X181855501Y-138255066D01*
X181870266Y-138329301D01*
X181877161Y-138339621D01*
X181877162Y-138339622D01*
X181890777Y-138359998D01*
X181911992Y-138427751D01*
X181890777Y-138500002D01*
X181877161Y-138520379D01*
X181877160Y-138520382D01*
X181870266Y-138530699D01*
X181855500Y-138604933D01*
X181855501Y-139055066D01*
X181862612Y-139090818D01*
X181867581Y-139115801D01*
X181870266Y-139129301D01*
X181877162Y-139139621D01*
X181881911Y-139151087D01*
X181879432Y-139152114D01*
X181895288Y-139202745D01*
X181879133Y-139257765D01*
X181881910Y-139258915D01*
X181877161Y-139270379D01*
X181870266Y-139280699D01*
X181855500Y-139354933D01*
X181364499Y-139354933D01*
X181354068Y-139302487D01*
X181352156Y-139292874D01*
X181352155Y-139292872D01*
X181349734Y-139280699D01*
X181342838Y-139270379D01*
X181338089Y-139258913D01*
X181340568Y-139257886D01*
X181324712Y-139207255D01*
X181340867Y-139152235D01*
X181338090Y-139151085D01*
X181342839Y-139139621D01*
X181349734Y-139129301D01*
X181364500Y-139055067D01*
X181364499Y-138604934D01*
X181349734Y-138530699D01*
X181332229Y-138504500D01*
X181329223Y-138500002D01*
X181308008Y-138432249D01*
X181329223Y-138359998D01*
X181342839Y-138339621D01*
X181342840Y-138339618D01*
X181349734Y-138329301D01*
X181364500Y-138255067D01*
X181364499Y-137804934D01*
X181349734Y-137730699D01*
X181342838Y-137720379D01*
X181338089Y-137708913D01*
X181340568Y-137707886D01*
X181324712Y-137657255D01*
X181340867Y-137602235D01*
X181338090Y-137601085D01*
X181342839Y-137589621D01*
X181349734Y-137579301D01*
X181364500Y-137505067D01*
X181364499Y-136954934D01*
X181349734Y-136880699D01*
X181293484Y-136796516D01*
X181209301Y-136740266D01*
X181135067Y-136725500D01*
X180710069Y-136725500D01*
X180284934Y-136725501D01*
X180249182Y-136732612D01*
X180222874Y-136737844D01*
X180222872Y-136737845D01*
X180210699Y-136740266D01*
X180201765Y-136746235D01*
X180155185Y-136755500D01*
X176370463Y-136755500D01*
X176302342Y-136735498D01*
X176257457Y-136685228D01*
X176208331Y-136585608D01*
X176208328Y-136585604D01*
X176205776Y-136580428D01*
X176202321Y-136575801D01*
X176202320Y-136575799D01*
X176194920Y-136565890D01*
X176170188Y-136499340D01*
X176185361Y-136429984D01*
X176235622Y-136379841D01*
X176295877Y-136364500D01*
X177732746Y-136364500D01*
X177743805Y-136365736D01*
X177743854Y-136365133D01*
X177752798Y-136365853D01*
X177761555Y-136367834D01*
X177811395Y-136364742D01*
X177819197Y-136364500D01*
X177834069Y-136364500D01*
X177843418Y-136363161D01*
X177853467Y-136362132D01*
X177888252Y-136359974D01*
X177888253Y-136359974D01*
X177897212Y-136359418D01*
X177905652Y-136356371D01*
X177912016Y-136355053D01*
X177919457Y-136353197D01*
X177925659Y-136351383D01*
X177934546Y-136350111D01*
X177942717Y-136346396D01*
X177942720Y-136346395D01*
X177974471Y-136331959D01*
X177983835Y-136328147D01*
X178016615Y-136316313D01*
X178016617Y-136316312D01*
X178025054Y-136313266D01*
X178032298Y-136307975D01*
X178038003Y-136304941D01*
X178044678Y-136301040D01*
X178050107Y-136297568D01*
X178058275Y-136293854D01*
X178065071Y-136287998D01*
X178065076Y-136287995D01*
X178091491Y-136265235D01*
X178099406Y-136258950D01*
X178105451Y-136254534D01*
X178105455Y-136254531D01*
X178109387Y-136251658D01*
X178119410Y-136241635D01*
X178126257Y-136235277D01*
X178154440Y-136210993D01*
X178161242Y-136205132D01*
X178166126Y-136197597D01*
X178172025Y-136190835D01*
X178172109Y-136190908D01*
X178180466Y-136180579D01*
X179299639Y-135061405D01*
X179361951Y-135027380D01*
X179388734Y-135024500D01*
X180155185Y-135024500D01*
X180201766Y-135033765D01*
X180210699Y-135039734D01*
X180222873Y-135042156D01*
X180222874Y-135042156D01*
X180277836Y-135053088D01*
X180284933Y-135054500D01*
X180709931Y-135054500D01*
X181135066Y-135054499D01*
X181170818Y-135047388D01*
X181197126Y-135042156D01*
X181197128Y-135042155D01*
X181209301Y-135039734D01*
X181219621Y-135032839D01*
X181219622Y-135032838D01*
X181283168Y-134990377D01*
X181293484Y-134983484D01*
X181349734Y-134899301D01*
X181364500Y-134825067D01*
X181364499Y-134274934D01*
X181354068Y-134222487D01*
X181352156Y-134212874D01*
X181352155Y-134212872D01*
X181349734Y-134200699D01*
X181342838Y-134190379D01*
X181338089Y-134178913D01*
X181340568Y-134177886D01*
X181324712Y-134127255D01*
X181340867Y-134072235D01*
X181338090Y-134071085D01*
X181342839Y-134059621D01*
X181349734Y-134049301D01*
X181364500Y-133975067D01*
X181364499Y-133524934D01*
X181349734Y-133450699D01*
X181329223Y-133420002D01*
X181308008Y-133352249D01*
X181329223Y-133279998D01*
X181342839Y-133259621D01*
X181342840Y-133259618D01*
X181349734Y-133249301D01*
X181364500Y-133175067D01*
X181364499Y-132724934D01*
X181357388Y-132689182D01*
X181352156Y-132662874D01*
X181352155Y-132662872D01*
X181349734Y-132650699D01*
X181342838Y-132640379D01*
X181338089Y-132628913D01*
X181340568Y-132627886D01*
X181324712Y-132577255D01*
X181340867Y-132522235D01*
X181338090Y-132521085D01*
X181342839Y-132509621D01*
X181349734Y-132499301D01*
X181364500Y-132425067D01*
X181364499Y-131874934D01*
X181349734Y-131800699D01*
X181293484Y-131716516D01*
X181209301Y-131660266D01*
X181135067Y-131645500D01*
X180710069Y-131645500D01*
X180284934Y-131645501D01*
X180249182Y-131652612D01*
X180222874Y-131657844D01*
X180222872Y-131657845D01*
X180210699Y-131660266D01*
X180201765Y-131666235D01*
X180155185Y-131675500D01*
X176490499Y-131675500D01*
X176422378Y-131655498D01*
X176375885Y-131601842D01*
X176364499Y-131549500D01*
X176364499Y-131204934D01*
X176349734Y-131130699D01*
X176323654Y-131091667D01*
X176300377Y-131056832D01*
X176293484Y-131046516D01*
X176209301Y-130990266D01*
X176135067Y-130975500D01*
X175260142Y-130975500D01*
X174384934Y-130975501D01*
X174349182Y-130982612D01*
X174322874Y-130987844D01*
X174322872Y-130987845D01*
X174310699Y-130990266D01*
X174300379Y-130997161D01*
X174300378Y-130997162D01*
X174239985Y-131037516D01*
X174226516Y-131046516D01*
X174170266Y-131130699D01*
X174155500Y-131204933D01*
X174155501Y-131883613D01*
X174155501Y-132540267D01*
X174135499Y-132608388D01*
X174081843Y-132654881D01*
X174011569Y-132664985D01*
X173946989Y-132635492D01*
X173940406Y-132629362D01*
X173816329Y-132505285D01*
X173782303Y-132442973D01*
X173786111Y-132375688D01*
X173796729Y-132344410D01*
X173796729Y-132344409D01*
X173798584Y-132338945D01*
X173799412Y-132333236D01*
X173799413Y-132333231D01*
X173827179Y-132141727D01*
X173827712Y-132138053D01*
X173829232Y-132080000D01*
X173810658Y-131877859D01*
X173809090Y-131872299D01*
X173757125Y-131688046D01*
X173757124Y-131688044D01*
X173755557Y-131682487D01*
X173752112Y-131675500D01*
X173668331Y-131505609D01*
X173665776Y-131500428D01*
X173544320Y-131337779D01*
X173395258Y-131199987D01*
X173390375Y-131196906D01*
X173390371Y-131196903D01*
X173228464Y-131094748D01*
X173223581Y-131091667D01*
X173035039Y-131016446D01*
X173029379Y-131015320D01*
X173029375Y-131015319D01*
X172841613Y-130977971D01*
X172841610Y-130977971D01*
X172835946Y-130976844D01*
X172830171Y-130976768D01*
X172830167Y-130976768D01*
X172728793Y-130975441D01*
X172632971Y-130974187D01*
X172627274Y-130975166D01*
X172627273Y-130975166D01*
X172539397Y-130990266D01*
X172432910Y-131008564D01*
X172242463Y-131078824D01*
X172068010Y-131182612D01*
X172063670Y-131186418D01*
X172063666Y-131186421D01*
X171919733Y-131312648D01*
X171915392Y-131316455D01*
X171789720Y-131475869D01*
X171787031Y-131480980D01*
X171787029Y-131480983D01*
X171739128Y-131572027D01*
X171695203Y-131655515D01*
X171635007Y-131849378D01*
X171611148Y-132050964D01*
X171624424Y-132253522D01*
X171625845Y-132259118D01*
X171625846Y-132259123D01*
X171669533Y-132431137D01*
X171674392Y-132450269D01*
X171676809Y-132455512D01*
X171714010Y-132536208D01*
X171759377Y-132634616D01*
X171876533Y-132800389D01*
X172021938Y-132942035D01*
X172190720Y-133054812D01*
X172196023Y-133057090D01*
X172196026Y-133057092D01*
X172371921Y-133132662D01*
X172377228Y-133134942D01*
X172426588Y-133146111D01*
X172569579Y-133178467D01*
X172569584Y-133178468D01*
X172575216Y-133179742D01*
X172580987Y-133179969D01*
X172580989Y-133179969D01*
X172640756Y-133182317D01*
X172778053Y-133187712D01*
X172878499Y-133173148D01*
X172973231Y-133159413D01*
X172973236Y-133159412D01*
X172978945Y-133158584D01*
X173015689Y-133146111D01*
X173086623Y-133143155D01*
X173145285Y-133176329D01*
X173447802Y-133478846D01*
X173481828Y-133541158D01*
X173476763Y-133611973D01*
X173434216Y-133668809D01*
X173367696Y-133693620D01*
X173298322Y-133678529D01*
X173291472Y-133674503D01*
X173228464Y-133634748D01*
X173223581Y-133631667D01*
X173035039Y-133556446D01*
X173029379Y-133555320D01*
X173029375Y-133555319D01*
X172841613Y-133517971D01*
X172841610Y-133517971D01*
X172835946Y-133516844D01*
X172830171Y-133516768D01*
X172830167Y-133516768D01*
X172728793Y-133515441D01*
X172632971Y-133514187D01*
X172627274Y-133515166D01*
X172627273Y-133515166D01*
X172438607Y-133547585D01*
X172432910Y-133548564D01*
X172242463Y-133618824D01*
X172068010Y-133722612D01*
X172063670Y-133726418D01*
X172063666Y-133726421D01*
X171933493Y-133840581D01*
X171915392Y-133856455D01*
X171789720Y-134015869D01*
X171787032Y-134020978D01*
X171787029Y-134020983D01*
X171774073Y-134045609D01*
X171695203Y-134195515D01*
X171635007Y-134389378D01*
X171611148Y-134590964D01*
X171624424Y-134793522D01*
X171625845Y-134799118D01*
X171625846Y-134799123D01*
X171657625Y-134924249D01*
X171674392Y-134990269D01*
X171676809Y-134995512D01*
X171754652Y-135164367D01*
X171759377Y-135174616D01*
X171762710Y-135179332D01*
X171862273Y-135320211D01*
X171876533Y-135340389D01*
X172021938Y-135482035D01*
X172190720Y-135594812D01*
X172196023Y-135597090D01*
X172196026Y-135597092D01*
X172371921Y-135672662D01*
X172377228Y-135674942D01*
X172426588Y-135686111D01*
X172569579Y-135718467D01*
X172569584Y-135718468D01*
X172575216Y-135719742D01*
X172580987Y-135719969D01*
X172580989Y-135719969D01*
X172640756Y-135722317D01*
X172778053Y-135727712D01*
X172878499Y-135713148D01*
X172973231Y-135699413D01*
X172973236Y-135699412D01*
X172978945Y-135698584D01*
X173015689Y-135686111D01*
X173086623Y-135683155D01*
X173145285Y-135716329D01*
X173447802Y-136018846D01*
X173481828Y-136081158D01*
X173476763Y-136151973D01*
X173434216Y-136208809D01*
X173367696Y-136233620D01*
X173298322Y-136218529D01*
X173291472Y-136214503D01*
X173228464Y-136174748D01*
X173223581Y-136171667D01*
X173035039Y-136096446D01*
X173029379Y-136095320D01*
X173029375Y-136095319D01*
X172841613Y-136057971D01*
X172841610Y-136057971D01*
X172835946Y-136056844D01*
X172830171Y-136056768D01*
X172830167Y-136056768D01*
X172728793Y-136055441D01*
X172632971Y-136054187D01*
X172627274Y-136055166D01*
X172627273Y-136055166D01*
X172438607Y-136087585D01*
X172432910Y-136088564D01*
X172242463Y-136158824D01*
X172068010Y-136262612D01*
X172063670Y-136266418D01*
X172063666Y-136266421D01*
X171933493Y-136380581D01*
X171915392Y-136396455D01*
X171789720Y-136555869D01*
X171787031Y-136560980D01*
X171787029Y-136560983D01*
X171774073Y-136585608D01*
X171695203Y-136735515D01*
X171635007Y-136929378D01*
X171611148Y-137130964D01*
X171624424Y-137333522D01*
X171625845Y-137339118D01*
X171625846Y-137339123D01*
X171669533Y-137511137D01*
X171674392Y-137530269D01*
X171676809Y-137535512D01*
X171714010Y-137616208D01*
X171759377Y-137714616D01*
X171762710Y-137719332D01*
X171862273Y-137860211D01*
X171876533Y-137880389D01*
X172021938Y-138022035D01*
X172190720Y-138134812D01*
X172196023Y-138137090D01*
X172196026Y-138137092D01*
X172371921Y-138212662D01*
X172377228Y-138214942D01*
X172426588Y-138226111D01*
X172569579Y-138258467D01*
X172569584Y-138258468D01*
X172575216Y-138259742D01*
X172580987Y-138259969D01*
X172580989Y-138259969D01*
X172640756Y-138262317D01*
X172778053Y-138267712D01*
X172878499Y-138253148D01*
X172973231Y-138239413D01*
X172973236Y-138239412D01*
X172978945Y-138238584D01*
X173015689Y-138226111D01*
X173086623Y-138223155D01*
X173145285Y-138256329D01*
X173447802Y-138558846D01*
X173481828Y-138621158D01*
X173476763Y-138691973D01*
X173434216Y-138748809D01*
X173367696Y-138773620D01*
X173298322Y-138758529D01*
X173291472Y-138754503D01*
X173228464Y-138714748D01*
X173223581Y-138711667D01*
X173035039Y-138636446D01*
X173029379Y-138635320D01*
X173029375Y-138635319D01*
X172841613Y-138597971D01*
X172841610Y-138597971D01*
X172835946Y-138596844D01*
X172830171Y-138596768D01*
X172830167Y-138596768D01*
X172728793Y-138595441D01*
X172632971Y-138594187D01*
X172627274Y-138595166D01*
X172627273Y-138595166D01*
X172438607Y-138627585D01*
X172432910Y-138628564D01*
X172242463Y-138698824D01*
X172068010Y-138802612D01*
X172063670Y-138806418D01*
X172063666Y-138806421D01*
X171933493Y-138920581D01*
X171915392Y-138936455D01*
X171789720Y-139095869D01*
X171787031Y-139100980D01*
X171787029Y-139100983D01*
X171774073Y-139125609D01*
X171695203Y-139275515D01*
X171635007Y-139469378D01*
X171611148Y-139670964D01*
X169164500Y-139670964D01*
X169164500Y-119646962D01*
X171648671Y-119646962D01*
X171673443Y-119744502D01*
X171677284Y-119755348D01*
X171757394Y-119929120D01*
X171763145Y-119939081D01*
X171873579Y-120095343D01*
X171881057Y-120104098D01*
X172018114Y-120237612D01*
X172027058Y-120244855D01*
X172186156Y-120351161D01*
X172196266Y-120356651D01*
X172372077Y-120432185D01*
X172383020Y-120435740D01*
X172448332Y-120450519D01*
X172462405Y-120449630D01*
X172465828Y-120440681D01*
X172974000Y-120440681D01*
X172977966Y-120454187D01*
X172986672Y-120455433D01*
X173165497Y-120394730D01*
X173175994Y-120390056D01*
X173342958Y-120296552D01*
X173352430Y-120290042D01*
X173499553Y-120167682D01*
X173507682Y-120159553D01*
X173630042Y-120012430D01*
X173636552Y-120002958D01*
X173730056Y-119835994D01*
X173734730Y-119825497D01*
X173795335Y-119646962D01*
X174188671Y-119646962D01*
X174213443Y-119744502D01*
X174217284Y-119755348D01*
X174297394Y-119929120D01*
X174303145Y-119939081D01*
X174413579Y-120095343D01*
X174421057Y-120104098D01*
X174558114Y-120237612D01*
X174567058Y-120244855D01*
X174726156Y-120351161D01*
X174736266Y-120356651D01*
X174912077Y-120432185D01*
X174923020Y-120435740D01*
X174988332Y-120450519D01*
X175002405Y-120449630D01*
X175005828Y-120440681D01*
X175514000Y-120440681D01*
X175517966Y-120454187D01*
X175526672Y-120455433D01*
X175705497Y-120394730D01*
X175715994Y-120390056D01*
X175882958Y-120296552D01*
X175892430Y-120290042D01*
X176039553Y-120167682D01*
X176047682Y-120159553D01*
X176170042Y-120012430D01*
X176176552Y-120002958D01*
X176270056Y-119835994D01*
X176274730Y-119825497D01*
X176335335Y-119646962D01*
X186888671Y-119646962D01*
X186913443Y-119744502D01*
X186917284Y-119755348D01*
X186997394Y-119929120D01*
X187003145Y-119939081D01*
X187113579Y-120095343D01*
X187121057Y-120104098D01*
X187258114Y-120237612D01*
X187267058Y-120244855D01*
X187426156Y-120351161D01*
X187436266Y-120356651D01*
X187612077Y-120432185D01*
X187623020Y-120435740D01*
X187688332Y-120450519D01*
X187702405Y-120449630D01*
X187705828Y-120440681D01*
X188214000Y-120440681D01*
X188217966Y-120454187D01*
X188226672Y-120455433D01*
X188405497Y-120394730D01*
X188415994Y-120390056D01*
X188582958Y-120296552D01*
X188592430Y-120290042D01*
X188739553Y-120167682D01*
X188747682Y-120159553D01*
X188870042Y-120012430D01*
X188876552Y-120002958D01*
X188970056Y-119835994D01*
X188974730Y-119825497D01*
X189035335Y-119646962D01*
X189428671Y-119646962D01*
X189453443Y-119744502D01*
X189457284Y-119755348D01*
X189537394Y-119929120D01*
X189543145Y-119939081D01*
X189653579Y-120095343D01*
X189661057Y-120104098D01*
X189798114Y-120237612D01*
X189807058Y-120244855D01*
X189966156Y-120351161D01*
X189976266Y-120356651D01*
X190152077Y-120432185D01*
X190163020Y-120435740D01*
X190228332Y-120450519D01*
X190242405Y-120449630D01*
X190245828Y-120440681D01*
X190754000Y-120440681D01*
X190757966Y-120454187D01*
X190766672Y-120455433D01*
X190945497Y-120394730D01*
X190955994Y-120390056D01*
X191122958Y-120296552D01*
X191132430Y-120290042D01*
X191279553Y-120167682D01*
X191287682Y-120159553D01*
X191410042Y-120012430D01*
X191416552Y-120002958D01*
X191510056Y-119835994D01*
X191514730Y-119825497D01*
X191575443Y-119646644D01*
X191574210Y-119637993D01*
X191560642Y-119634000D01*
X190772115Y-119634000D01*
X190756876Y-119638475D01*
X190755671Y-119639865D01*
X190754000Y-119647548D01*
X190754000Y-120440681D01*
X190245828Y-120440681D01*
X190246000Y-120440232D01*
X190246000Y-119652115D01*
X190241525Y-119636876D01*
X190240135Y-119635671D01*
X190232452Y-119634000D01*
X189443494Y-119634000D01*
X189429963Y-119637973D01*
X189428671Y-119646962D01*
X189035335Y-119646962D01*
X189035443Y-119646644D01*
X189034210Y-119637993D01*
X189020642Y-119634000D01*
X188232115Y-119634000D01*
X188216876Y-119638475D01*
X188215671Y-119639865D01*
X188214000Y-119647548D01*
X188214000Y-120440681D01*
X187705828Y-120440681D01*
X187706000Y-120440232D01*
X187706000Y-119652115D01*
X187701525Y-119636876D01*
X187700135Y-119635671D01*
X187692452Y-119634000D01*
X186903494Y-119634000D01*
X186889963Y-119637973D01*
X186888671Y-119646962D01*
X176335335Y-119646962D01*
X176335443Y-119646644D01*
X176334210Y-119637993D01*
X176320642Y-119634000D01*
X175532115Y-119634000D01*
X175516876Y-119638475D01*
X175515671Y-119639865D01*
X175514000Y-119647548D01*
X175514000Y-120440681D01*
X175005828Y-120440681D01*
X175006000Y-120440232D01*
X175006000Y-119652115D01*
X175001525Y-119636876D01*
X175000135Y-119635671D01*
X174992452Y-119634000D01*
X174203494Y-119634000D01*
X174189963Y-119637973D01*
X174188671Y-119646962D01*
X173795335Y-119646962D01*
X173795443Y-119646644D01*
X173794210Y-119637993D01*
X173780642Y-119634000D01*
X172992115Y-119634000D01*
X172976876Y-119638475D01*
X172975671Y-119639865D01*
X172974000Y-119647548D01*
X172974000Y-120440681D01*
X172465828Y-120440681D01*
X172466000Y-120440232D01*
X172466000Y-119652115D01*
X172461525Y-119636876D01*
X172460135Y-119635671D01*
X172452452Y-119634000D01*
X171663494Y-119634000D01*
X171649963Y-119637973D01*
X171648671Y-119646962D01*
X169164500Y-119646962D01*
X169164500Y-119122799D01*
X171647943Y-119122799D01*
X171654675Y-119126000D01*
X172447885Y-119126000D01*
X172463124Y-119121525D01*
X172464329Y-119120135D01*
X172466000Y-119112452D01*
X172466000Y-118321500D01*
X172462194Y-118308538D01*
X172447279Y-118306602D01*
X172438732Y-118308071D01*
X172427620Y-118311048D01*
X172248095Y-118377279D01*
X172237717Y-118382229D01*
X172073273Y-118480063D01*
X172063961Y-118486829D01*
X171920097Y-118612994D01*
X171912180Y-118621337D01*
X171793718Y-118771605D01*
X171787450Y-118781256D01*
X171698358Y-118950592D01*
X171693953Y-118961227D01*
X171648162Y-119108698D01*
X171647943Y-119122799D01*
X169164500Y-119122799D01*
X169164500Y-116810964D01*
X171611148Y-116810964D01*
X171624424Y-117013522D01*
X171625845Y-117019118D01*
X171625846Y-117019123D01*
X171657625Y-117144249D01*
X171674392Y-117210269D01*
X171676809Y-117215512D01*
X171754652Y-117384367D01*
X171759377Y-117394616D01*
X171762710Y-117399332D01*
X171862273Y-117540211D01*
X171876533Y-117560389D01*
X172021938Y-117702035D01*
X172190720Y-117814812D01*
X172196023Y-117817090D01*
X172196026Y-117817092D01*
X172371921Y-117892662D01*
X172377228Y-117894942D01*
X172426588Y-117906111D01*
X172569579Y-117938467D01*
X172569584Y-117938468D01*
X172575216Y-117939742D01*
X172580987Y-117939969D01*
X172580989Y-117939969D01*
X172640756Y-117942317D01*
X172778053Y-117947712D01*
X172878499Y-117933148D01*
X172973231Y-117919413D01*
X172973236Y-117919412D01*
X172978945Y-117918584D01*
X173015689Y-117906111D01*
X173086623Y-117903155D01*
X173145285Y-117936329D01*
X173449403Y-118240447D01*
X173483429Y-118302759D01*
X173478364Y-118373574D01*
X173435817Y-118430410D01*
X173369297Y-118455221D01*
X173299923Y-118440130D01*
X173293073Y-118436104D01*
X173228236Y-118395195D01*
X173217989Y-118389974D01*
X173040260Y-118319068D01*
X173029232Y-118315801D01*
X172991769Y-118308350D01*
X172978894Y-118309502D01*
X172974000Y-118324658D01*
X172974000Y-119107885D01*
X172978475Y-119123124D01*
X172979865Y-119124329D01*
X172987548Y-119126000D01*
X173777398Y-119126000D01*
X173790929Y-119122027D01*
X173792098Y-119113892D01*
X173756658Y-118988231D01*
X173752533Y-118977484D01*
X173667903Y-118805871D01*
X173661893Y-118796063D01*
X173603389Y-118717717D01*
X173578657Y-118651167D01*
X173593831Y-118581811D01*
X173644093Y-118531669D01*
X173713485Y-118516660D01*
X173759412Y-118530202D01*
X173759791Y-118530486D01*
X173800854Y-118545880D01*
X173810155Y-118549799D01*
X173849843Y-118568432D01*
X173858713Y-118569813D01*
X173864905Y-118571706D01*
X173872320Y-118573652D01*
X173878652Y-118575044D01*
X173887060Y-118578196D01*
X173930789Y-118581445D01*
X173940814Y-118582596D01*
X173953039Y-118584500D01*
X173967216Y-118584500D01*
X173976553Y-118584846D01*
X173983828Y-118585387D01*
X174022605Y-118588268D01*
X174031381Y-118586395D01*
X174040337Y-118585784D01*
X174040345Y-118585894D01*
X174053555Y-118584500D01*
X174223162Y-118584500D01*
X174291283Y-118604502D01*
X174337776Y-118658158D01*
X174347880Y-118728432D01*
X174329985Y-118776060D01*
X174330141Y-118776142D01*
X174329490Y-118777380D01*
X174328834Y-118779125D01*
X174327452Y-118781254D01*
X174238358Y-118950592D01*
X174233953Y-118961227D01*
X174188162Y-119108698D01*
X174187943Y-119122799D01*
X174194675Y-119126000D01*
X176317398Y-119126000D01*
X176330929Y-119122027D01*
X176332098Y-119113892D01*
X176296658Y-118988231D01*
X176292533Y-118977484D01*
X176207903Y-118805871D01*
X176201890Y-118796058D01*
X176194295Y-118785887D01*
X176169564Y-118719337D01*
X176184740Y-118649981D01*
X176235002Y-118599840D01*
X176295254Y-118584500D01*
X177732746Y-118584500D01*
X177743805Y-118585736D01*
X177743854Y-118585133D01*
X177752798Y-118585853D01*
X177761555Y-118587834D01*
X177811395Y-118584742D01*
X177819197Y-118584500D01*
X177834069Y-118584500D01*
X177843418Y-118583161D01*
X177853467Y-118582132D01*
X177888252Y-118579974D01*
X177888253Y-118579974D01*
X177897212Y-118579418D01*
X177905652Y-118576371D01*
X177912016Y-118575053D01*
X177919457Y-118573197D01*
X177925659Y-118571383D01*
X177934546Y-118570111D01*
X177942717Y-118566396D01*
X177942720Y-118566395D01*
X177974471Y-118551959D01*
X177983835Y-118548147D01*
X178016615Y-118536313D01*
X178016617Y-118536312D01*
X178025054Y-118533266D01*
X178032298Y-118527975D01*
X178038003Y-118524941D01*
X178044678Y-118521040D01*
X178050107Y-118517568D01*
X178058275Y-118513854D01*
X178065071Y-118507998D01*
X178065076Y-118507995D01*
X178091491Y-118485235D01*
X178099406Y-118478950D01*
X178105451Y-118474534D01*
X178105455Y-118474531D01*
X178109387Y-118471658D01*
X178119410Y-118461635D01*
X178126257Y-118455277D01*
X178154440Y-118430993D01*
X178161242Y-118425132D01*
X178166126Y-118417597D01*
X178172025Y-118410835D01*
X178172109Y-118410908D01*
X178180466Y-118400579D01*
X179299639Y-117281405D01*
X179361951Y-117247380D01*
X179388734Y-117244500D01*
X180155185Y-117244500D01*
X180201766Y-117253765D01*
X180210699Y-117259734D01*
X180222873Y-117262156D01*
X180222874Y-117262156D01*
X180277836Y-117273088D01*
X180284933Y-117274500D01*
X180709931Y-117274500D01*
X181135066Y-117274499D01*
X181170818Y-117267388D01*
X181197126Y-117262156D01*
X181197128Y-117262155D01*
X181209301Y-117259734D01*
X181219621Y-117252839D01*
X181219622Y-117252838D01*
X181283168Y-117210377D01*
X181293484Y-117203484D01*
X181349734Y-117119301D01*
X181364500Y-117045067D01*
X181364499Y-116494934D01*
X181364499Y-116494933D01*
X181855500Y-116494933D01*
X181855501Y-117045066D01*
X181870266Y-117119301D01*
X181877161Y-117129620D01*
X181877162Y-117129622D01*
X181886936Y-117144249D01*
X181926516Y-117203484D01*
X182010699Y-117259734D01*
X182084933Y-117274500D01*
X182509931Y-117274500D01*
X182935066Y-117274499D01*
X182970818Y-117267388D01*
X182997126Y-117262156D01*
X182997128Y-117262155D01*
X183009301Y-117259734D01*
X183018235Y-117253765D01*
X183064815Y-117244500D01*
X183831265Y-117244500D01*
X183899386Y-117264502D01*
X183920360Y-117281405D01*
X185036914Y-118397958D01*
X185043865Y-118406658D01*
X185044326Y-118406266D01*
X185050145Y-118413103D01*
X185054935Y-118420695D01*
X185061664Y-118426638D01*
X185061665Y-118426639D01*
X185092382Y-118453767D01*
X185098069Y-118459113D01*
X185108568Y-118469612D01*
X185112149Y-118472296D01*
X185112156Y-118472302D01*
X185116114Y-118475268D01*
X185123953Y-118481650D01*
X185156810Y-118510668D01*
X185164933Y-118514482D01*
X185170351Y-118518041D01*
X185176934Y-118521997D01*
X185182611Y-118525105D01*
X185189791Y-118530486D01*
X185198196Y-118533637D01*
X185198198Y-118533638D01*
X185205337Y-118536314D01*
X185230854Y-118545880D01*
X185240155Y-118549799D01*
X185279843Y-118568432D01*
X185288713Y-118569813D01*
X185294905Y-118571706D01*
X185302344Y-118573658D01*
X185308658Y-118575046D01*
X185317060Y-118578196D01*
X185326006Y-118578861D01*
X185326007Y-118578861D01*
X185340986Y-118579974D01*
X185360769Y-118581444D01*
X185360782Y-118581445D01*
X185370827Y-118582598D01*
X185375111Y-118583265D01*
X185378228Y-118583751D01*
X185378230Y-118583751D01*
X185383039Y-118584500D01*
X185397206Y-118584500D01*
X185406544Y-118584846D01*
X185452605Y-118588269D01*
X185461381Y-118586396D01*
X185470338Y-118585785D01*
X185470345Y-118585895D01*
X185483561Y-118584500D01*
X186923162Y-118584500D01*
X186991283Y-118604502D01*
X187037776Y-118658158D01*
X187047880Y-118728432D01*
X187029985Y-118776060D01*
X187030141Y-118776142D01*
X187029490Y-118777380D01*
X187028834Y-118779125D01*
X187027452Y-118781254D01*
X186938358Y-118950592D01*
X186933953Y-118961227D01*
X186888162Y-119108698D01*
X186887943Y-119122799D01*
X186894675Y-119126000D01*
X189017398Y-119126000D01*
X189030929Y-119122027D01*
X189032098Y-119113892D01*
X188996658Y-118988231D01*
X188992533Y-118977484D01*
X188907903Y-118805871D01*
X188901890Y-118796058D01*
X188894295Y-118785887D01*
X188869564Y-118719337D01*
X188884740Y-118649981D01*
X188935002Y-118599840D01*
X188995254Y-118584500D01*
X189162746Y-118584500D01*
X189173805Y-118585736D01*
X189173854Y-118585133D01*
X189182798Y-118585853D01*
X189191555Y-118587834D01*
X189241395Y-118584742D01*
X189249197Y-118584500D01*
X189264069Y-118584500D01*
X189273418Y-118583161D01*
X189283467Y-118582132D01*
X189318252Y-118579974D01*
X189318253Y-118579974D01*
X189327212Y-118579418D01*
X189335652Y-118576371D01*
X189342016Y-118575053D01*
X189349457Y-118573197D01*
X189355659Y-118571383D01*
X189364546Y-118570111D01*
X189372717Y-118566396D01*
X189372720Y-118566395D01*
X189404471Y-118551959D01*
X189413835Y-118548147D01*
X189446613Y-118536314D01*
X189446617Y-118536312D01*
X189455054Y-118533266D01*
X189458218Y-118530955D01*
X189525264Y-118517149D01*
X189591504Y-118542698D01*
X189633416Y-118600003D01*
X189637693Y-118670870D01*
X189613827Y-118720726D01*
X189573722Y-118771598D01*
X189567450Y-118781256D01*
X189478358Y-118950592D01*
X189473953Y-118961227D01*
X189428162Y-119108698D01*
X189427943Y-119122799D01*
X189434675Y-119126000D01*
X190227885Y-119126000D01*
X190243124Y-119121525D01*
X190244329Y-119120135D01*
X190246000Y-119112452D01*
X190246000Y-119107885D01*
X190754000Y-119107885D01*
X190758475Y-119123124D01*
X190759865Y-119124329D01*
X190767548Y-119126000D01*
X191557398Y-119126000D01*
X191570929Y-119122027D01*
X191572098Y-119113892D01*
X191536658Y-118988231D01*
X191532533Y-118977484D01*
X191447903Y-118805871D01*
X191441893Y-118796063D01*
X191327400Y-118642739D01*
X191319710Y-118634199D01*
X191179192Y-118504304D01*
X191170067Y-118497303D01*
X191008236Y-118395195D01*
X190997989Y-118389974D01*
X190820260Y-118319068D01*
X190809232Y-118315801D01*
X190771769Y-118308350D01*
X190758894Y-118309502D01*
X190754000Y-118324658D01*
X190754000Y-119107885D01*
X190246000Y-119107885D01*
X190246000Y-118321500D01*
X190242194Y-118308538D01*
X190227279Y-118306602D01*
X190218732Y-118308071D01*
X190207620Y-118311048D01*
X190028095Y-118377279D01*
X190017717Y-118382229D01*
X189923896Y-118438047D01*
X189855126Y-118455687D01*
X189787736Y-118433347D01*
X189743122Y-118378119D01*
X189735448Y-118307538D01*
X189770378Y-118240667D01*
X190074559Y-117936486D01*
X190136871Y-117902460D01*
X190191460Y-117902688D01*
X190253509Y-117916728D01*
X190349580Y-117938467D01*
X190349583Y-117938467D01*
X190355216Y-117939742D01*
X190360987Y-117939969D01*
X190360989Y-117939969D01*
X190420756Y-117942317D01*
X190558053Y-117947712D01*
X190658499Y-117933148D01*
X190753231Y-117919413D01*
X190753236Y-117919412D01*
X190758945Y-117918584D01*
X190764409Y-117916729D01*
X190764414Y-117916728D01*
X190945693Y-117855192D01*
X190945698Y-117855190D01*
X190951165Y-117853334D01*
X191128276Y-117754147D01*
X191190934Y-117702035D01*
X191279913Y-117628031D01*
X191284345Y-117624345D01*
X191363148Y-117529595D01*
X191410453Y-117472718D01*
X191410455Y-117472715D01*
X191414147Y-117468276D01*
X191513334Y-117291165D01*
X191515190Y-117285698D01*
X191515192Y-117285693D01*
X191576728Y-117104414D01*
X191576729Y-117104409D01*
X191578584Y-117098945D01*
X191579412Y-117093236D01*
X191579413Y-117093231D01*
X191607179Y-116901727D01*
X191607712Y-116898053D01*
X191609232Y-116840000D01*
X191590658Y-116637859D01*
X191589090Y-116632299D01*
X191537125Y-116448046D01*
X191537124Y-116448044D01*
X191535557Y-116442487D01*
X191530817Y-116432874D01*
X191448331Y-116265609D01*
X191445776Y-116260428D01*
X191442320Y-116255799D01*
X191398623Y-116197283D01*
X191324320Y-116097779D01*
X191175258Y-115959987D01*
X191170375Y-115956906D01*
X191170371Y-115956903D01*
X191008464Y-115854748D01*
X191003581Y-115851667D01*
X190815039Y-115776446D01*
X190809379Y-115775320D01*
X190809375Y-115775319D01*
X190621613Y-115737971D01*
X190621610Y-115737971D01*
X190615946Y-115736844D01*
X190610171Y-115736768D01*
X190610167Y-115736768D01*
X190508793Y-115735441D01*
X190412971Y-115734187D01*
X190407274Y-115735166D01*
X190407273Y-115735166D01*
X190218607Y-115767585D01*
X190212910Y-115768564D01*
X190022463Y-115838824D01*
X189928875Y-115894503D01*
X189925333Y-115896610D01*
X189856562Y-115914250D01*
X189789172Y-115891909D01*
X189744559Y-115836681D01*
X189736886Y-115766101D01*
X189771815Y-115699230D01*
X190074559Y-115396486D01*
X190136871Y-115362460D01*
X190191460Y-115362688D01*
X190253509Y-115376728D01*
X190349580Y-115398467D01*
X190349583Y-115398467D01*
X190355216Y-115399742D01*
X190360987Y-115399969D01*
X190360989Y-115399969D01*
X190420756Y-115402317D01*
X190558053Y-115407712D01*
X190658499Y-115393148D01*
X190753231Y-115379413D01*
X190753236Y-115379412D01*
X190758945Y-115378584D01*
X190764409Y-115376729D01*
X190764414Y-115376728D01*
X190945693Y-115315192D01*
X190945698Y-115315190D01*
X190951165Y-115313334D01*
X191128276Y-115214147D01*
X191190934Y-115162035D01*
X191279913Y-115088031D01*
X191284345Y-115084345D01*
X191354319Y-115000211D01*
X191410453Y-114932718D01*
X191410455Y-114932715D01*
X191414147Y-114928276D01*
X191513334Y-114751165D01*
X191515190Y-114745698D01*
X191515192Y-114745693D01*
X191576728Y-114564414D01*
X191576729Y-114564409D01*
X191578584Y-114558945D01*
X191579412Y-114553236D01*
X191579413Y-114553231D01*
X191607179Y-114361727D01*
X191607712Y-114358053D01*
X191609232Y-114300000D01*
X191590658Y-114097859D01*
X191589090Y-114092299D01*
X191537125Y-113908046D01*
X191537124Y-113908044D01*
X191535557Y-113902487D01*
X191532112Y-113895500D01*
X191448331Y-113725609D01*
X191448330Y-113725608D01*
X191445776Y-113720428D01*
X191442320Y-113715799D01*
X191386693Y-113641307D01*
X191324320Y-113557779D01*
X191175258Y-113419987D01*
X191170375Y-113416906D01*
X191170371Y-113416903D01*
X191008464Y-113314748D01*
X191003581Y-113311667D01*
X190815039Y-113236446D01*
X190809379Y-113235320D01*
X190809375Y-113235319D01*
X190621613Y-113197971D01*
X190621610Y-113197971D01*
X190615946Y-113196844D01*
X190610171Y-113196768D01*
X190610167Y-113196768D01*
X190508793Y-113195441D01*
X190412971Y-113194187D01*
X190407274Y-113195166D01*
X190407273Y-113195166D01*
X190218607Y-113227585D01*
X190212910Y-113228564D01*
X190022463Y-113298824D01*
X189928875Y-113354503D01*
X189925333Y-113356610D01*
X189856562Y-113374250D01*
X189789172Y-113351909D01*
X189744559Y-113296681D01*
X189736886Y-113226101D01*
X189771815Y-113159230D01*
X190074559Y-112856486D01*
X190136871Y-112822460D01*
X190191460Y-112822688D01*
X190253509Y-112836728D01*
X190349580Y-112858467D01*
X190349583Y-112858467D01*
X190355216Y-112859742D01*
X190360987Y-112859969D01*
X190360989Y-112859969D01*
X190420756Y-112862317D01*
X190558053Y-112867712D01*
X190658499Y-112853148D01*
X190753231Y-112839413D01*
X190753236Y-112839412D01*
X190758945Y-112838584D01*
X190764409Y-112836729D01*
X190764414Y-112836728D01*
X190945693Y-112775192D01*
X190945698Y-112775190D01*
X190951165Y-112773334D01*
X191128276Y-112674147D01*
X191190934Y-112622035D01*
X191279913Y-112548031D01*
X191284345Y-112544345D01*
X191363148Y-112449595D01*
X191410453Y-112392718D01*
X191410455Y-112392715D01*
X191414147Y-112388276D01*
X191513334Y-112211165D01*
X191515190Y-112205698D01*
X191515192Y-112205693D01*
X191576728Y-112024414D01*
X191576729Y-112024409D01*
X191578584Y-112018945D01*
X191579412Y-112013236D01*
X191579413Y-112013231D01*
X191607179Y-111821727D01*
X191607712Y-111818053D01*
X191609232Y-111760000D01*
X191590658Y-111557859D01*
X191589090Y-111552299D01*
X191537125Y-111368046D01*
X191537124Y-111368044D01*
X191535557Y-111362487D01*
X191530817Y-111352874D01*
X191448331Y-111185609D01*
X191445776Y-111180428D01*
X191442320Y-111175799D01*
X191398623Y-111117283D01*
X191324320Y-111017779D01*
X191175258Y-110879987D01*
X191170375Y-110876906D01*
X191170371Y-110876903D01*
X191008464Y-110774748D01*
X191003581Y-110771667D01*
X190815039Y-110696446D01*
X190809379Y-110695320D01*
X190809375Y-110695319D01*
X190621613Y-110657971D01*
X190621610Y-110657971D01*
X190615946Y-110656844D01*
X190610171Y-110656768D01*
X190610167Y-110656768D01*
X190508793Y-110655441D01*
X190412971Y-110654187D01*
X190407274Y-110655166D01*
X190407273Y-110655166D01*
X190218607Y-110687585D01*
X190212910Y-110688564D01*
X190022463Y-110758824D01*
X189928875Y-110814503D01*
X189925333Y-110816610D01*
X189856562Y-110834250D01*
X189789172Y-110811909D01*
X189744559Y-110756681D01*
X189736886Y-110686101D01*
X189771815Y-110619230D01*
X190074559Y-110316486D01*
X190136871Y-110282460D01*
X190191460Y-110282688D01*
X190253509Y-110296728D01*
X190349580Y-110318467D01*
X190349583Y-110318467D01*
X190355216Y-110319742D01*
X190360987Y-110319969D01*
X190360989Y-110319969D01*
X190420756Y-110322317D01*
X190558053Y-110327712D01*
X190658499Y-110313148D01*
X190753231Y-110299413D01*
X190753236Y-110299412D01*
X190758945Y-110298584D01*
X190764409Y-110296729D01*
X190764414Y-110296728D01*
X190945693Y-110235192D01*
X190945698Y-110235190D01*
X190951165Y-110233334D01*
X191128276Y-110134147D01*
X191190934Y-110082035D01*
X191279913Y-110008031D01*
X191284345Y-110004345D01*
X191363148Y-109909595D01*
X191410453Y-109852718D01*
X191410455Y-109852715D01*
X191414147Y-109848276D01*
X191513334Y-109671165D01*
X191515190Y-109665698D01*
X191515192Y-109665693D01*
X191576728Y-109484414D01*
X191576729Y-109484409D01*
X191578584Y-109478945D01*
X191579412Y-109473236D01*
X191579413Y-109473231D01*
X191607179Y-109281727D01*
X191607712Y-109278053D01*
X191609232Y-109220000D01*
X191590658Y-109017859D01*
X191589090Y-109012299D01*
X191537125Y-108828046D01*
X191537124Y-108828044D01*
X191535557Y-108822487D01*
X191532112Y-108815500D01*
X191448331Y-108645609D01*
X191445776Y-108640428D01*
X191324320Y-108477779D01*
X191175258Y-108339987D01*
X191170375Y-108336906D01*
X191170371Y-108336903D01*
X191008464Y-108234748D01*
X191003581Y-108231667D01*
X190815039Y-108156446D01*
X190809379Y-108155320D01*
X190809375Y-108155319D01*
X190621613Y-108117971D01*
X190621610Y-108117971D01*
X190615946Y-108116844D01*
X190610171Y-108116768D01*
X190610167Y-108116768D01*
X190508793Y-108115441D01*
X190412971Y-108114187D01*
X190407274Y-108115166D01*
X190407273Y-108115166D01*
X190319397Y-108130266D01*
X190212910Y-108148564D01*
X190022463Y-108218824D01*
X189848010Y-108322612D01*
X189843670Y-108326418D01*
X189843666Y-108326421D01*
X189699733Y-108452648D01*
X189695392Y-108456455D01*
X189569720Y-108615869D01*
X189567031Y-108620980D01*
X189567029Y-108620983D01*
X189519128Y-108712027D01*
X189475203Y-108795515D01*
X189415007Y-108989378D01*
X189391148Y-109190964D01*
X189404424Y-109393522D01*
X189405847Y-109399123D01*
X189405847Y-109399126D01*
X189437624Y-109524249D01*
X189435006Y-109595197D01*
X189404596Y-109644359D01*
X189279595Y-109769360D01*
X189217283Y-109803386D01*
X189146468Y-109798321D01*
X189089632Y-109755774D01*
X189064821Y-109689254D01*
X189064500Y-109680265D01*
X189064499Y-108351123D01*
X189064499Y-108344934D01*
X189049734Y-108270699D01*
X189023654Y-108231667D01*
X189000377Y-108196832D01*
X188993484Y-108186516D01*
X188909301Y-108130266D01*
X188835067Y-108115500D01*
X187960142Y-108115500D01*
X187084934Y-108115501D01*
X187049182Y-108122612D01*
X187022874Y-108127844D01*
X187022872Y-108127845D01*
X187010699Y-108130266D01*
X187000379Y-108137161D01*
X187000378Y-108137162D01*
X186939985Y-108177516D01*
X186926516Y-108186516D01*
X186870266Y-108270699D01*
X186855500Y-108344933D01*
X186855500Y-108689500D01*
X186835498Y-108757621D01*
X186781842Y-108804114D01*
X186729500Y-108815500D01*
X183064815Y-108815500D01*
X183018234Y-108806235D01*
X183009301Y-108800266D01*
X182997127Y-108797844D01*
X182997126Y-108797844D01*
X182941135Y-108786707D01*
X182935067Y-108785500D01*
X182510069Y-108785500D01*
X182084934Y-108785501D01*
X182049182Y-108792612D01*
X182022874Y-108797844D01*
X182022872Y-108797845D01*
X182010699Y-108800266D01*
X182000379Y-108807161D01*
X182000378Y-108807162D01*
X181977443Y-108822487D01*
X181926516Y-108856516D01*
X181870266Y-108940699D01*
X181855500Y-109014933D01*
X181855501Y-109565066D01*
X181870266Y-109639301D01*
X181877162Y-109649621D01*
X181881911Y-109661087D01*
X181879432Y-109662114D01*
X181895288Y-109712745D01*
X181879133Y-109767765D01*
X181881910Y-109768915D01*
X181877161Y-109780379D01*
X181870266Y-109790699D01*
X181855500Y-109864933D01*
X181855501Y-110315066D01*
X181870266Y-110389301D01*
X181877161Y-110399621D01*
X181877162Y-110399622D01*
X181890777Y-110419998D01*
X181911992Y-110487751D01*
X181890777Y-110560002D01*
X181877161Y-110580379D01*
X181877160Y-110580382D01*
X181870266Y-110590699D01*
X181855500Y-110664933D01*
X181855501Y-111115066D01*
X181862612Y-111150818D01*
X181867581Y-111175801D01*
X181870266Y-111189301D01*
X181877162Y-111199621D01*
X181881911Y-111211087D01*
X181879432Y-111212114D01*
X181895288Y-111262745D01*
X181879133Y-111317765D01*
X181881910Y-111318915D01*
X181877161Y-111330379D01*
X181870266Y-111340699D01*
X181855500Y-111414933D01*
X181855501Y-111965066D01*
X181870266Y-112039301D01*
X181877161Y-112049620D01*
X181877162Y-112049622D01*
X181886936Y-112064249D01*
X181926516Y-112123484D01*
X182010699Y-112179734D01*
X182084933Y-112194500D01*
X182509931Y-112194500D01*
X182935066Y-112194499D01*
X182970818Y-112187388D01*
X182997126Y-112182156D01*
X182997128Y-112182155D01*
X183009301Y-112179734D01*
X183018235Y-112173765D01*
X183064815Y-112164500D01*
X183915015Y-112164500D01*
X183983136Y-112184502D01*
X184004110Y-112201405D01*
X185120664Y-113317958D01*
X185127615Y-113326658D01*
X185128076Y-113326266D01*
X185133895Y-113333103D01*
X185138685Y-113340695D01*
X185145414Y-113346638D01*
X185145415Y-113346639D01*
X185176132Y-113373767D01*
X185181819Y-113379113D01*
X185192318Y-113389612D01*
X185195899Y-113392296D01*
X185195906Y-113392302D01*
X185199864Y-113395268D01*
X185207703Y-113401650D01*
X185240560Y-113430668D01*
X185248683Y-113434482D01*
X185254101Y-113438041D01*
X185260684Y-113441997D01*
X185266361Y-113445105D01*
X185273541Y-113450486D01*
X185281946Y-113453637D01*
X185281948Y-113453638D01*
X185303657Y-113461776D01*
X185314604Y-113465880D01*
X185323905Y-113469799D01*
X185363593Y-113488432D01*
X185372463Y-113489813D01*
X185378655Y-113491706D01*
X185386094Y-113493658D01*
X185392408Y-113495046D01*
X185400810Y-113498196D01*
X185409756Y-113498861D01*
X185409757Y-113498861D01*
X185424736Y-113499974D01*
X185444519Y-113501444D01*
X185444532Y-113501445D01*
X185454577Y-113502598D01*
X185458861Y-113503265D01*
X185461978Y-113503751D01*
X185461980Y-113503751D01*
X185466789Y-113504500D01*
X185480956Y-113504500D01*
X185490294Y-113504846D01*
X185536355Y-113508269D01*
X185545131Y-113506396D01*
X185554088Y-113505785D01*
X185554095Y-113505895D01*
X185567311Y-113504500D01*
X186922564Y-113504500D01*
X186990685Y-113524502D01*
X187037178Y-113578158D01*
X187047282Y-113648432D01*
X187029502Y-113695754D01*
X187029720Y-113695869D01*
X186961661Y-113825228D01*
X186960114Y-113828168D01*
X186910695Y-113879140D01*
X186848606Y-113895500D01*
X183064815Y-113895500D01*
X183018234Y-113886235D01*
X183009301Y-113880266D01*
X182997127Y-113877844D01*
X182997126Y-113877844D01*
X182941135Y-113866707D01*
X182935067Y-113865500D01*
X182510069Y-113865500D01*
X182084934Y-113865501D01*
X182049182Y-113872612D01*
X182022874Y-113877844D01*
X182022872Y-113877845D01*
X182010699Y-113880266D01*
X182000379Y-113887161D01*
X182000378Y-113887162D01*
X181977443Y-113902487D01*
X181926516Y-113936516D01*
X181870266Y-114020699D01*
X181855500Y-114094933D01*
X181855501Y-114645066D01*
X181870266Y-114719301D01*
X181877162Y-114729621D01*
X181881911Y-114741087D01*
X181879432Y-114742114D01*
X181895288Y-114792745D01*
X181879133Y-114847765D01*
X181881910Y-114848915D01*
X181877161Y-114860379D01*
X181870266Y-114870699D01*
X181855500Y-114944933D01*
X181855501Y-115395066D01*
X181870266Y-115469301D01*
X181877161Y-115479621D01*
X181877162Y-115479622D01*
X181890777Y-115499998D01*
X181911992Y-115567751D01*
X181890777Y-115640002D01*
X181877161Y-115660379D01*
X181877160Y-115660382D01*
X181870266Y-115670699D01*
X181855500Y-115744933D01*
X181855501Y-116195066D01*
X181862612Y-116230818D01*
X181867581Y-116255801D01*
X181870266Y-116269301D01*
X181877162Y-116279621D01*
X181881911Y-116291087D01*
X181879432Y-116292114D01*
X181895288Y-116342745D01*
X181879133Y-116397765D01*
X181881910Y-116398915D01*
X181877161Y-116410379D01*
X181870266Y-116420699D01*
X181855500Y-116494933D01*
X181364499Y-116494933D01*
X181354068Y-116442487D01*
X181352156Y-116432874D01*
X181352155Y-116432872D01*
X181349734Y-116420699D01*
X181342838Y-116410379D01*
X181338089Y-116398913D01*
X181340568Y-116397886D01*
X181324712Y-116347255D01*
X181340867Y-116292235D01*
X181338090Y-116291085D01*
X181342839Y-116279621D01*
X181349734Y-116269301D01*
X181364500Y-116195067D01*
X181364499Y-115744934D01*
X181349734Y-115670699D01*
X181329223Y-115640002D01*
X181308008Y-115572249D01*
X181329223Y-115499998D01*
X181342839Y-115479621D01*
X181342840Y-115479618D01*
X181349734Y-115469301D01*
X181364500Y-115395067D01*
X181364499Y-114944934D01*
X181349734Y-114870699D01*
X181342838Y-114860379D01*
X181338089Y-114848913D01*
X181340568Y-114847886D01*
X181324712Y-114797255D01*
X181340867Y-114742235D01*
X181338090Y-114741085D01*
X181342839Y-114729621D01*
X181349734Y-114719301D01*
X181364500Y-114645067D01*
X181364499Y-114094934D01*
X181349734Y-114020699D01*
X181293484Y-113936516D01*
X181209301Y-113880266D01*
X181135067Y-113865500D01*
X180710069Y-113865500D01*
X180284934Y-113865501D01*
X180249182Y-113872612D01*
X180222874Y-113877844D01*
X180222872Y-113877845D01*
X180210699Y-113880266D01*
X180201765Y-113886235D01*
X180155185Y-113895500D01*
X176370463Y-113895500D01*
X176302342Y-113875498D01*
X176257457Y-113825228D01*
X176208331Y-113725608D01*
X176208328Y-113725604D01*
X176205776Y-113720428D01*
X176202321Y-113715801D01*
X176202320Y-113715799D01*
X176194920Y-113705890D01*
X176170188Y-113639340D01*
X176185361Y-113569984D01*
X176235622Y-113519841D01*
X176295877Y-113504500D01*
X177882746Y-113504500D01*
X177893805Y-113505736D01*
X177893854Y-113505133D01*
X177902798Y-113505853D01*
X177911555Y-113507834D01*
X177961395Y-113504742D01*
X177969197Y-113504500D01*
X177984069Y-113504500D01*
X177993418Y-113503161D01*
X178003467Y-113502132D01*
X178038252Y-113499974D01*
X178038253Y-113499974D01*
X178047212Y-113499418D01*
X178055652Y-113496371D01*
X178062016Y-113495053D01*
X178069457Y-113493197D01*
X178075659Y-113491383D01*
X178084546Y-113490111D01*
X178092717Y-113486396D01*
X178092720Y-113486395D01*
X178124471Y-113471959D01*
X178133835Y-113468147D01*
X178166615Y-113456313D01*
X178166617Y-113456312D01*
X178175054Y-113453266D01*
X178182298Y-113447975D01*
X178188003Y-113444941D01*
X178194678Y-113441040D01*
X178200107Y-113437568D01*
X178208275Y-113433854D01*
X178215071Y-113427998D01*
X178215076Y-113427995D01*
X178241491Y-113405235D01*
X178249406Y-113398950D01*
X178255451Y-113394534D01*
X178255455Y-113394531D01*
X178259387Y-113391658D01*
X178269410Y-113381635D01*
X178276257Y-113375277D01*
X178304440Y-113350993D01*
X178311242Y-113345132D01*
X178316126Y-113337597D01*
X178322025Y-113330835D01*
X178322109Y-113330908D01*
X178330466Y-113320579D01*
X179449639Y-112201405D01*
X179511951Y-112167380D01*
X179538734Y-112164500D01*
X180155185Y-112164500D01*
X180201766Y-112173765D01*
X180210699Y-112179734D01*
X180222873Y-112182156D01*
X180222874Y-112182156D01*
X180277836Y-112193088D01*
X180284933Y-112194500D01*
X180709931Y-112194500D01*
X181135066Y-112194499D01*
X181170818Y-112187388D01*
X181197126Y-112182156D01*
X181197128Y-112182155D01*
X181209301Y-112179734D01*
X181219621Y-112172839D01*
X181219622Y-112172838D01*
X181283168Y-112130377D01*
X181293484Y-112123484D01*
X181349734Y-112039301D01*
X181364500Y-111965067D01*
X181364499Y-111414934D01*
X181354068Y-111362487D01*
X181352156Y-111352874D01*
X181352155Y-111352872D01*
X181349734Y-111340699D01*
X181342838Y-111330379D01*
X181338089Y-111318913D01*
X181340568Y-111317886D01*
X181324712Y-111267255D01*
X181340867Y-111212235D01*
X181338090Y-111211085D01*
X181342839Y-111199621D01*
X181349734Y-111189301D01*
X181364500Y-111115067D01*
X181364499Y-110664934D01*
X181349734Y-110590699D01*
X181329223Y-110560002D01*
X181308008Y-110492249D01*
X181329223Y-110419998D01*
X181342839Y-110399621D01*
X181342840Y-110399618D01*
X181349734Y-110389301D01*
X181364500Y-110315067D01*
X181364499Y-109864934D01*
X181355661Y-109820500D01*
X181352156Y-109802874D01*
X181352155Y-109802872D01*
X181349734Y-109790699D01*
X181342838Y-109780379D01*
X181338089Y-109768913D01*
X181340568Y-109767886D01*
X181324712Y-109717255D01*
X181340867Y-109662235D01*
X181338090Y-109661085D01*
X181342839Y-109649621D01*
X181349734Y-109639301D01*
X181364500Y-109565067D01*
X181364499Y-109014934D01*
X181349734Y-108940699D01*
X181293484Y-108856516D01*
X181209301Y-108800266D01*
X181135067Y-108785500D01*
X180859237Y-108785500D01*
X180805689Y-108773555D01*
X180788283Y-108765383D01*
X180788282Y-108765383D01*
X180780157Y-108761568D01*
X180771286Y-108760187D01*
X180765095Y-108758294D01*
X180757656Y-108756342D01*
X180751342Y-108754954D01*
X180742940Y-108751804D01*
X180733994Y-108751139D01*
X180733993Y-108751139D01*
X180699218Y-108748555D01*
X180689173Y-108747402D01*
X180684889Y-108746735D01*
X180681772Y-108746249D01*
X180681770Y-108746249D01*
X180676961Y-108745500D01*
X180662794Y-108745500D01*
X180653456Y-108745154D01*
X180607395Y-108741731D01*
X180598619Y-108743604D01*
X180589662Y-108744215D01*
X180589655Y-108744105D01*
X180576439Y-108745500D01*
X176490499Y-108745500D01*
X176422378Y-108725498D01*
X176375885Y-108671842D01*
X176364499Y-108619500D01*
X176364499Y-108344934D01*
X176349734Y-108270699D01*
X176323654Y-108231667D01*
X176300377Y-108196832D01*
X176293484Y-108186516D01*
X176209301Y-108130266D01*
X176135067Y-108115500D01*
X175260142Y-108115500D01*
X174384934Y-108115501D01*
X174349182Y-108122612D01*
X174322874Y-108127844D01*
X174322872Y-108127845D01*
X174310699Y-108130266D01*
X174300379Y-108137161D01*
X174300378Y-108137162D01*
X174239985Y-108177516D01*
X174226516Y-108186516D01*
X174170266Y-108270699D01*
X174155500Y-108344933D01*
X174155501Y-109023613D01*
X174155501Y-109680267D01*
X174135499Y-109748388D01*
X174081843Y-109794881D01*
X174011569Y-109804985D01*
X173946989Y-109775492D01*
X173940406Y-109769362D01*
X173816329Y-109645285D01*
X173782303Y-109582973D01*
X173786111Y-109515688D01*
X173796729Y-109484410D01*
X173796729Y-109484409D01*
X173798584Y-109478945D01*
X173799412Y-109473236D01*
X173799413Y-109473231D01*
X173827179Y-109281727D01*
X173827712Y-109278053D01*
X173829232Y-109220000D01*
X173810658Y-109017859D01*
X173809090Y-109012299D01*
X173757125Y-108828046D01*
X173757124Y-108828044D01*
X173755557Y-108822487D01*
X173752112Y-108815500D01*
X173668331Y-108645609D01*
X173665776Y-108640428D01*
X173544320Y-108477779D01*
X173395258Y-108339987D01*
X173390375Y-108336906D01*
X173390371Y-108336903D01*
X173228464Y-108234748D01*
X173223581Y-108231667D01*
X173035039Y-108156446D01*
X173029379Y-108155320D01*
X173029375Y-108155319D01*
X172841613Y-108117971D01*
X172841610Y-108117971D01*
X172835946Y-108116844D01*
X172830171Y-108116768D01*
X172830167Y-108116768D01*
X172728793Y-108115441D01*
X172632971Y-108114187D01*
X172627274Y-108115166D01*
X172627273Y-108115166D01*
X172539397Y-108130266D01*
X172432910Y-108148564D01*
X172242463Y-108218824D01*
X172068010Y-108322612D01*
X172063670Y-108326418D01*
X172063666Y-108326421D01*
X171919733Y-108452648D01*
X171915392Y-108456455D01*
X171789720Y-108615869D01*
X171787031Y-108620980D01*
X171787029Y-108620983D01*
X171739128Y-108712027D01*
X171695203Y-108795515D01*
X171635007Y-108989378D01*
X171611148Y-109190964D01*
X171624424Y-109393522D01*
X171625845Y-109399118D01*
X171625846Y-109399123D01*
X171669533Y-109571137D01*
X171674392Y-109590269D01*
X171676809Y-109595512D01*
X171714010Y-109676208D01*
X171759377Y-109774616D01*
X171876533Y-109940389D01*
X172021938Y-110082035D01*
X172190720Y-110194812D01*
X172196023Y-110197090D01*
X172196026Y-110197092D01*
X172371921Y-110272662D01*
X172377228Y-110274942D01*
X172426588Y-110286111D01*
X172569579Y-110318467D01*
X172569584Y-110318468D01*
X172575216Y-110319742D01*
X172580987Y-110319969D01*
X172580989Y-110319969D01*
X172640756Y-110322317D01*
X172778053Y-110327712D01*
X172878499Y-110313148D01*
X172973231Y-110299413D01*
X172973236Y-110299412D01*
X172978945Y-110298584D01*
X173015689Y-110286111D01*
X173086623Y-110283155D01*
X173145285Y-110316329D01*
X173447802Y-110618846D01*
X173481828Y-110681158D01*
X173476763Y-110751973D01*
X173434216Y-110808809D01*
X173367696Y-110833620D01*
X173298322Y-110818529D01*
X173291472Y-110814503D01*
X173228464Y-110774748D01*
X173223581Y-110771667D01*
X173035039Y-110696446D01*
X173029379Y-110695320D01*
X173029375Y-110695319D01*
X172841613Y-110657971D01*
X172841610Y-110657971D01*
X172835946Y-110656844D01*
X172830171Y-110656768D01*
X172830167Y-110656768D01*
X172728793Y-110655441D01*
X172632971Y-110654187D01*
X172627274Y-110655166D01*
X172627273Y-110655166D01*
X172438607Y-110687585D01*
X172432910Y-110688564D01*
X172242463Y-110758824D01*
X172068010Y-110862612D01*
X172063670Y-110866418D01*
X172063666Y-110866421D01*
X171933493Y-110980581D01*
X171915392Y-110996455D01*
X171789720Y-111155869D01*
X171787032Y-111160978D01*
X171787029Y-111160983D01*
X171774073Y-111185609D01*
X171695203Y-111335515D01*
X171635007Y-111529378D01*
X171611148Y-111730964D01*
X171624424Y-111933522D01*
X171625845Y-111939118D01*
X171625846Y-111939123D01*
X171657625Y-112064249D01*
X171674392Y-112130269D01*
X171676809Y-112135512D01*
X171754652Y-112304367D01*
X171759377Y-112314616D01*
X171762710Y-112319332D01*
X171862273Y-112460211D01*
X171876533Y-112480389D01*
X172021938Y-112622035D01*
X172190720Y-112734812D01*
X172196023Y-112737090D01*
X172196026Y-112737092D01*
X172371921Y-112812662D01*
X172377228Y-112814942D01*
X172426588Y-112826111D01*
X172569579Y-112858467D01*
X172569584Y-112858468D01*
X172575216Y-112859742D01*
X172580987Y-112859969D01*
X172580989Y-112859969D01*
X172640756Y-112862317D01*
X172778053Y-112867712D01*
X172878499Y-112853148D01*
X172973231Y-112839413D01*
X172973236Y-112839412D01*
X172978945Y-112838584D01*
X173015689Y-112826111D01*
X173086623Y-112823155D01*
X173145285Y-112856329D01*
X173447802Y-113158846D01*
X173481828Y-113221158D01*
X173476763Y-113291973D01*
X173434216Y-113348809D01*
X173367696Y-113373620D01*
X173298322Y-113358529D01*
X173291472Y-113354503D01*
X173228464Y-113314748D01*
X173223581Y-113311667D01*
X173035039Y-113236446D01*
X173029379Y-113235320D01*
X173029375Y-113235319D01*
X172841613Y-113197971D01*
X172841610Y-113197971D01*
X172835946Y-113196844D01*
X172830171Y-113196768D01*
X172830167Y-113196768D01*
X172728793Y-113195441D01*
X172632971Y-113194187D01*
X172627274Y-113195166D01*
X172627273Y-113195166D01*
X172438607Y-113227585D01*
X172432910Y-113228564D01*
X172242463Y-113298824D01*
X172068010Y-113402612D01*
X172063670Y-113406418D01*
X172063666Y-113406421D01*
X171933493Y-113520581D01*
X171915392Y-113536455D01*
X171789720Y-113695869D01*
X171787031Y-113700980D01*
X171787029Y-113700983D01*
X171774073Y-113725608D01*
X171695203Y-113875515D01*
X171635007Y-114069378D01*
X171611148Y-114270964D01*
X171624424Y-114473522D01*
X171625845Y-114479118D01*
X171625846Y-114479123D01*
X171669533Y-114651137D01*
X171674392Y-114670269D01*
X171676809Y-114675512D01*
X171714010Y-114756208D01*
X171759377Y-114854616D01*
X171762710Y-114859332D01*
X171862273Y-115000211D01*
X171876533Y-115020389D01*
X172021938Y-115162035D01*
X172190720Y-115274812D01*
X172196023Y-115277090D01*
X172196026Y-115277092D01*
X172371921Y-115352662D01*
X172377228Y-115354942D01*
X172426588Y-115366111D01*
X172569579Y-115398467D01*
X172569584Y-115398468D01*
X172575216Y-115399742D01*
X172580987Y-115399969D01*
X172580989Y-115399969D01*
X172640756Y-115402317D01*
X172778053Y-115407712D01*
X172878499Y-115393148D01*
X172973231Y-115379413D01*
X172973236Y-115379412D01*
X172978945Y-115378584D01*
X173015689Y-115366111D01*
X173086623Y-115363155D01*
X173145285Y-115396329D01*
X173447802Y-115698846D01*
X173481828Y-115761158D01*
X173476763Y-115831973D01*
X173434216Y-115888809D01*
X173367696Y-115913620D01*
X173298322Y-115898529D01*
X173291472Y-115894503D01*
X173228464Y-115854748D01*
X173223581Y-115851667D01*
X173035039Y-115776446D01*
X173029379Y-115775320D01*
X173029375Y-115775319D01*
X172841613Y-115737971D01*
X172841610Y-115737971D01*
X172835946Y-115736844D01*
X172830171Y-115736768D01*
X172830167Y-115736768D01*
X172728793Y-115735441D01*
X172632971Y-115734187D01*
X172627274Y-115735166D01*
X172627273Y-115735166D01*
X172438607Y-115767585D01*
X172432910Y-115768564D01*
X172242463Y-115838824D01*
X172068010Y-115942612D01*
X172063670Y-115946418D01*
X172063666Y-115946421D01*
X171933493Y-116060581D01*
X171915392Y-116076455D01*
X171789720Y-116235869D01*
X171787032Y-116240978D01*
X171787029Y-116240983D01*
X171774073Y-116265609D01*
X171695203Y-116415515D01*
X171635007Y-116609378D01*
X171611148Y-116810964D01*
X169164500Y-116810964D01*
X169164500Y-105790500D01*
X169184502Y-105722379D01*
X169238158Y-105675886D01*
X169290500Y-105664500D01*
X200279500Y-105664500D01*
X200347621Y-105684502D01*
G37*
G04 #@! TD.AperFunction*
M02*
