%TF.GenerationSoftware,KiCad,Pcbnew,(6.0.9)*%
%TF.CreationDate,2022-11-21T19:08:51+01:00*%
%TF.ProjectId,PMOD series resistor board,504d4f44-2073-4657-9269-657320726573,V1.0*%
%TF.SameCoordinates,Original*%
%TF.FileFunction,Drillmap*%
%TF.FilePolarity,Positive*%
%FSLAX45Y45*%
G04 Gerber Fmt 4.5, Leading zero omitted, Abs format (unit mm)*
G04 Created by KiCad (PCBNEW (6.0.9)) date 2022-11-21 19:08:51*
%MOMM*%
%LPD*%
G01*
G04 APERTURE LIST*
%ADD10C,0.100000*%
%ADD11C,0.200000*%
G04 APERTURE END LIST*
D10*
X16891000Y-10541000D02*
X16891000Y-14859000D01*
X20066000Y-10541000D02*
X16891000Y-10541000D01*
X20066000Y-14859000D02*
X20066000Y-10541000D01*
X16891000Y-14859000D02*
X20066000Y-14859000D01*
D11*
X17143619Y-15174476D02*
X17143619Y-14974476D01*
X17191238Y-14974476D01*
X17219810Y-14984000D01*
X17238857Y-15003048D01*
X17248381Y-15022095D01*
X17257905Y-15060190D01*
X17257905Y-15088762D01*
X17248381Y-15126857D01*
X17238857Y-15145905D01*
X17219810Y-15164952D01*
X17191238Y-15174476D01*
X17143619Y-15174476D01*
X17343619Y-15174476D02*
X17343619Y-15041143D01*
X17343619Y-15079238D02*
X17353143Y-15060190D01*
X17362667Y-15050667D01*
X17381714Y-15041143D01*
X17400762Y-15041143D01*
X17467429Y-15174476D02*
X17467429Y-15041143D01*
X17467429Y-14974476D02*
X17457905Y-14984000D01*
X17467429Y-14993524D01*
X17476952Y-14984000D01*
X17467429Y-14974476D01*
X17467429Y-14993524D01*
X17591238Y-15174476D02*
X17572190Y-15164952D01*
X17562667Y-15145905D01*
X17562667Y-14974476D01*
X17696000Y-15174476D02*
X17676952Y-15164952D01*
X17667429Y-15145905D01*
X17667429Y-14974476D01*
X17924571Y-15174476D02*
X17924571Y-14974476D01*
X17991238Y-15117333D01*
X18057905Y-14974476D01*
X18057905Y-15174476D01*
X18238857Y-15174476D02*
X18238857Y-15069714D01*
X18229333Y-15050667D01*
X18210286Y-15041143D01*
X18172190Y-15041143D01*
X18153143Y-15050667D01*
X18238857Y-15164952D02*
X18219810Y-15174476D01*
X18172190Y-15174476D01*
X18153143Y-15164952D01*
X18143619Y-15145905D01*
X18143619Y-15126857D01*
X18153143Y-15107809D01*
X18172190Y-15098286D01*
X18219810Y-15098286D01*
X18238857Y-15088762D01*
X18334095Y-15041143D02*
X18334095Y-15241143D01*
X18334095Y-15050667D02*
X18353143Y-15041143D01*
X18391238Y-15041143D01*
X18410286Y-15050667D01*
X18419810Y-15060190D01*
X18429333Y-15079238D01*
X18429333Y-15136381D01*
X18419810Y-15155428D01*
X18410286Y-15164952D01*
X18391238Y-15174476D01*
X18353143Y-15174476D01*
X18334095Y-15164952D01*
X18515048Y-15155428D02*
X18524571Y-15164952D01*
X18515048Y-15174476D01*
X18505524Y-15164952D01*
X18515048Y-15155428D01*
X18515048Y-15174476D01*
X18515048Y-15050667D02*
X18524571Y-15060190D01*
X18515048Y-15069714D01*
X18505524Y-15060190D01*
X18515048Y-15050667D01*
X18515048Y-15069714D01*
M02*
