G04 #@! TF.GenerationSoftware,KiCad,Pcbnew,(6.0.9)*
G04 #@! TF.CreationDate,2022-11-21T19:08:44+01:00*
G04 #@! TF.ProjectId,PMOD series resistor board,504d4f44-2073-4657-9269-657320726573,V1.0*
G04 #@! TF.SameCoordinates,Original*
G04 #@! TF.FileFunction,Legend,Top*
G04 #@! TF.FilePolarity,Positive*
%FSLAX46Y46*%
G04 Gerber Fmt 4.6, Leading zero omitted, Abs format (unit mm)*
G04 Created by KiCad (PCBNEW (6.0.9)) date 2022-11-21 19:08:44*
%MOMM*%
%LPD*%
G01*
G04 APERTURE LIST*
%ADD10C,0.150000*%
%ADD11C,0.120000*%
%ADD12R,0.800000X0.500000*%
%ADD13R,0.800000X0.400000*%
%ADD14O,1.700000X1.700000*%
%ADD15R,1.700000X1.700000*%
G04 APERTURE END LIST*
D10*
X174491333Y-126647380D02*
X174491333Y-125647380D01*
X174872285Y-125647380D01*
X174967523Y-125695000D01*
X175015142Y-125742619D01*
X175062761Y-125837857D01*
X175062761Y-125980714D01*
X175015142Y-126075952D01*
X174967523Y-126123571D01*
X174872285Y-126171190D01*
X174491333Y-126171190D01*
X175491333Y-126647380D02*
X175491333Y-125647380D01*
X175824666Y-126361666D01*
X176158000Y-125647380D01*
X176158000Y-126647380D01*
X176824666Y-125647380D02*
X177015142Y-125647380D01*
X177110380Y-125695000D01*
X177205619Y-125790238D01*
X177253238Y-125980714D01*
X177253238Y-126314047D01*
X177205619Y-126504523D01*
X177110380Y-126599761D01*
X177015142Y-126647380D01*
X176824666Y-126647380D01*
X176729428Y-126599761D01*
X176634190Y-126504523D01*
X176586571Y-126314047D01*
X176586571Y-125980714D01*
X176634190Y-125790238D01*
X176729428Y-125695000D01*
X176824666Y-125647380D01*
X177681809Y-126647380D02*
X177681809Y-125647380D01*
X177919904Y-125647380D01*
X178062761Y-125695000D01*
X178158000Y-125790238D01*
X178205619Y-125885476D01*
X178253238Y-126075952D01*
X178253238Y-126218809D01*
X178205619Y-126409285D01*
X178158000Y-126504523D01*
X178062761Y-126599761D01*
X177919904Y-126647380D01*
X177681809Y-126647380D01*
X179396095Y-126599761D02*
X179491333Y-126647380D01*
X179681809Y-126647380D01*
X179777047Y-126599761D01*
X179824666Y-126504523D01*
X179824666Y-126456904D01*
X179777047Y-126361666D01*
X179681809Y-126314047D01*
X179538952Y-126314047D01*
X179443714Y-126266428D01*
X179396095Y-126171190D01*
X179396095Y-126123571D01*
X179443714Y-126028333D01*
X179538952Y-125980714D01*
X179681809Y-125980714D01*
X179777047Y-126028333D01*
X180634190Y-126599761D02*
X180538952Y-126647380D01*
X180348476Y-126647380D01*
X180253238Y-126599761D01*
X180205619Y-126504523D01*
X180205619Y-126123571D01*
X180253238Y-126028333D01*
X180348476Y-125980714D01*
X180538952Y-125980714D01*
X180634190Y-126028333D01*
X180681809Y-126123571D01*
X180681809Y-126218809D01*
X180205619Y-126314047D01*
X181110380Y-126647380D02*
X181110380Y-125980714D01*
X181110380Y-126171190D02*
X181158000Y-126075952D01*
X181205619Y-126028333D01*
X181300857Y-125980714D01*
X181396095Y-125980714D01*
X181729428Y-126647380D02*
X181729428Y-125980714D01*
X181729428Y-125647380D02*
X181681809Y-125695000D01*
X181729428Y-125742619D01*
X181777047Y-125695000D01*
X181729428Y-125647380D01*
X181729428Y-125742619D01*
X182586571Y-126599761D02*
X182491333Y-126647380D01*
X182300857Y-126647380D01*
X182205619Y-126599761D01*
X182158000Y-126504523D01*
X182158000Y-126123571D01*
X182205619Y-126028333D01*
X182300857Y-125980714D01*
X182491333Y-125980714D01*
X182586571Y-126028333D01*
X182634190Y-126123571D01*
X182634190Y-126218809D01*
X182158000Y-126314047D01*
X183015142Y-126599761D02*
X183110380Y-126647380D01*
X183300857Y-126647380D01*
X183396095Y-126599761D01*
X183443714Y-126504523D01*
X183443714Y-126456904D01*
X183396095Y-126361666D01*
X183300857Y-126314047D01*
X183158000Y-126314047D01*
X183062761Y-126266428D01*
X183015142Y-126171190D01*
X183015142Y-126123571D01*
X183062761Y-126028333D01*
X183158000Y-125980714D01*
X183300857Y-125980714D01*
X183396095Y-126028333D01*
X184634190Y-126647380D02*
X184634190Y-125980714D01*
X184634190Y-126171190D02*
X184681809Y-126075952D01*
X184729428Y-126028333D01*
X184824666Y-125980714D01*
X184919904Y-125980714D01*
X185634190Y-126599761D02*
X185538952Y-126647380D01*
X185348476Y-126647380D01*
X185253238Y-126599761D01*
X185205619Y-126504523D01*
X185205619Y-126123571D01*
X185253238Y-126028333D01*
X185348476Y-125980714D01*
X185538952Y-125980714D01*
X185634190Y-126028333D01*
X185681809Y-126123571D01*
X185681809Y-126218809D01*
X185205619Y-126314047D01*
X186062761Y-126599761D02*
X186158000Y-126647380D01*
X186348476Y-126647380D01*
X186443714Y-126599761D01*
X186491333Y-126504523D01*
X186491333Y-126456904D01*
X186443714Y-126361666D01*
X186348476Y-126314047D01*
X186205619Y-126314047D01*
X186110380Y-126266428D01*
X186062761Y-126171190D01*
X186062761Y-126123571D01*
X186110380Y-126028333D01*
X186205619Y-125980714D01*
X186348476Y-125980714D01*
X186443714Y-126028333D01*
X186919904Y-126647380D02*
X186919904Y-125980714D01*
X186919904Y-125647380D02*
X186872285Y-125695000D01*
X186919904Y-125742619D01*
X186967523Y-125695000D01*
X186919904Y-125647380D01*
X186919904Y-125742619D01*
X187348476Y-126599761D02*
X187443714Y-126647380D01*
X187634190Y-126647380D01*
X187729428Y-126599761D01*
X187777047Y-126504523D01*
X187777047Y-126456904D01*
X187729428Y-126361666D01*
X187634190Y-126314047D01*
X187491333Y-126314047D01*
X187396095Y-126266428D01*
X187348476Y-126171190D01*
X187348476Y-126123571D01*
X187396095Y-126028333D01*
X187491333Y-125980714D01*
X187634190Y-125980714D01*
X187729428Y-126028333D01*
X188062761Y-125980714D02*
X188443714Y-125980714D01*
X188205619Y-125647380D02*
X188205619Y-126504523D01*
X188253238Y-126599761D01*
X188348476Y-126647380D01*
X188443714Y-126647380D01*
X188919904Y-126647380D02*
X188824666Y-126599761D01*
X188777047Y-126552142D01*
X188729428Y-126456904D01*
X188729428Y-126171190D01*
X188777047Y-126075952D01*
X188824666Y-126028333D01*
X188919904Y-125980714D01*
X189062761Y-125980714D01*
X189158000Y-126028333D01*
X189205619Y-126075952D01*
X189253238Y-126171190D01*
X189253238Y-126456904D01*
X189205619Y-126552142D01*
X189158000Y-126599761D01*
X189062761Y-126647380D01*
X188919904Y-126647380D01*
X189681809Y-126647380D02*
X189681809Y-125980714D01*
X189681809Y-126171190D02*
X189729428Y-126075952D01*
X189777047Y-126028333D01*
X189872285Y-125980714D01*
X189967523Y-125980714D01*
X191062761Y-126647380D02*
X191062761Y-125647380D01*
X191062761Y-126028333D02*
X191158000Y-125980714D01*
X191348476Y-125980714D01*
X191443714Y-126028333D01*
X191491333Y-126075952D01*
X191538952Y-126171190D01*
X191538952Y-126456904D01*
X191491333Y-126552142D01*
X191443714Y-126599761D01*
X191348476Y-126647380D01*
X191158000Y-126647380D01*
X191062761Y-126599761D01*
X192110380Y-126647380D02*
X192015142Y-126599761D01*
X191967523Y-126552142D01*
X191919904Y-126456904D01*
X191919904Y-126171190D01*
X191967523Y-126075952D01*
X192015142Y-126028333D01*
X192110380Y-125980714D01*
X192253238Y-125980714D01*
X192348476Y-126028333D01*
X192396095Y-126075952D01*
X192443714Y-126171190D01*
X192443714Y-126456904D01*
X192396095Y-126552142D01*
X192348476Y-126599761D01*
X192253238Y-126647380D01*
X192110380Y-126647380D01*
X193300857Y-126647380D02*
X193300857Y-126123571D01*
X193253238Y-126028333D01*
X193158000Y-125980714D01*
X192967523Y-125980714D01*
X192872285Y-126028333D01*
X193300857Y-126599761D02*
X193205619Y-126647380D01*
X192967523Y-126647380D01*
X192872285Y-126599761D01*
X192824666Y-126504523D01*
X192824666Y-126409285D01*
X192872285Y-126314047D01*
X192967523Y-126266428D01*
X193205619Y-126266428D01*
X193300857Y-126218809D01*
X193777047Y-126647380D02*
X193777047Y-125980714D01*
X193777047Y-126171190D02*
X193824666Y-126075952D01*
X193872285Y-126028333D01*
X193967523Y-125980714D01*
X194062761Y-125980714D01*
X194824666Y-126647380D02*
X194824666Y-125647380D01*
X194824666Y-126599761D02*
X194729428Y-126647380D01*
X194538952Y-126647380D01*
X194443714Y-126599761D01*
X194396095Y-126552142D01*
X194348476Y-126456904D01*
X194348476Y-126171190D01*
X194396095Y-126075952D01*
X194443714Y-126028333D01*
X194538952Y-125980714D01*
X194729428Y-125980714D01*
X194824666Y-126028333D01*
X177562761Y-127352619D02*
X177610380Y-127305000D01*
X177705619Y-127257380D01*
X177943714Y-127257380D01*
X178038952Y-127305000D01*
X178086571Y-127352619D01*
X178134190Y-127447857D01*
X178134190Y-127543095D01*
X178086571Y-127685952D01*
X177515142Y-128257380D01*
X178134190Y-128257380D01*
X178753238Y-127257380D02*
X178848476Y-127257380D01*
X178943714Y-127305000D01*
X178991333Y-127352619D01*
X179038952Y-127447857D01*
X179086571Y-127638333D01*
X179086571Y-127876428D01*
X179038952Y-128066904D01*
X178991333Y-128162142D01*
X178943714Y-128209761D01*
X178848476Y-128257380D01*
X178753238Y-128257380D01*
X178658000Y-128209761D01*
X178610380Y-128162142D01*
X178562761Y-128066904D01*
X178515142Y-127876428D01*
X178515142Y-127638333D01*
X178562761Y-127447857D01*
X178610380Y-127352619D01*
X178658000Y-127305000D01*
X178753238Y-127257380D01*
X179467523Y-127352619D02*
X179515142Y-127305000D01*
X179610380Y-127257380D01*
X179848476Y-127257380D01*
X179943714Y-127305000D01*
X179991333Y-127352619D01*
X180038952Y-127447857D01*
X180038952Y-127543095D01*
X179991333Y-127685952D01*
X179419904Y-128257380D01*
X180038952Y-128257380D01*
X180419904Y-127352619D02*
X180467523Y-127305000D01*
X180562761Y-127257380D01*
X180800857Y-127257380D01*
X180896095Y-127305000D01*
X180943714Y-127352619D01*
X180991333Y-127447857D01*
X180991333Y-127543095D01*
X180943714Y-127685952D01*
X180372285Y-128257380D01*
X180991333Y-128257380D01*
X181419904Y-127876428D02*
X182181809Y-127876428D01*
X183181809Y-128257380D02*
X182610380Y-128257380D01*
X182896095Y-128257380D02*
X182896095Y-127257380D01*
X182800857Y-127400238D01*
X182705619Y-127495476D01*
X182610380Y-127543095D01*
X183562761Y-127352619D02*
X183610380Y-127305000D01*
X183705619Y-127257380D01*
X183943714Y-127257380D01*
X184038952Y-127305000D01*
X184086571Y-127352619D01*
X184134190Y-127447857D01*
X184134190Y-127543095D01*
X184086571Y-127685952D01*
X183515142Y-128257380D01*
X184134190Y-128257380D01*
X184562761Y-127876428D02*
X185324666Y-127876428D01*
X185753238Y-127352619D02*
X185800857Y-127305000D01*
X185896095Y-127257380D01*
X186134190Y-127257380D01*
X186229428Y-127305000D01*
X186277047Y-127352619D01*
X186324666Y-127447857D01*
X186324666Y-127543095D01*
X186277047Y-127685952D01*
X185705619Y-128257380D01*
X186324666Y-128257380D01*
X186943714Y-127257380D02*
X187038952Y-127257380D01*
X187134190Y-127305000D01*
X187181809Y-127352619D01*
X187229428Y-127447857D01*
X187277047Y-127638333D01*
X187277047Y-127876428D01*
X187229428Y-128066904D01*
X187181809Y-128162142D01*
X187134190Y-128209761D01*
X187038952Y-128257380D01*
X186943714Y-128257380D01*
X186848476Y-128209761D01*
X186800857Y-128162142D01*
X186753238Y-128066904D01*
X186705619Y-127876428D01*
X186705619Y-127638333D01*
X186753238Y-127447857D01*
X186800857Y-127352619D01*
X186848476Y-127305000D01*
X186943714Y-127257380D01*
X187753238Y-128209761D02*
X187753238Y-128257380D01*
X187705619Y-128352619D01*
X187658000Y-128400238D01*
X188800857Y-127257380D02*
X189134190Y-128257380D01*
X189467523Y-127257380D01*
X190324666Y-128257380D02*
X189753238Y-128257380D01*
X190038952Y-128257380D02*
X190038952Y-127257380D01*
X189943714Y-127400238D01*
X189848476Y-127495476D01*
X189753238Y-127543095D01*
X190753238Y-128162142D02*
X190800857Y-128209761D01*
X190753238Y-128257380D01*
X190705619Y-128209761D01*
X190753238Y-128162142D01*
X190753238Y-128257380D01*
X191419904Y-127257380D02*
X191515142Y-127257380D01*
X191610380Y-127305000D01*
X191657999Y-127352619D01*
X191705619Y-127447857D01*
X191753238Y-127638333D01*
X191753238Y-127876428D01*
X191705619Y-128066904D01*
X191657999Y-128162142D01*
X191610380Y-128209761D01*
X191515142Y-128257380D01*
X191419904Y-128257380D01*
X191324666Y-128209761D01*
X191277047Y-128162142D01*
X191229428Y-128066904D01*
X191181809Y-127876428D01*
X191181809Y-127638333D01*
X191229428Y-127447857D01*
X191277047Y-127352619D01*
X191324666Y-127305000D01*
X191419904Y-127257380D01*
X180919523Y-131002380D02*
X180586190Y-130526190D01*
X180348095Y-131002380D02*
X180348095Y-130002380D01*
X180729047Y-130002380D01*
X180824285Y-130050000D01*
X180871904Y-130097619D01*
X180919523Y-130192857D01*
X180919523Y-130335714D01*
X180871904Y-130430952D01*
X180824285Y-130478571D01*
X180729047Y-130526190D01*
X180348095Y-130526190D01*
X181348095Y-131002380D02*
X181348095Y-130002380D01*
X181919523Y-131002380D01*
X181919523Y-130002380D01*
X182824285Y-130335714D02*
X182824285Y-131002380D01*
X182586190Y-129954761D02*
X182348095Y-130669047D01*
X182967142Y-130669047D01*
X180919523Y-136082380D02*
X180586190Y-135606190D01*
X180348095Y-136082380D02*
X180348095Y-135082380D01*
X180729047Y-135082380D01*
X180824285Y-135130000D01*
X180871904Y-135177619D01*
X180919523Y-135272857D01*
X180919523Y-135415714D01*
X180871904Y-135510952D01*
X180824285Y-135558571D01*
X180729047Y-135606190D01*
X180348095Y-135606190D01*
X181348095Y-136082380D02*
X181348095Y-135082380D01*
X181919523Y-136082380D01*
X181919523Y-135082380D01*
X182300476Y-135082380D02*
X182919523Y-135082380D01*
X182586190Y-135463333D01*
X182729047Y-135463333D01*
X182824285Y-135510952D01*
X182871904Y-135558571D01*
X182919523Y-135653809D01*
X182919523Y-135891904D01*
X182871904Y-135987142D01*
X182824285Y-136034761D01*
X182729047Y-136082380D01*
X182443333Y-136082380D01*
X182348095Y-136034761D01*
X182300476Y-135987142D01*
X187626666Y-128992380D02*
X187626666Y-129706666D01*
X187579047Y-129849523D01*
X187483809Y-129944761D01*
X187340952Y-129992380D01*
X187245714Y-129992380D01*
X188531428Y-129325714D02*
X188531428Y-129992380D01*
X188293333Y-128944761D02*
X188055238Y-129659047D01*
X188674285Y-129659047D01*
X174926666Y-128992380D02*
X174926666Y-129706666D01*
X174879047Y-129849523D01*
X174783809Y-129944761D01*
X174640952Y-129992380D01*
X174545714Y-129992380D01*
X175307619Y-128992380D02*
X175926666Y-128992380D01*
X175593333Y-129373333D01*
X175736190Y-129373333D01*
X175831428Y-129420952D01*
X175879047Y-129468571D01*
X175926666Y-129563809D01*
X175926666Y-129801904D01*
X175879047Y-129897142D01*
X175831428Y-129944761D01*
X175736190Y-129992380D01*
X175450476Y-129992380D01*
X175355238Y-129944761D01*
X175307619Y-129897142D01*
X180919523Y-113222380D02*
X180586190Y-112746190D01*
X180348095Y-113222380D02*
X180348095Y-112222380D01*
X180729047Y-112222380D01*
X180824285Y-112270000D01*
X180871904Y-112317619D01*
X180919523Y-112412857D01*
X180919523Y-112555714D01*
X180871904Y-112650952D01*
X180824285Y-112698571D01*
X180729047Y-112746190D01*
X180348095Y-112746190D01*
X181348095Y-113222380D02*
X181348095Y-112222380D01*
X181919523Y-113222380D01*
X181919523Y-112222380D01*
X182348095Y-112317619D02*
X182395714Y-112270000D01*
X182490952Y-112222380D01*
X182729047Y-112222380D01*
X182824285Y-112270000D01*
X182871904Y-112317619D01*
X182919523Y-112412857D01*
X182919523Y-112508095D01*
X182871904Y-112650952D01*
X182300476Y-113222380D01*
X182919523Y-113222380D01*
X180919523Y-108142380D02*
X180586190Y-107666190D01*
X180348095Y-108142380D02*
X180348095Y-107142380D01*
X180729047Y-107142380D01*
X180824285Y-107190000D01*
X180871904Y-107237619D01*
X180919523Y-107332857D01*
X180919523Y-107475714D01*
X180871904Y-107570952D01*
X180824285Y-107618571D01*
X180729047Y-107666190D01*
X180348095Y-107666190D01*
X181348095Y-108142380D02*
X181348095Y-107142380D01*
X181919523Y-108142380D01*
X181919523Y-107142380D01*
X182919523Y-108142380D02*
X182348095Y-108142380D01*
X182633809Y-108142380D02*
X182633809Y-107142380D01*
X182538571Y-107285238D01*
X182443333Y-107380476D01*
X182348095Y-107428095D01*
X174926666Y-106132380D02*
X174926666Y-106846666D01*
X174879047Y-106989523D01*
X174783809Y-107084761D01*
X174640952Y-107132380D01*
X174545714Y-107132380D01*
X175926666Y-107132380D02*
X175355238Y-107132380D01*
X175640952Y-107132380D02*
X175640952Y-106132380D01*
X175545714Y-106275238D01*
X175450476Y-106370476D01*
X175355238Y-106418095D01*
X187626666Y-106132380D02*
X187626666Y-106846666D01*
X187579047Y-106989523D01*
X187483809Y-107084761D01*
X187340952Y-107132380D01*
X187245714Y-107132380D01*
X188055238Y-106227619D02*
X188102857Y-106180000D01*
X188198095Y-106132380D01*
X188436190Y-106132380D01*
X188531428Y-106180000D01*
X188579047Y-106227619D01*
X188626666Y-106322857D01*
X188626666Y-106418095D01*
X188579047Y-106560952D01*
X188007619Y-107132380D01*
X188626666Y-107132380D01*
D11*
X182110000Y-131670000D02*
X181110000Y-131670000D01*
X182110000Y-135030000D02*
X181110000Y-135030000D01*
X182110000Y-140110000D02*
X181110000Y-140110000D01*
X182110000Y-136750000D02*
X181110000Y-136750000D01*
X191953800Y-144436200D02*
X191543800Y-144436200D01*
X200583800Y-140986200D02*
X191953800Y-140986200D01*
X189450000Y-132440000D02*
X189010000Y-132440000D01*
X189450000Y-141880000D02*
X189010000Y-141880000D01*
X191953800Y-134996200D02*
X191543800Y-134996200D01*
X191953800Y-132456200D02*
X191543800Y-132456200D01*
X186850000Y-130810000D02*
X188180000Y-130810000D01*
X200583800Y-133366200D02*
X191953800Y-133366200D01*
X191953800Y-137536200D02*
X191543800Y-137536200D01*
X200583800Y-135906200D02*
X191953800Y-135906200D01*
X189450000Y-137520000D02*
X189010000Y-137520000D01*
X189450000Y-134260000D02*
X189010000Y-134260000D01*
X191953800Y-140076200D02*
X191543800Y-140076200D01*
X186850000Y-131920000D02*
X186850000Y-130810000D01*
X191953800Y-131736200D02*
X191543800Y-131736200D01*
X189450000Y-136800000D02*
X189010000Y-136800000D01*
X200583800Y-130766200D02*
X191953800Y-130766200D01*
X189450000Y-139340000D02*
X189010000Y-139340000D01*
X189450000Y-142600000D02*
X189010000Y-142600000D01*
X191953800Y-139356200D02*
X191543800Y-139356200D01*
X200583800Y-146126200D02*
X191953800Y-146126200D01*
X200583800Y-146126200D02*
X200583800Y-130766200D01*
X191953800Y-142616200D02*
X191543800Y-142616200D01*
X189450000Y-131720000D02*
X189010000Y-131720000D01*
X189450000Y-140060000D02*
X189010000Y-140060000D01*
X191953800Y-134276200D02*
X191543800Y-134276200D01*
X189450000Y-145140000D02*
X189070000Y-145140000D01*
X191953800Y-146126200D02*
X191953800Y-130766200D01*
X191953800Y-145156200D02*
X191543800Y-145156200D01*
X200583800Y-138446200D02*
X191953800Y-138446200D01*
X189450000Y-144420000D02*
X189070000Y-144420000D01*
X191953800Y-141896200D02*
X191543800Y-141896200D01*
X189450000Y-134980000D02*
X189010000Y-134980000D01*
X200583800Y-143526200D02*
X191953800Y-143526200D01*
X191953800Y-136816200D02*
X191543800Y-136816200D01*
X168620000Y-134240000D02*
X162620000Y-134240000D01*
X171677071Y-132460000D02*
X171280000Y-132460000D01*
X162620000Y-132460000D02*
X168620000Y-132460000D01*
X171677071Y-139320000D02*
X171280000Y-139320000D01*
X162620000Y-140080000D02*
X168620000Y-140080000D01*
X174217071Y-145160000D02*
X173762929Y-145160000D01*
X174217071Y-136780000D02*
X173762929Y-136780000D01*
X168620000Y-131880000D02*
X162620000Y-131880000D01*
X171280000Y-146110000D02*
X168620000Y-146110000D01*
X171280000Y-130750000D02*
X171280000Y-146110000D01*
X174217071Y-139320000D02*
X173762929Y-139320000D01*
X168620000Y-131760000D02*
X162620000Y-131760000D01*
X174217071Y-141860000D02*
X173762929Y-141860000D01*
X171280000Y-140970000D02*
X168620000Y-140970000D01*
X174217071Y-144400000D02*
X173762929Y-144400000D01*
X171677071Y-134240000D02*
X171280000Y-134240000D01*
X176530000Y-130810000D02*
X175260000Y-130810000D01*
X171280000Y-138430000D02*
X168620000Y-138430000D01*
X168620000Y-144400000D02*
X162620000Y-144400000D01*
X171677071Y-131700000D02*
X171280000Y-131700000D01*
X168620000Y-132000000D02*
X162620000Y-132000000D01*
X162620000Y-131700000D02*
X162620000Y-132460000D01*
X162620000Y-137540000D02*
X168620000Y-137540000D01*
X168620000Y-146110000D02*
X168620000Y-130750000D01*
X176530000Y-132080000D02*
X176530000Y-130810000D01*
X162620000Y-141860000D02*
X162620000Y-142620000D01*
X168620000Y-131700000D02*
X162620000Y-131700000D01*
X168620000Y-132360000D02*
X162620000Y-132360000D01*
X162620000Y-139320000D02*
X162620000Y-140080000D01*
X162620000Y-135000000D02*
X168620000Y-135000000D01*
X171677071Y-144400000D02*
X171280000Y-144400000D01*
X168620000Y-139320000D02*
X162620000Y-139320000D01*
X174150000Y-131700000D02*
X173762929Y-131700000D01*
X168620000Y-132240000D02*
X162620000Y-132240000D01*
X174150000Y-132460000D02*
X173762929Y-132460000D01*
X174217071Y-140080000D02*
X173762929Y-140080000D01*
X171677071Y-140080000D02*
X171280000Y-140080000D01*
X171280000Y-133350000D02*
X168620000Y-133350000D01*
X171677071Y-137540000D02*
X171280000Y-137540000D01*
X171677071Y-145160000D02*
X171280000Y-145160000D01*
X162620000Y-145160000D02*
X168620000Y-145160000D01*
X174217071Y-137540000D02*
X173762929Y-137540000D01*
X174217071Y-135000000D02*
X173762929Y-135000000D01*
X162620000Y-144400000D02*
X162620000Y-145160000D01*
X168620000Y-132120000D02*
X162620000Y-132120000D01*
X171677071Y-142620000D02*
X171280000Y-142620000D01*
X174217071Y-142620000D02*
X173762929Y-142620000D01*
X162620000Y-142620000D02*
X168620000Y-142620000D01*
X162620000Y-134240000D02*
X162620000Y-135000000D01*
X171280000Y-135890000D02*
X168620000Y-135890000D01*
X171280000Y-143510000D02*
X168620000Y-143510000D01*
X168620000Y-136780000D02*
X162620000Y-136780000D01*
X171677071Y-141860000D02*
X171280000Y-141860000D01*
X168620000Y-130750000D02*
X171280000Y-130750000D01*
X168620000Y-141860000D02*
X162620000Y-141860000D01*
X162620000Y-136780000D02*
X162620000Y-137540000D01*
X171677071Y-136780000D02*
X171280000Y-136780000D01*
X171677071Y-135000000D02*
X171280000Y-135000000D01*
X174217071Y-134240000D02*
X173762929Y-134240000D01*
X182110000Y-113890000D02*
X181110000Y-113890000D01*
X182110000Y-117250000D02*
X181110000Y-117250000D01*
X182110000Y-108810000D02*
X181110000Y-108810000D01*
X182110000Y-112170000D02*
X181110000Y-112170000D01*
X168620000Y-111380000D02*
X162620000Y-111380000D01*
X171677071Y-109600000D02*
X171280000Y-109600000D01*
X162620000Y-109600000D02*
X168620000Y-109600000D01*
X171677071Y-116460000D02*
X171280000Y-116460000D01*
X162620000Y-117220000D02*
X168620000Y-117220000D01*
X174217071Y-122300000D02*
X173762929Y-122300000D01*
X174217071Y-113920000D02*
X173762929Y-113920000D01*
X168620000Y-109020000D02*
X162620000Y-109020000D01*
X171280000Y-123250000D02*
X168620000Y-123250000D01*
X171280000Y-107890000D02*
X171280000Y-123250000D01*
X174217071Y-116460000D02*
X173762929Y-116460000D01*
X168620000Y-108900000D02*
X162620000Y-108900000D01*
X174217071Y-119000000D02*
X173762929Y-119000000D01*
X171280000Y-118110000D02*
X168620000Y-118110000D01*
X174217071Y-121540000D02*
X173762929Y-121540000D01*
X171677071Y-111380000D02*
X171280000Y-111380000D01*
X176530000Y-107950000D02*
X175260000Y-107950000D01*
X171280000Y-115570000D02*
X168620000Y-115570000D01*
X168620000Y-121540000D02*
X162620000Y-121540000D01*
X171677071Y-108840000D02*
X171280000Y-108840000D01*
X168620000Y-109140000D02*
X162620000Y-109140000D01*
X162620000Y-108840000D02*
X162620000Y-109600000D01*
X162620000Y-114680000D02*
X168620000Y-114680000D01*
X168620000Y-123250000D02*
X168620000Y-107890000D01*
X176530000Y-109220000D02*
X176530000Y-107950000D01*
X162620000Y-119000000D02*
X162620000Y-119760000D01*
X168620000Y-108840000D02*
X162620000Y-108840000D01*
X168620000Y-109500000D02*
X162620000Y-109500000D01*
X162620000Y-116460000D02*
X162620000Y-117220000D01*
X162620000Y-112140000D02*
X168620000Y-112140000D01*
X171677071Y-121540000D02*
X171280000Y-121540000D01*
X168620000Y-116460000D02*
X162620000Y-116460000D01*
X174150000Y-108840000D02*
X173762929Y-108840000D01*
X168620000Y-109380000D02*
X162620000Y-109380000D01*
X174150000Y-109600000D02*
X173762929Y-109600000D01*
X174217071Y-117220000D02*
X173762929Y-117220000D01*
X171677071Y-117220000D02*
X171280000Y-117220000D01*
X171280000Y-110490000D02*
X168620000Y-110490000D01*
X171677071Y-114680000D02*
X171280000Y-114680000D01*
X171677071Y-122300000D02*
X171280000Y-122300000D01*
X162620000Y-122300000D02*
X168620000Y-122300000D01*
X174217071Y-114680000D02*
X173762929Y-114680000D01*
X174217071Y-112140000D02*
X173762929Y-112140000D01*
X162620000Y-121540000D02*
X162620000Y-122300000D01*
X168620000Y-109260000D02*
X162620000Y-109260000D01*
X171677071Y-119760000D02*
X171280000Y-119760000D01*
X174217071Y-119760000D02*
X173762929Y-119760000D01*
X162620000Y-119760000D02*
X168620000Y-119760000D01*
X162620000Y-111380000D02*
X162620000Y-112140000D01*
X171280000Y-113030000D02*
X168620000Y-113030000D01*
X171280000Y-120650000D02*
X168620000Y-120650000D01*
X168620000Y-113920000D02*
X162620000Y-113920000D01*
X171677071Y-119000000D02*
X171280000Y-119000000D01*
X168620000Y-107890000D02*
X171280000Y-107890000D01*
X168620000Y-119000000D02*
X162620000Y-119000000D01*
X162620000Y-113920000D02*
X162620000Y-114680000D01*
X171677071Y-113920000D02*
X171280000Y-113920000D01*
X171677071Y-112140000D02*
X171280000Y-112140000D01*
X174217071Y-111380000D02*
X173762929Y-111380000D01*
X191953800Y-113956200D02*
X191543800Y-113956200D01*
X200583800Y-120666200D02*
X191953800Y-120666200D01*
X189450000Y-112120000D02*
X189010000Y-112120000D01*
X191953800Y-119036200D02*
X191543800Y-119036200D01*
X189450000Y-121560000D02*
X189070000Y-121560000D01*
X200583800Y-115586200D02*
X191953800Y-115586200D01*
X191953800Y-122296200D02*
X191543800Y-122296200D01*
X191953800Y-123266200D02*
X191953800Y-107906200D01*
X189450000Y-122280000D02*
X189070000Y-122280000D01*
X191953800Y-111416200D02*
X191543800Y-111416200D01*
X189450000Y-117200000D02*
X189010000Y-117200000D01*
X189450000Y-108860000D02*
X189010000Y-108860000D01*
X191953800Y-119756200D02*
X191543800Y-119756200D01*
X200583800Y-123266200D02*
X200583800Y-107906200D01*
X200583800Y-123266200D02*
X191953800Y-123266200D01*
X191953800Y-116496200D02*
X191543800Y-116496200D01*
X189450000Y-119740000D02*
X189010000Y-119740000D01*
X189450000Y-116480000D02*
X189010000Y-116480000D01*
X200583800Y-107906200D02*
X191953800Y-107906200D01*
X189450000Y-113940000D02*
X189010000Y-113940000D01*
X191953800Y-108876200D02*
X191543800Y-108876200D01*
X186850000Y-109060000D02*
X186850000Y-107950000D01*
X191953800Y-117216200D02*
X191543800Y-117216200D01*
X189450000Y-111400000D02*
X189010000Y-111400000D01*
X189450000Y-114660000D02*
X189010000Y-114660000D01*
X200583800Y-113046200D02*
X191953800Y-113046200D01*
X191953800Y-114676200D02*
X191543800Y-114676200D01*
X200583800Y-110506200D02*
X191953800Y-110506200D01*
X186850000Y-107950000D02*
X188180000Y-107950000D01*
X191953800Y-109596200D02*
X191543800Y-109596200D01*
X191953800Y-112136200D02*
X191543800Y-112136200D01*
X189450000Y-119020000D02*
X189010000Y-119020000D01*
X189450000Y-109580000D02*
X189010000Y-109580000D01*
X200583800Y-118126200D02*
X191953800Y-118126200D01*
X191953800Y-121576200D02*
X191543800Y-121576200D01*
%LPC*%
D12*
X180710000Y-132150000D03*
D13*
X180710000Y-132950000D03*
X180710000Y-133750000D03*
D12*
X180710000Y-134550000D03*
X182510000Y-134550000D03*
D13*
X182510000Y-133750000D03*
X182510000Y-132950000D03*
D12*
X182510000Y-132150000D03*
X182510000Y-137230000D03*
D13*
X182510000Y-138030000D03*
X182510000Y-138830000D03*
D12*
X182510000Y-139630000D03*
X180710000Y-139630000D03*
D13*
X180710000Y-138830000D03*
X180710000Y-138030000D03*
D12*
X180710000Y-137230000D03*
D14*
X190500000Y-144780000D03*
X190500000Y-142240000D03*
X190500000Y-139700000D03*
X190500000Y-137160000D03*
X190500000Y-134620000D03*
X190500000Y-132080000D03*
X187960000Y-144780000D03*
X187960000Y-142240000D03*
X187960000Y-139700000D03*
X187960000Y-137160000D03*
X187960000Y-134620000D03*
D15*
X187960000Y-132080000D03*
X175260000Y-132080000D03*
D14*
X175260000Y-134620000D03*
X175260000Y-137160000D03*
X175260000Y-139700000D03*
X175260000Y-142240000D03*
X175260000Y-144780000D03*
X172720000Y-132080000D03*
X172720000Y-134620000D03*
X172720000Y-137160000D03*
X172720000Y-139700000D03*
X172720000Y-142240000D03*
X172720000Y-144780000D03*
D12*
X180710000Y-114370000D03*
D13*
X180710000Y-115170000D03*
X180710000Y-115970000D03*
D12*
X180710000Y-116770000D03*
X182510000Y-116770000D03*
D13*
X182510000Y-115970000D03*
X182510000Y-115170000D03*
D12*
X182510000Y-114370000D03*
X180710000Y-109290000D03*
D13*
X180710000Y-110090000D03*
X180710000Y-110890000D03*
D12*
X180710000Y-111690000D03*
X182510000Y-111690000D03*
D13*
X182510000Y-110890000D03*
X182510000Y-110090000D03*
D12*
X182510000Y-109290000D03*
D15*
X175260000Y-109220000D03*
D14*
X175260000Y-111760000D03*
X175260000Y-114300000D03*
X175260000Y-116840000D03*
X175260000Y-119380000D03*
X175260000Y-121920000D03*
X172720000Y-109220000D03*
X172720000Y-111760000D03*
X172720000Y-114300000D03*
X172720000Y-116840000D03*
X172720000Y-119380000D03*
X172720000Y-121920000D03*
D15*
X187960000Y-109220000D03*
D14*
X187960000Y-111760000D03*
X187960000Y-114300000D03*
X187960000Y-116840000D03*
X187960000Y-119380000D03*
X187960000Y-121920000D03*
X190500000Y-109220000D03*
X190500000Y-111760000D03*
X190500000Y-114300000D03*
X190500000Y-116840000D03*
X190500000Y-119380000D03*
X190500000Y-121920000D03*
M02*
