M48
; DRILL file {KiCad (6.0.9)} date Mon Nov 21 19:08:50 2022
; FORMAT={-:-/ absolute / metric / decimal}
; #@! TF.CreationDate,2022-11-21T19:08:50+01:00
; #@! TF.GenerationSoftware,Kicad,Pcbnew,(6.0.9)
; #@! TF.FileFunction,Plated,1,2,PTH
FMAT,2
METRIC
; #@! TA.AperFunction,Plated,PTH,ComponentDrill
T1C1.000
%
G90
G05
T1
X172.72Y-109.22
X172.72Y-111.76
X172.72Y-114.3
X172.72Y-116.84
X172.72Y-119.38
X172.72Y-121.92
X172.72Y-132.08
X172.72Y-134.62
X172.72Y-137.16
X172.72Y-139.7
X172.72Y-142.24
X172.72Y-144.78
X175.26Y-109.22
X175.26Y-111.76
X175.26Y-114.3
X175.26Y-116.84
X175.26Y-119.38
X175.26Y-121.92
X175.26Y-132.08
X175.26Y-134.62
X175.26Y-137.16
X175.26Y-139.7
X175.26Y-142.24
X175.26Y-144.78
X187.96Y-109.22
X187.96Y-111.76
X187.96Y-114.3
X187.96Y-116.84
X187.96Y-119.38
X187.96Y-121.92
X187.96Y-132.08
X187.96Y-134.62
X187.96Y-137.16
X187.96Y-139.7
X187.96Y-142.24
X187.96Y-144.78
X190.5Y-109.22
X190.5Y-111.76
X190.5Y-114.3
X190.5Y-116.84
X190.5Y-119.38
X190.5Y-121.92
X190.5Y-132.08
X190.5Y-134.62
X190.5Y-137.16
X190.5Y-139.7
X190.5Y-142.24
X190.5Y-144.78
T0
M30
