G04 #@! TF.GenerationSoftware,KiCad,Pcbnew,(6.0.9)*
G04 #@! TF.CreationDate,2022-11-21T19:08:44+01:00*
G04 #@! TF.ProjectId,PMOD series resistor board,504d4f44-2073-4657-9269-657320726573,V1.0*
G04 #@! TF.SameCoordinates,Original*
G04 #@! TF.FileFunction,Copper,L2,Bot*
G04 #@! TF.FilePolarity,Positive*
%FSLAX46Y46*%
G04 Gerber Fmt 4.6, Leading zero omitted, Abs format (unit mm)*
G04 Created by KiCad (PCBNEW (6.0.9)) date 2022-11-21 19:08:44*
%MOMM*%
%LPD*%
G01*
G04 APERTURE LIST*
G04 #@! TA.AperFunction,ComponentPad*
%ADD10O,1.700000X1.700000*%
G04 #@! TD*
G04 #@! TA.AperFunction,ComponentPad*
%ADD11R,1.700000X1.700000*%
G04 #@! TD*
G04 APERTURE END LIST*
D10*
X190500000Y-144780000D03*
X190500000Y-142240000D03*
X190500000Y-139700000D03*
X190500000Y-137160000D03*
X190500000Y-134620000D03*
X190500000Y-132080000D03*
X187960000Y-144780000D03*
X187960000Y-142240000D03*
X187960000Y-139700000D03*
X187960000Y-137160000D03*
X187960000Y-134620000D03*
D11*
X187960000Y-132080000D03*
X175260000Y-132080000D03*
D10*
X175260000Y-134620000D03*
X175260000Y-137160000D03*
X175260000Y-139700000D03*
X175260000Y-142240000D03*
X175260000Y-144780000D03*
X172720000Y-132080000D03*
X172720000Y-134620000D03*
X172720000Y-137160000D03*
X172720000Y-139700000D03*
X172720000Y-142240000D03*
X172720000Y-144780000D03*
D11*
X175260000Y-109220000D03*
D10*
X175260000Y-111760000D03*
X175260000Y-114300000D03*
X175260000Y-116840000D03*
X175260000Y-119380000D03*
X175260000Y-121920000D03*
X172720000Y-109220000D03*
X172720000Y-111760000D03*
X172720000Y-114300000D03*
X172720000Y-116840000D03*
X172720000Y-119380000D03*
X172720000Y-121920000D03*
D11*
X187960000Y-109220000D03*
D10*
X187960000Y-111760000D03*
X187960000Y-114300000D03*
X187960000Y-116840000D03*
X187960000Y-119380000D03*
X187960000Y-121920000D03*
X190500000Y-109220000D03*
X190500000Y-111760000D03*
X190500000Y-114300000D03*
X190500000Y-116840000D03*
X190500000Y-119380000D03*
X190500000Y-121920000D03*
G04 #@! TA.AperFunction,Conductor*
G36*
X200347621Y-105684502D02*
G01*
X200394114Y-105738158D01*
X200405500Y-105790500D01*
X200405500Y-148209500D01*
X200385498Y-148277621D01*
X200331842Y-148324114D01*
X200279500Y-148335500D01*
X169290500Y-148335500D01*
X169222379Y-148315498D01*
X169175886Y-148261842D01*
X169164500Y-148209500D01*
X169164500Y-144750964D01*
X171611148Y-144750964D01*
X171624424Y-144953522D01*
X171625845Y-144959118D01*
X171625846Y-144959123D01*
X171646119Y-145038945D01*
X171674392Y-145150269D01*
X171676809Y-145155512D01*
X171714010Y-145236208D01*
X171759377Y-145334616D01*
X171876533Y-145500389D01*
X172021938Y-145642035D01*
X172190720Y-145754812D01*
X172196023Y-145757090D01*
X172196026Y-145757092D01*
X172284707Y-145795192D01*
X172377228Y-145834942D01*
X172450244Y-145851464D01*
X172569579Y-145878467D01*
X172569584Y-145878468D01*
X172575216Y-145879742D01*
X172580987Y-145879969D01*
X172580989Y-145879969D01*
X172640756Y-145882317D01*
X172778053Y-145887712D01*
X172878499Y-145873148D01*
X172973231Y-145859413D01*
X172973236Y-145859412D01*
X172978945Y-145858584D01*
X172984409Y-145856729D01*
X172984414Y-145856728D01*
X173165693Y-145795192D01*
X173165698Y-145795190D01*
X173171165Y-145793334D01*
X173348276Y-145694147D01*
X173410934Y-145642035D01*
X173499913Y-145568031D01*
X173504345Y-145564345D01*
X173634147Y-145408276D01*
X173733334Y-145231165D01*
X173735190Y-145225698D01*
X173735192Y-145225693D01*
X173796728Y-145044414D01*
X173796729Y-145044409D01*
X173798584Y-145038945D01*
X173799412Y-145033236D01*
X173799413Y-145033231D01*
X173827179Y-144841727D01*
X173827712Y-144838053D01*
X173829232Y-144780000D01*
X173826564Y-144750964D01*
X174151148Y-144750964D01*
X174164424Y-144953522D01*
X174165845Y-144959118D01*
X174165846Y-144959123D01*
X174186119Y-145038945D01*
X174214392Y-145150269D01*
X174216809Y-145155512D01*
X174254010Y-145236208D01*
X174299377Y-145334616D01*
X174416533Y-145500389D01*
X174561938Y-145642035D01*
X174730720Y-145754812D01*
X174736023Y-145757090D01*
X174736026Y-145757092D01*
X174824707Y-145795192D01*
X174917228Y-145834942D01*
X174990244Y-145851464D01*
X175109579Y-145878467D01*
X175109584Y-145878468D01*
X175115216Y-145879742D01*
X175120987Y-145879969D01*
X175120989Y-145879969D01*
X175180756Y-145882317D01*
X175318053Y-145887712D01*
X175418499Y-145873148D01*
X175513231Y-145859413D01*
X175513236Y-145859412D01*
X175518945Y-145858584D01*
X175524409Y-145856729D01*
X175524414Y-145856728D01*
X175705693Y-145795192D01*
X175705698Y-145795190D01*
X175711165Y-145793334D01*
X175888276Y-145694147D01*
X175950934Y-145642035D01*
X176039913Y-145568031D01*
X176044345Y-145564345D01*
X176174147Y-145408276D01*
X176273334Y-145231165D01*
X176275190Y-145225698D01*
X176275192Y-145225693D01*
X176336728Y-145044414D01*
X176336729Y-145044409D01*
X176338584Y-145038945D01*
X176339412Y-145033236D01*
X176339413Y-145033231D01*
X176367179Y-144841727D01*
X176367712Y-144838053D01*
X176369232Y-144780000D01*
X176366564Y-144750964D01*
X186851148Y-144750964D01*
X186864424Y-144953522D01*
X186865845Y-144959118D01*
X186865846Y-144959123D01*
X186886119Y-145038945D01*
X186914392Y-145150269D01*
X186916809Y-145155512D01*
X186954010Y-145236208D01*
X186999377Y-145334616D01*
X187116533Y-145500389D01*
X187261938Y-145642035D01*
X187430720Y-145754812D01*
X187436023Y-145757090D01*
X187436026Y-145757092D01*
X187524707Y-145795192D01*
X187617228Y-145834942D01*
X187690244Y-145851464D01*
X187809579Y-145878467D01*
X187809584Y-145878468D01*
X187815216Y-145879742D01*
X187820987Y-145879969D01*
X187820989Y-145879969D01*
X187880756Y-145882317D01*
X188018053Y-145887712D01*
X188118499Y-145873148D01*
X188213231Y-145859413D01*
X188213236Y-145859412D01*
X188218945Y-145858584D01*
X188224409Y-145856729D01*
X188224414Y-145856728D01*
X188405693Y-145795192D01*
X188405698Y-145795190D01*
X188411165Y-145793334D01*
X188588276Y-145694147D01*
X188650934Y-145642035D01*
X188739913Y-145568031D01*
X188744345Y-145564345D01*
X188874147Y-145408276D01*
X188973334Y-145231165D01*
X188975190Y-145225698D01*
X188975192Y-145225693D01*
X189036728Y-145044414D01*
X189036729Y-145044409D01*
X189038584Y-145038945D01*
X189039412Y-145033236D01*
X189039413Y-145033231D01*
X189067179Y-144841727D01*
X189067712Y-144838053D01*
X189069232Y-144780000D01*
X189066564Y-144750964D01*
X189391148Y-144750964D01*
X189404424Y-144953522D01*
X189405845Y-144959118D01*
X189405846Y-144959123D01*
X189426119Y-145038945D01*
X189454392Y-145150269D01*
X189456809Y-145155512D01*
X189494010Y-145236208D01*
X189539377Y-145334616D01*
X189656533Y-145500389D01*
X189801938Y-145642035D01*
X189970720Y-145754812D01*
X189976023Y-145757090D01*
X189976026Y-145757092D01*
X190064707Y-145795192D01*
X190157228Y-145834942D01*
X190230244Y-145851464D01*
X190349579Y-145878467D01*
X190349584Y-145878468D01*
X190355216Y-145879742D01*
X190360987Y-145879969D01*
X190360989Y-145879969D01*
X190420756Y-145882317D01*
X190558053Y-145887712D01*
X190658499Y-145873148D01*
X190753231Y-145859413D01*
X190753236Y-145859412D01*
X190758945Y-145858584D01*
X190764409Y-145856729D01*
X190764414Y-145856728D01*
X190945693Y-145795192D01*
X190945698Y-145795190D01*
X190951165Y-145793334D01*
X191128276Y-145694147D01*
X191190934Y-145642035D01*
X191279913Y-145568031D01*
X191284345Y-145564345D01*
X191414147Y-145408276D01*
X191513334Y-145231165D01*
X191515190Y-145225698D01*
X191515192Y-145225693D01*
X191576728Y-145044414D01*
X191576729Y-145044409D01*
X191578584Y-145038945D01*
X191579412Y-145033236D01*
X191579413Y-145033231D01*
X191607179Y-144841727D01*
X191607712Y-144838053D01*
X191609232Y-144780000D01*
X191590658Y-144577859D01*
X191589090Y-144572299D01*
X191537125Y-144388046D01*
X191537124Y-144388044D01*
X191535557Y-144382487D01*
X191524978Y-144361033D01*
X191448331Y-144205609D01*
X191445776Y-144200428D01*
X191324320Y-144037779D01*
X191175258Y-143899987D01*
X191170375Y-143896906D01*
X191170371Y-143896903D01*
X191008464Y-143794748D01*
X191003581Y-143791667D01*
X190815039Y-143716446D01*
X190809379Y-143715320D01*
X190809375Y-143715319D01*
X190621613Y-143677971D01*
X190621610Y-143677971D01*
X190615946Y-143676844D01*
X190610171Y-143676768D01*
X190610167Y-143676768D01*
X190508793Y-143675441D01*
X190412971Y-143674187D01*
X190407274Y-143675166D01*
X190407273Y-143675166D01*
X190218607Y-143707585D01*
X190212910Y-143708564D01*
X190022463Y-143778824D01*
X189848010Y-143882612D01*
X189843670Y-143886418D01*
X189843666Y-143886421D01*
X189823723Y-143903911D01*
X189695392Y-144016455D01*
X189569720Y-144175869D01*
X189567031Y-144180980D01*
X189567029Y-144180983D01*
X189554073Y-144205609D01*
X189475203Y-144355515D01*
X189415007Y-144549378D01*
X189391148Y-144750964D01*
X189066564Y-144750964D01*
X189050658Y-144577859D01*
X189049090Y-144572299D01*
X188997125Y-144388046D01*
X188997124Y-144388044D01*
X188995557Y-144382487D01*
X188984978Y-144361033D01*
X188908331Y-144205609D01*
X188905776Y-144200428D01*
X188784320Y-144037779D01*
X188635258Y-143899987D01*
X188630375Y-143896906D01*
X188630371Y-143896903D01*
X188468464Y-143794748D01*
X188463581Y-143791667D01*
X188275039Y-143716446D01*
X188269379Y-143715320D01*
X188269375Y-143715319D01*
X188081613Y-143677971D01*
X188081610Y-143677971D01*
X188075946Y-143676844D01*
X188070171Y-143676768D01*
X188070167Y-143676768D01*
X187968793Y-143675441D01*
X187872971Y-143674187D01*
X187867274Y-143675166D01*
X187867273Y-143675166D01*
X187678607Y-143707585D01*
X187672910Y-143708564D01*
X187482463Y-143778824D01*
X187308010Y-143882612D01*
X187303670Y-143886418D01*
X187303666Y-143886421D01*
X187283723Y-143903911D01*
X187155392Y-144016455D01*
X187029720Y-144175869D01*
X187027031Y-144180980D01*
X187027029Y-144180983D01*
X187014073Y-144205609D01*
X186935203Y-144355515D01*
X186875007Y-144549378D01*
X186851148Y-144750964D01*
X176366564Y-144750964D01*
X176350658Y-144577859D01*
X176349090Y-144572299D01*
X176297125Y-144388046D01*
X176297124Y-144388044D01*
X176295557Y-144382487D01*
X176284978Y-144361033D01*
X176208331Y-144205609D01*
X176205776Y-144200428D01*
X176084320Y-144037779D01*
X175935258Y-143899987D01*
X175930375Y-143896906D01*
X175930371Y-143896903D01*
X175768464Y-143794748D01*
X175763581Y-143791667D01*
X175575039Y-143716446D01*
X175569379Y-143715320D01*
X175569375Y-143715319D01*
X175381613Y-143677971D01*
X175381610Y-143677971D01*
X175375946Y-143676844D01*
X175370171Y-143676768D01*
X175370167Y-143676768D01*
X175268793Y-143675441D01*
X175172971Y-143674187D01*
X175167274Y-143675166D01*
X175167273Y-143675166D01*
X174978607Y-143707585D01*
X174972910Y-143708564D01*
X174782463Y-143778824D01*
X174608010Y-143882612D01*
X174603670Y-143886418D01*
X174603666Y-143886421D01*
X174583723Y-143903911D01*
X174455392Y-144016455D01*
X174329720Y-144175869D01*
X174327031Y-144180980D01*
X174327029Y-144180983D01*
X174314073Y-144205609D01*
X174235203Y-144355515D01*
X174175007Y-144549378D01*
X174151148Y-144750964D01*
X173826564Y-144750964D01*
X173810658Y-144577859D01*
X173809090Y-144572299D01*
X173757125Y-144388046D01*
X173757124Y-144388044D01*
X173755557Y-144382487D01*
X173744978Y-144361033D01*
X173668331Y-144205609D01*
X173665776Y-144200428D01*
X173544320Y-144037779D01*
X173395258Y-143899987D01*
X173390375Y-143896906D01*
X173390371Y-143896903D01*
X173228464Y-143794748D01*
X173223581Y-143791667D01*
X173035039Y-143716446D01*
X173029379Y-143715320D01*
X173029375Y-143715319D01*
X172841613Y-143677971D01*
X172841610Y-143677971D01*
X172835946Y-143676844D01*
X172830171Y-143676768D01*
X172830167Y-143676768D01*
X172728793Y-143675441D01*
X172632971Y-143674187D01*
X172627274Y-143675166D01*
X172627273Y-143675166D01*
X172438607Y-143707585D01*
X172432910Y-143708564D01*
X172242463Y-143778824D01*
X172068010Y-143882612D01*
X172063670Y-143886418D01*
X172063666Y-143886421D01*
X172043723Y-143903911D01*
X171915392Y-144016455D01*
X171789720Y-144175869D01*
X171787031Y-144180980D01*
X171787029Y-144180983D01*
X171774073Y-144205609D01*
X171695203Y-144355515D01*
X171635007Y-144549378D01*
X171611148Y-144750964D01*
X169164500Y-144750964D01*
X169164500Y-142506962D01*
X171648671Y-142506962D01*
X171673443Y-142604502D01*
X171677284Y-142615348D01*
X171757394Y-142789120D01*
X171763145Y-142799081D01*
X171873579Y-142955343D01*
X171881057Y-142964098D01*
X172018114Y-143097612D01*
X172027058Y-143104855D01*
X172186156Y-143211161D01*
X172196266Y-143216651D01*
X172372077Y-143292185D01*
X172383020Y-143295740D01*
X172448332Y-143310519D01*
X172462405Y-143309630D01*
X172465828Y-143300681D01*
X172974000Y-143300681D01*
X172977966Y-143314187D01*
X172986672Y-143315433D01*
X173165497Y-143254730D01*
X173175994Y-143250056D01*
X173342958Y-143156552D01*
X173352430Y-143150042D01*
X173499553Y-143027682D01*
X173507682Y-143019553D01*
X173630042Y-142872430D01*
X173636552Y-142862958D01*
X173730056Y-142695994D01*
X173734730Y-142685497D01*
X173795335Y-142506962D01*
X174188671Y-142506962D01*
X174213443Y-142604502D01*
X174217284Y-142615348D01*
X174297394Y-142789120D01*
X174303145Y-142799081D01*
X174413579Y-142955343D01*
X174421057Y-142964098D01*
X174558114Y-143097612D01*
X174567058Y-143104855D01*
X174726156Y-143211161D01*
X174736266Y-143216651D01*
X174912077Y-143292185D01*
X174923020Y-143295740D01*
X174988332Y-143310519D01*
X175002405Y-143309630D01*
X175005828Y-143300681D01*
X175514000Y-143300681D01*
X175517966Y-143314187D01*
X175526672Y-143315433D01*
X175705497Y-143254730D01*
X175715994Y-143250056D01*
X175882958Y-143156552D01*
X175892430Y-143150042D01*
X176039553Y-143027682D01*
X176047682Y-143019553D01*
X176170042Y-142872430D01*
X176176552Y-142862958D01*
X176270056Y-142695994D01*
X176274730Y-142685497D01*
X176335335Y-142506962D01*
X186888671Y-142506962D01*
X186913443Y-142604502D01*
X186917284Y-142615348D01*
X186997394Y-142789120D01*
X187003145Y-142799081D01*
X187113579Y-142955343D01*
X187121057Y-142964098D01*
X187258114Y-143097612D01*
X187267058Y-143104855D01*
X187426156Y-143211161D01*
X187436266Y-143216651D01*
X187612077Y-143292185D01*
X187623020Y-143295740D01*
X187688332Y-143310519D01*
X187702405Y-143309630D01*
X187705828Y-143300681D01*
X188214000Y-143300681D01*
X188217966Y-143314187D01*
X188226672Y-143315433D01*
X188405497Y-143254730D01*
X188415994Y-143250056D01*
X188582958Y-143156552D01*
X188592430Y-143150042D01*
X188739553Y-143027682D01*
X188747682Y-143019553D01*
X188870042Y-142872430D01*
X188876552Y-142862958D01*
X188970056Y-142695994D01*
X188974730Y-142685497D01*
X189035335Y-142506962D01*
X189428671Y-142506962D01*
X189453443Y-142604502D01*
X189457284Y-142615348D01*
X189537394Y-142789120D01*
X189543145Y-142799081D01*
X189653579Y-142955343D01*
X189661057Y-142964098D01*
X189798114Y-143097612D01*
X189807058Y-143104855D01*
X189966156Y-143211161D01*
X189976266Y-143216651D01*
X190152077Y-143292185D01*
X190163020Y-143295740D01*
X190228332Y-143310519D01*
X190242405Y-143309630D01*
X190245828Y-143300681D01*
X190754000Y-143300681D01*
X190757966Y-143314187D01*
X190766672Y-143315433D01*
X190945497Y-143254730D01*
X190955994Y-143250056D01*
X191122958Y-143156552D01*
X191132430Y-143150042D01*
X191279553Y-143027682D01*
X191287682Y-143019553D01*
X191410042Y-142872430D01*
X191416552Y-142862958D01*
X191510056Y-142695994D01*
X191514730Y-142685497D01*
X191575443Y-142506644D01*
X191574210Y-142497993D01*
X191560642Y-142494000D01*
X190772115Y-142494000D01*
X190756876Y-142498475D01*
X190755671Y-142499865D01*
X190754000Y-142507548D01*
X190754000Y-143300681D01*
X190245828Y-143300681D01*
X190246000Y-143300232D01*
X190246000Y-142512115D01*
X190241525Y-142496876D01*
X190240135Y-142495671D01*
X190232452Y-142494000D01*
X189443494Y-142494000D01*
X189429963Y-142497973D01*
X189428671Y-142506962D01*
X189035335Y-142506962D01*
X189035443Y-142506644D01*
X189034210Y-142497993D01*
X189020642Y-142494000D01*
X188232115Y-142494000D01*
X188216876Y-142498475D01*
X188215671Y-142499865D01*
X188214000Y-142507548D01*
X188214000Y-143300681D01*
X187705828Y-143300681D01*
X187706000Y-143300232D01*
X187706000Y-142512115D01*
X187701525Y-142496876D01*
X187700135Y-142495671D01*
X187692452Y-142494000D01*
X186903494Y-142494000D01*
X186889963Y-142497973D01*
X186888671Y-142506962D01*
X176335335Y-142506962D01*
X176335443Y-142506644D01*
X176334210Y-142497993D01*
X176320642Y-142494000D01*
X175532115Y-142494000D01*
X175516876Y-142498475D01*
X175515671Y-142499865D01*
X175514000Y-142507548D01*
X175514000Y-143300681D01*
X175005828Y-143300681D01*
X175006000Y-143300232D01*
X175006000Y-142512115D01*
X175001525Y-142496876D01*
X175000135Y-142495671D01*
X174992452Y-142494000D01*
X174203494Y-142494000D01*
X174189963Y-142497973D01*
X174188671Y-142506962D01*
X173795335Y-142506962D01*
X173795443Y-142506644D01*
X173794210Y-142497993D01*
X173780642Y-142494000D01*
X172992115Y-142494000D01*
X172976876Y-142498475D01*
X172975671Y-142499865D01*
X172974000Y-142507548D01*
X172974000Y-143300681D01*
X172465828Y-143300681D01*
X172466000Y-143300232D01*
X172466000Y-142512115D01*
X172461525Y-142496876D01*
X172460135Y-142495671D01*
X172452452Y-142494000D01*
X171663494Y-142494000D01*
X171649963Y-142497973D01*
X171648671Y-142506962D01*
X169164500Y-142506962D01*
X169164500Y-141982799D01*
X171647943Y-141982799D01*
X171654675Y-141986000D01*
X172447885Y-141986000D01*
X172463124Y-141981525D01*
X172464329Y-141980135D01*
X172466000Y-141972452D01*
X172466000Y-141967885D01*
X172974000Y-141967885D01*
X172978475Y-141983124D01*
X172979865Y-141984329D01*
X172987548Y-141986000D01*
X173777398Y-141986000D01*
X173788300Y-141982799D01*
X174187943Y-141982799D01*
X174194675Y-141986000D01*
X174987885Y-141986000D01*
X175003124Y-141981525D01*
X175004329Y-141980135D01*
X175006000Y-141972452D01*
X175006000Y-141967885D01*
X175514000Y-141967885D01*
X175518475Y-141983124D01*
X175519865Y-141984329D01*
X175527548Y-141986000D01*
X176317398Y-141986000D01*
X176328300Y-141982799D01*
X186887943Y-141982799D01*
X186894675Y-141986000D01*
X187687885Y-141986000D01*
X187703124Y-141981525D01*
X187704329Y-141980135D01*
X187706000Y-141972452D01*
X187706000Y-141967885D01*
X188214000Y-141967885D01*
X188218475Y-141983124D01*
X188219865Y-141984329D01*
X188227548Y-141986000D01*
X189017398Y-141986000D01*
X189028300Y-141982799D01*
X189427943Y-141982799D01*
X189434675Y-141986000D01*
X190227885Y-141986000D01*
X190243124Y-141981525D01*
X190244329Y-141980135D01*
X190246000Y-141972452D01*
X190246000Y-141967885D01*
X190754000Y-141967885D01*
X190758475Y-141983124D01*
X190759865Y-141984329D01*
X190767548Y-141986000D01*
X191557398Y-141986000D01*
X191570929Y-141982027D01*
X191572098Y-141973892D01*
X191536658Y-141848231D01*
X191532533Y-141837484D01*
X191447903Y-141665871D01*
X191441893Y-141656063D01*
X191327400Y-141502739D01*
X191319710Y-141494199D01*
X191179192Y-141364304D01*
X191170067Y-141357303D01*
X191008236Y-141255195D01*
X190997989Y-141249974D01*
X190820260Y-141179068D01*
X190809232Y-141175801D01*
X190771769Y-141168350D01*
X190758894Y-141169502D01*
X190754000Y-141184658D01*
X190754000Y-141967885D01*
X190246000Y-141967885D01*
X190246000Y-141181500D01*
X190242194Y-141168538D01*
X190227279Y-141166602D01*
X190218732Y-141168071D01*
X190207620Y-141171048D01*
X190028095Y-141237279D01*
X190017717Y-141242229D01*
X189853273Y-141340063D01*
X189843961Y-141346829D01*
X189700097Y-141472994D01*
X189692180Y-141481337D01*
X189573718Y-141631605D01*
X189567450Y-141641256D01*
X189478358Y-141810592D01*
X189473953Y-141821227D01*
X189428162Y-141968698D01*
X189427943Y-141982799D01*
X189028300Y-141982799D01*
X189030929Y-141982027D01*
X189032098Y-141973892D01*
X188996658Y-141848231D01*
X188992533Y-141837484D01*
X188907903Y-141665871D01*
X188901893Y-141656063D01*
X188787400Y-141502739D01*
X188779710Y-141494199D01*
X188639192Y-141364304D01*
X188630067Y-141357303D01*
X188468236Y-141255195D01*
X188457989Y-141249974D01*
X188280260Y-141179068D01*
X188269232Y-141175801D01*
X188231769Y-141168350D01*
X188218894Y-141169502D01*
X188214000Y-141184658D01*
X188214000Y-141967885D01*
X187706000Y-141967885D01*
X187706000Y-141181500D01*
X187702194Y-141168538D01*
X187687279Y-141166602D01*
X187678732Y-141168071D01*
X187667620Y-141171048D01*
X187488095Y-141237279D01*
X187477717Y-141242229D01*
X187313273Y-141340063D01*
X187303961Y-141346829D01*
X187160097Y-141472994D01*
X187152180Y-141481337D01*
X187033718Y-141631605D01*
X187027450Y-141641256D01*
X186938358Y-141810592D01*
X186933953Y-141821227D01*
X186888162Y-141968698D01*
X186887943Y-141982799D01*
X176328300Y-141982799D01*
X176330929Y-141982027D01*
X176332098Y-141973892D01*
X176296658Y-141848231D01*
X176292533Y-141837484D01*
X176207903Y-141665871D01*
X176201893Y-141656063D01*
X176087400Y-141502739D01*
X176079710Y-141494199D01*
X175939192Y-141364304D01*
X175930067Y-141357303D01*
X175768236Y-141255195D01*
X175757989Y-141249974D01*
X175580260Y-141179068D01*
X175569232Y-141175801D01*
X175531769Y-141168350D01*
X175518894Y-141169502D01*
X175514000Y-141184658D01*
X175514000Y-141967885D01*
X175006000Y-141967885D01*
X175006000Y-141181500D01*
X175002194Y-141168538D01*
X174987279Y-141166602D01*
X174978732Y-141168071D01*
X174967620Y-141171048D01*
X174788095Y-141237279D01*
X174777717Y-141242229D01*
X174613273Y-141340063D01*
X174603961Y-141346829D01*
X174460097Y-141472994D01*
X174452180Y-141481337D01*
X174333718Y-141631605D01*
X174327450Y-141641256D01*
X174238358Y-141810592D01*
X174233953Y-141821227D01*
X174188162Y-141968698D01*
X174187943Y-141982799D01*
X173788300Y-141982799D01*
X173790929Y-141982027D01*
X173792098Y-141973892D01*
X173756658Y-141848231D01*
X173752533Y-141837484D01*
X173667903Y-141665871D01*
X173661893Y-141656063D01*
X173547400Y-141502739D01*
X173539710Y-141494199D01*
X173399192Y-141364304D01*
X173390067Y-141357303D01*
X173228236Y-141255195D01*
X173217989Y-141249974D01*
X173040260Y-141179068D01*
X173029232Y-141175801D01*
X172991769Y-141168350D01*
X172978894Y-141169502D01*
X172974000Y-141184658D01*
X172974000Y-141967885D01*
X172466000Y-141967885D01*
X172466000Y-141181500D01*
X172462194Y-141168538D01*
X172447279Y-141166602D01*
X172438732Y-141168071D01*
X172427620Y-141171048D01*
X172248095Y-141237279D01*
X172237717Y-141242229D01*
X172073273Y-141340063D01*
X172063961Y-141346829D01*
X171920097Y-141472994D01*
X171912180Y-141481337D01*
X171793718Y-141631605D01*
X171787450Y-141641256D01*
X171698358Y-141810592D01*
X171693953Y-141821227D01*
X171648162Y-141968698D01*
X171647943Y-141982799D01*
X169164500Y-141982799D01*
X169164500Y-139670964D01*
X171611148Y-139670964D01*
X171624424Y-139873522D01*
X171625845Y-139879118D01*
X171625846Y-139879123D01*
X171646119Y-139958945D01*
X171674392Y-140070269D01*
X171676809Y-140075512D01*
X171714010Y-140156208D01*
X171759377Y-140254616D01*
X171876533Y-140420389D01*
X172021938Y-140562035D01*
X172190720Y-140674812D01*
X172196023Y-140677090D01*
X172196026Y-140677092D01*
X172284707Y-140715192D01*
X172377228Y-140754942D01*
X172450244Y-140771464D01*
X172569579Y-140798467D01*
X172569584Y-140798468D01*
X172575216Y-140799742D01*
X172580987Y-140799969D01*
X172580989Y-140799969D01*
X172640756Y-140802317D01*
X172778053Y-140807712D01*
X172878499Y-140793148D01*
X172973231Y-140779413D01*
X172973236Y-140779412D01*
X172978945Y-140778584D01*
X172984409Y-140776729D01*
X172984414Y-140776728D01*
X173165693Y-140715192D01*
X173165698Y-140715190D01*
X173171165Y-140713334D01*
X173348276Y-140614147D01*
X173410934Y-140562035D01*
X173499913Y-140488031D01*
X173504345Y-140484345D01*
X173634147Y-140328276D01*
X173733334Y-140151165D01*
X173735190Y-140145698D01*
X173735192Y-140145693D01*
X173796728Y-139964414D01*
X173796729Y-139964409D01*
X173798584Y-139958945D01*
X173799412Y-139953236D01*
X173799413Y-139953231D01*
X173827179Y-139761727D01*
X173827712Y-139758053D01*
X173829232Y-139700000D01*
X173826564Y-139670964D01*
X174151148Y-139670964D01*
X174164424Y-139873522D01*
X174165845Y-139879118D01*
X174165846Y-139879123D01*
X174186119Y-139958945D01*
X174214392Y-140070269D01*
X174216809Y-140075512D01*
X174254010Y-140156208D01*
X174299377Y-140254616D01*
X174416533Y-140420389D01*
X174561938Y-140562035D01*
X174730720Y-140674812D01*
X174736023Y-140677090D01*
X174736026Y-140677092D01*
X174824707Y-140715192D01*
X174917228Y-140754942D01*
X174990244Y-140771464D01*
X175109579Y-140798467D01*
X175109584Y-140798468D01*
X175115216Y-140799742D01*
X175120987Y-140799969D01*
X175120989Y-140799969D01*
X175180756Y-140802317D01*
X175318053Y-140807712D01*
X175418499Y-140793148D01*
X175513231Y-140779413D01*
X175513236Y-140779412D01*
X175518945Y-140778584D01*
X175524409Y-140776729D01*
X175524414Y-140776728D01*
X175705693Y-140715192D01*
X175705698Y-140715190D01*
X175711165Y-140713334D01*
X175888276Y-140614147D01*
X175950934Y-140562035D01*
X176039913Y-140488031D01*
X176044345Y-140484345D01*
X176174147Y-140328276D01*
X176273334Y-140151165D01*
X176275190Y-140145698D01*
X176275192Y-140145693D01*
X176336728Y-139964414D01*
X176336729Y-139964409D01*
X176338584Y-139958945D01*
X176339412Y-139953236D01*
X176339413Y-139953231D01*
X176367179Y-139761727D01*
X176367712Y-139758053D01*
X176369232Y-139700000D01*
X176366564Y-139670964D01*
X186851148Y-139670964D01*
X186864424Y-139873522D01*
X186865845Y-139879118D01*
X186865846Y-139879123D01*
X186886119Y-139958945D01*
X186914392Y-140070269D01*
X186916809Y-140075512D01*
X186954010Y-140156208D01*
X186999377Y-140254616D01*
X187116533Y-140420389D01*
X187261938Y-140562035D01*
X187430720Y-140674812D01*
X187436023Y-140677090D01*
X187436026Y-140677092D01*
X187524707Y-140715192D01*
X187617228Y-140754942D01*
X187690244Y-140771464D01*
X187809579Y-140798467D01*
X187809584Y-140798468D01*
X187815216Y-140799742D01*
X187820987Y-140799969D01*
X187820989Y-140799969D01*
X187880756Y-140802317D01*
X188018053Y-140807712D01*
X188118499Y-140793148D01*
X188213231Y-140779413D01*
X188213236Y-140779412D01*
X188218945Y-140778584D01*
X188224409Y-140776729D01*
X188224414Y-140776728D01*
X188405693Y-140715192D01*
X188405698Y-140715190D01*
X188411165Y-140713334D01*
X188588276Y-140614147D01*
X188650934Y-140562035D01*
X188739913Y-140488031D01*
X188744345Y-140484345D01*
X188874147Y-140328276D01*
X188973334Y-140151165D01*
X188975190Y-140145698D01*
X188975192Y-140145693D01*
X189036728Y-139964414D01*
X189036729Y-139964409D01*
X189038584Y-139958945D01*
X189039412Y-139953236D01*
X189039413Y-139953231D01*
X189067179Y-139761727D01*
X189067712Y-139758053D01*
X189069232Y-139700000D01*
X189066564Y-139670964D01*
X189391148Y-139670964D01*
X189404424Y-139873522D01*
X189405845Y-139879118D01*
X189405846Y-139879123D01*
X189426119Y-139958945D01*
X189454392Y-140070269D01*
X189456809Y-140075512D01*
X189494010Y-140156208D01*
X189539377Y-140254616D01*
X189656533Y-140420389D01*
X189801938Y-140562035D01*
X189970720Y-140674812D01*
X189976023Y-140677090D01*
X189976026Y-140677092D01*
X190064707Y-140715192D01*
X190157228Y-140754942D01*
X190230244Y-140771464D01*
X190349579Y-140798467D01*
X190349584Y-140798468D01*
X190355216Y-140799742D01*
X190360987Y-140799969D01*
X190360989Y-140799969D01*
X190420756Y-140802317D01*
X190558053Y-140807712D01*
X190658499Y-140793148D01*
X190753231Y-140779413D01*
X190753236Y-140779412D01*
X190758945Y-140778584D01*
X190764409Y-140776729D01*
X190764414Y-140776728D01*
X190945693Y-140715192D01*
X190945698Y-140715190D01*
X190951165Y-140713334D01*
X191128276Y-140614147D01*
X191190934Y-140562035D01*
X191279913Y-140488031D01*
X191284345Y-140484345D01*
X191414147Y-140328276D01*
X191513334Y-140151165D01*
X191515190Y-140145698D01*
X191515192Y-140145693D01*
X191576728Y-139964414D01*
X191576729Y-139964409D01*
X191578584Y-139958945D01*
X191579412Y-139953236D01*
X191579413Y-139953231D01*
X191607179Y-139761727D01*
X191607712Y-139758053D01*
X191609232Y-139700000D01*
X191590658Y-139497859D01*
X191589090Y-139492299D01*
X191537125Y-139308046D01*
X191537124Y-139308044D01*
X191535557Y-139302487D01*
X191524978Y-139281033D01*
X191448331Y-139125609D01*
X191445776Y-139120428D01*
X191324320Y-138957779D01*
X191175258Y-138819987D01*
X191170375Y-138816906D01*
X191170371Y-138816903D01*
X191008464Y-138714748D01*
X191003581Y-138711667D01*
X190815039Y-138636446D01*
X190809379Y-138635320D01*
X190809375Y-138635319D01*
X190621613Y-138597971D01*
X190621610Y-138597971D01*
X190615946Y-138596844D01*
X190610171Y-138596768D01*
X190610167Y-138596768D01*
X190508793Y-138595441D01*
X190412971Y-138594187D01*
X190407274Y-138595166D01*
X190407273Y-138595166D01*
X190218607Y-138627585D01*
X190212910Y-138628564D01*
X190022463Y-138698824D01*
X189848010Y-138802612D01*
X189843670Y-138806418D01*
X189843666Y-138806421D01*
X189823723Y-138823911D01*
X189695392Y-138936455D01*
X189569720Y-139095869D01*
X189567031Y-139100980D01*
X189567029Y-139100983D01*
X189554073Y-139125609D01*
X189475203Y-139275515D01*
X189415007Y-139469378D01*
X189391148Y-139670964D01*
X189066564Y-139670964D01*
X189050658Y-139497859D01*
X189049090Y-139492299D01*
X188997125Y-139308046D01*
X188997124Y-139308044D01*
X188995557Y-139302487D01*
X188984978Y-139281033D01*
X188908331Y-139125609D01*
X188905776Y-139120428D01*
X188784320Y-138957779D01*
X188635258Y-138819987D01*
X188630375Y-138816906D01*
X188630371Y-138816903D01*
X188468464Y-138714748D01*
X188463581Y-138711667D01*
X188275039Y-138636446D01*
X188269379Y-138635320D01*
X188269375Y-138635319D01*
X188081613Y-138597971D01*
X188081610Y-138597971D01*
X188075946Y-138596844D01*
X188070171Y-138596768D01*
X188070167Y-138596768D01*
X187968793Y-138595441D01*
X187872971Y-138594187D01*
X187867274Y-138595166D01*
X187867273Y-138595166D01*
X187678607Y-138627585D01*
X187672910Y-138628564D01*
X187482463Y-138698824D01*
X187308010Y-138802612D01*
X187303670Y-138806418D01*
X187303666Y-138806421D01*
X187283723Y-138823911D01*
X187155392Y-138936455D01*
X187029720Y-139095869D01*
X187027031Y-139100980D01*
X187027029Y-139100983D01*
X187014073Y-139125609D01*
X186935203Y-139275515D01*
X186875007Y-139469378D01*
X186851148Y-139670964D01*
X176366564Y-139670964D01*
X176350658Y-139497859D01*
X176349090Y-139492299D01*
X176297125Y-139308046D01*
X176297124Y-139308044D01*
X176295557Y-139302487D01*
X176284978Y-139281033D01*
X176208331Y-139125609D01*
X176205776Y-139120428D01*
X176084320Y-138957779D01*
X175935258Y-138819987D01*
X175930375Y-138816906D01*
X175930371Y-138816903D01*
X175768464Y-138714748D01*
X175763581Y-138711667D01*
X175575039Y-138636446D01*
X175569379Y-138635320D01*
X175569375Y-138635319D01*
X175381613Y-138597971D01*
X175381610Y-138597971D01*
X175375946Y-138596844D01*
X175370171Y-138596768D01*
X175370167Y-138596768D01*
X175268793Y-138595441D01*
X175172971Y-138594187D01*
X175167274Y-138595166D01*
X175167273Y-138595166D01*
X174978607Y-138627585D01*
X174972910Y-138628564D01*
X174782463Y-138698824D01*
X174608010Y-138802612D01*
X174603670Y-138806418D01*
X174603666Y-138806421D01*
X174583723Y-138823911D01*
X174455392Y-138936455D01*
X174329720Y-139095869D01*
X174327031Y-139100980D01*
X174327029Y-139100983D01*
X174314073Y-139125609D01*
X174235203Y-139275515D01*
X174175007Y-139469378D01*
X174151148Y-139670964D01*
X173826564Y-139670964D01*
X173810658Y-139497859D01*
X173809090Y-139492299D01*
X173757125Y-139308046D01*
X173757124Y-139308044D01*
X173755557Y-139302487D01*
X173744978Y-139281033D01*
X173668331Y-139125609D01*
X173665776Y-139120428D01*
X173544320Y-138957779D01*
X173395258Y-138819987D01*
X173390375Y-138816906D01*
X173390371Y-138816903D01*
X173228464Y-138714748D01*
X173223581Y-138711667D01*
X173035039Y-138636446D01*
X173029379Y-138635320D01*
X173029375Y-138635319D01*
X172841613Y-138597971D01*
X172841610Y-138597971D01*
X172835946Y-138596844D01*
X172830171Y-138596768D01*
X172830167Y-138596768D01*
X172728793Y-138595441D01*
X172632971Y-138594187D01*
X172627274Y-138595166D01*
X172627273Y-138595166D01*
X172438607Y-138627585D01*
X172432910Y-138628564D01*
X172242463Y-138698824D01*
X172068010Y-138802612D01*
X172063670Y-138806418D01*
X172063666Y-138806421D01*
X172043723Y-138823911D01*
X171915392Y-138936455D01*
X171789720Y-139095869D01*
X171787031Y-139100980D01*
X171787029Y-139100983D01*
X171774073Y-139125609D01*
X171695203Y-139275515D01*
X171635007Y-139469378D01*
X171611148Y-139670964D01*
X169164500Y-139670964D01*
X169164500Y-137130964D01*
X171611148Y-137130964D01*
X171624424Y-137333522D01*
X171625845Y-137339118D01*
X171625846Y-137339123D01*
X171646119Y-137418945D01*
X171674392Y-137530269D01*
X171676809Y-137535512D01*
X171714010Y-137616208D01*
X171759377Y-137714616D01*
X171876533Y-137880389D01*
X172021938Y-138022035D01*
X172190720Y-138134812D01*
X172196023Y-138137090D01*
X172196026Y-138137092D01*
X172284707Y-138175192D01*
X172377228Y-138214942D01*
X172450244Y-138231464D01*
X172569579Y-138258467D01*
X172569584Y-138258468D01*
X172575216Y-138259742D01*
X172580987Y-138259969D01*
X172580989Y-138259969D01*
X172640756Y-138262317D01*
X172778053Y-138267712D01*
X172878499Y-138253148D01*
X172973231Y-138239413D01*
X172973236Y-138239412D01*
X172978945Y-138238584D01*
X172984409Y-138236729D01*
X172984414Y-138236728D01*
X173165693Y-138175192D01*
X173165698Y-138175190D01*
X173171165Y-138173334D01*
X173348276Y-138074147D01*
X173410934Y-138022035D01*
X173499913Y-137948031D01*
X173504345Y-137944345D01*
X173634147Y-137788276D01*
X173733334Y-137611165D01*
X173735190Y-137605698D01*
X173735192Y-137605693D01*
X173796728Y-137424414D01*
X173796729Y-137424409D01*
X173798584Y-137418945D01*
X173799412Y-137413236D01*
X173799413Y-137413231D01*
X173827179Y-137221727D01*
X173827712Y-137218053D01*
X173829232Y-137160000D01*
X173826564Y-137130964D01*
X174151148Y-137130964D01*
X174164424Y-137333522D01*
X174165845Y-137339118D01*
X174165846Y-137339123D01*
X174186119Y-137418945D01*
X174214392Y-137530269D01*
X174216809Y-137535512D01*
X174254010Y-137616208D01*
X174299377Y-137714616D01*
X174416533Y-137880389D01*
X174561938Y-138022035D01*
X174730720Y-138134812D01*
X174736023Y-138137090D01*
X174736026Y-138137092D01*
X174824707Y-138175192D01*
X174917228Y-138214942D01*
X174990244Y-138231464D01*
X175109579Y-138258467D01*
X175109584Y-138258468D01*
X175115216Y-138259742D01*
X175120987Y-138259969D01*
X175120989Y-138259969D01*
X175180756Y-138262317D01*
X175318053Y-138267712D01*
X175418499Y-138253148D01*
X175513231Y-138239413D01*
X175513236Y-138239412D01*
X175518945Y-138238584D01*
X175524409Y-138236729D01*
X175524414Y-138236728D01*
X175705693Y-138175192D01*
X175705698Y-138175190D01*
X175711165Y-138173334D01*
X175888276Y-138074147D01*
X175950934Y-138022035D01*
X176039913Y-137948031D01*
X176044345Y-137944345D01*
X176174147Y-137788276D01*
X176273334Y-137611165D01*
X176275190Y-137605698D01*
X176275192Y-137605693D01*
X176336728Y-137424414D01*
X176336729Y-137424409D01*
X176338584Y-137418945D01*
X176339412Y-137413236D01*
X176339413Y-137413231D01*
X176367179Y-137221727D01*
X176367712Y-137218053D01*
X176369232Y-137160000D01*
X176366564Y-137130964D01*
X186851148Y-137130964D01*
X186864424Y-137333522D01*
X186865845Y-137339118D01*
X186865846Y-137339123D01*
X186886119Y-137418945D01*
X186914392Y-137530269D01*
X186916809Y-137535512D01*
X186954010Y-137616208D01*
X186999377Y-137714616D01*
X187116533Y-137880389D01*
X187261938Y-138022035D01*
X187430720Y-138134812D01*
X187436023Y-138137090D01*
X187436026Y-138137092D01*
X187524707Y-138175192D01*
X187617228Y-138214942D01*
X187690244Y-138231464D01*
X187809579Y-138258467D01*
X187809584Y-138258468D01*
X187815216Y-138259742D01*
X187820987Y-138259969D01*
X187820989Y-138259969D01*
X187880756Y-138262317D01*
X188018053Y-138267712D01*
X188118499Y-138253148D01*
X188213231Y-138239413D01*
X188213236Y-138239412D01*
X188218945Y-138238584D01*
X188224409Y-138236729D01*
X188224414Y-138236728D01*
X188405693Y-138175192D01*
X188405698Y-138175190D01*
X188411165Y-138173334D01*
X188588276Y-138074147D01*
X188650934Y-138022035D01*
X188739913Y-137948031D01*
X188744345Y-137944345D01*
X188874147Y-137788276D01*
X188973334Y-137611165D01*
X188975190Y-137605698D01*
X188975192Y-137605693D01*
X189036728Y-137424414D01*
X189036729Y-137424409D01*
X189038584Y-137418945D01*
X189039412Y-137413236D01*
X189039413Y-137413231D01*
X189067179Y-137221727D01*
X189067712Y-137218053D01*
X189069232Y-137160000D01*
X189066564Y-137130964D01*
X189391148Y-137130964D01*
X189404424Y-137333522D01*
X189405845Y-137339118D01*
X189405846Y-137339123D01*
X189426119Y-137418945D01*
X189454392Y-137530269D01*
X189456809Y-137535512D01*
X189494010Y-137616208D01*
X189539377Y-137714616D01*
X189656533Y-137880389D01*
X189801938Y-138022035D01*
X189970720Y-138134812D01*
X189976023Y-138137090D01*
X189976026Y-138137092D01*
X190064707Y-138175192D01*
X190157228Y-138214942D01*
X190230244Y-138231464D01*
X190349579Y-138258467D01*
X190349584Y-138258468D01*
X190355216Y-138259742D01*
X190360987Y-138259969D01*
X190360989Y-138259969D01*
X190420756Y-138262317D01*
X190558053Y-138267712D01*
X190658499Y-138253148D01*
X190753231Y-138239413D01*
X190753236Y-138239412D01*
X190758945Y-138238584D01*
X190764409Y-138236729D01*
X190764414Y-138236728D01*
X190945693Y-138175192D01*
X190945698Y-138175190D01*
X190951165Y-138173334D01*
X191128276Y-138074147D01*
X191190934Y-138022035D01*
X191279913Y-137948031D01*
X191284345Y-137944345D01*
X191414147Y-137788276D01*
X191513334Y-137611165D01*
X191515190Y-137605698D01*
X191515192Y-137605693D01*
X191576728Y-137424414D01*
X191576729Y-137424409D01*
X191578584Y-137418945D01*
X191579412Y-137413236D01*
X191579413Y-137413231D01*
X191607179Y-137221727D01*
X191607712Y-137218053D01*
X191609232Y-137160000D01*
X191590658Y-136957859D01*
X191589090Y-136952299D01*
X191537125Y-136768046D01*
X191537124Y-136768044D01*
X191535557Y-136762487D01*
X191524978Y-136741033D01*
X191448331Y-136585609D01*
X191445776Y-136580428D01*
X191324320Y-136417779D01*
X191175258Y-136279987D01*
X191170375Y-136276906D01*
X191170371Y-136276903D01*
X191008464Y-136174748D01*
X191003581Y-136171667D01*
X190815039Y-136096446D01*
X190809379Y-136095320D01*
X190809375Y-136095319D01*
X190621613Y-136057971D01*
X190621610Y-136057971D01*
X190615946Y-136056844D01*
X190610171Y-136056768D01*
X190610167Y-136056768D01*
X190508793Y-136055441D01*
X190412971Y-136054187D01*
X190407274Y-136055166D01*
X190407273Y-136055166D01*
X190218607Y-136087585D01*
X190212910Y-136088564D01*
X190022463Y-136158824D01*
X189848010Y-136262612D01*
X189843670Y-136266418D01*
X189843666Y-136266421D01*
X189823723Y-136283911D01*
X189695392Y-136396455D01*
X189569720Y-136555869D01*
X189567031Y-136560980D01*
X189567029Y-136560983D01*
X189554073Y-136585609D01*
X189475203Y-136735515D01*
X189415007Y-136929378D01*
X189391148Y-137130964D01*
X189066564Y-137130964D01*
X189050658Y-136957859D01*
X189049090Y-136952299D01*
X188997125Y-136768046D01*
X188997124Y-136768044D01*
X188995557Y-136762487D01*
X188984978Y-136741033D01*
X188908331Y-136585609D01*
X188905776Y-136580428D01*
X188784320Y-136417779D01*
X188635258Y-136279987D01*
X188630375Y-136276906D01*
X188630371Y-136276903D01*
X188468464Y-136174748D01*
X188463581Y-136171667D01*
X188275039Y-136096446D01*
X188269379Y-136095320D01*
X188269375Y-136095319D01*
X188081613Y-136057971D01*
X188081610Y-136057971D01*
X188075946Y-136056844D01*
X188070171Y-136056768D01*
X188070167Y-136056768D01*
X187968793Y-136055441D01*
X187872971Y-136054187D01*
X187867274Y-136055166D01*
X187867273Y-136055166D01*
X187678607Y-136087585D01*
X187672910Y-136088564D01*
X187482463Y-136158824D01*
X187308010Y-136262612D01*
X187303670Y-136266418D01*
X187303666Y-136266421D01*
X187283723Y-136283911D01*
X187155392Y-136396455D01*
X187029720Y-136555869D01*
X187027031Y-136560980D01*
X187027029Y-136560983D01*
X187014073Y-136585609D01*
X186935203Y-136735515D01*
X186875007Y-136929378D01*
X186851148Y-137130964D01*
X176366564Y-137130964D01*
X176350658Y-136957859D01*
X176349090Y-136952299D01*
X176297125Y-136768046D01*
X176297124Y-136768044D01*
X176295557Y-136762487D01*
X176284978Y-136741033D01*
X176208331Y-136585609D01*
X176205776Y-136580428D01*
X176084320Y-136417779D01*
X175935258Y-136279987D01*
X175930375Y-136276906D01*
X175930371Y-136276903D01*
X175768464Y-136174748D01*
X175763581Y-136171667D01*
X175575039Y-136096446D01*
X175569379Y-136095320D01*
X175569375Y-136095319D01*
X175381613Y-136057971D01*
X175381610Y-136057971D01*
X175375946Y-136056844D01*
X175370171Y-136056768D01*
X175370167Y-136056768D01*
X175268793Y-136055441D01*
X175172971Y-136054187D01*
X175167274Y-136055166D01*
X175167273Y-136055166D01*
X174978607Y-136087585D01*
X174972910Y-136088564D01*
X174782463Y-136158824D01*
X174608010Y-136262612D01*
X174603670Y-136266418D01*
X174603666Y-136266421D01*
X174583723Y-136283911D01*
X174455392Y-136396455D01*
X174329720Y-136555869D01*
X174327031Y-136560980D01*
X174327029Y-136560983D01*
X174314073Y-136585609D01*
X174235203Y-136735515D01*
X174175007Y-136929378D01*
X174151148Y-137130964D01*
X173826564Y-137130964D01*
X173810658Y-136957859D01*
X173809090Y-136952299D01*
X173757125Y-136768046D01*
X173757124Y-136768044D01*
X173755557Y-136762487D01*
X173744978Y-136741033D01*
X173668331Y-136585609D01*
X173665776Y-136580428D01*
X173544320Y-136417779D01*
X173395258Y-136279987D01*
X173390375Y-136276906D01*
X173390371Y-136276903D01*
X173228464Y-136174748D01*
X173223581Y-136171667D01*
X173035039Y-136096446D01*
X173029379Y-136095320D01*
X173029375Y-136095319D01*
X172841613Y-136057971D01*
X172841610Y-136057971D01*
X172835946Y-136056844D01*
X172830171Y-136056768D01*
X172830167Y-136056768D01*
X172728793Y-136055441D01*
X172632971Y-136054187D01*
X172627274Y-136055166D01*
X172627273Y-136055166D01*
X172438607Y-136087585D01*
X172432910Y-136088564D01*
X172242463Y-136158824D01*
X172068010Y-136262612D01*
X172063670Y-136266418D01*
X172063666Y-136266421D01*
X172043723Y-136283911D01*
X171915392Y-136396455D01*
X171789720Y-136555869D01*
X171787031Y-136560980D01*
X171787029Y-136560983D01*
X171774073Y-136585609D01*
X171695203Y-136735515D01*
X171635007Y-136929378D01*
X171611148Y-137130964D01*
X169164500Y-137130964D01*
X169164500Y-134590964D01*
X171611148Y-134590964D01*
X171624424Y-134793522D01*
X171625845Y-134799118D01*
X171625846Y-134799123D01*
X171646119Y-134878945D01*
X171674392Y-134990269D01*
X171676809Y-134995512D01*
X171714010Y-135076208D01*
X171759377Y-135174616D01*
X171876533Y-135340389D01*
X172021938Y-135482035D01*
X172190720Y-135594812D01*
X172196023Y-135597090D01*
X172196026Y-135597092D01*
X172284707Y-135635192D01*
X172377228Y-135674942D01*
X172450244Y-135691464D01*
X172569579Y-135718467D01*
X172569584Y-135718468D01*
X172575216Y-135719742D01*
X172580987Y-135719969D01*
X172580989Y-135719969D01*
X172640756Y-135722317D01*
X172778053Y-135727712D01*
X172878499Y-135713148D01*
X172973231Y-135699413D01*
X172973236Y-135699412D01*
X172978945Y-135698584D01*
X172984409Y-135696729D01*
X172984414Y-135696728D01*
X173165693Y-135635192D01*
X173165698Y-135635190D01*
X173171165Y-135633334D01*
X173348276Y-135534147D01*
X173410934Y-135482035D01*
X173499913Y-135408031D01*
X173504345Y-135404345D01*
X173634147Y-135248276D01*
X173733334Y-135071165D01*
X173735190Y-135065698D01*
X173735192Y-135065693D01*
X173796728Y-134884414D01*
X173796729Y-134884409D01*
X173798584Y-134878945D01*
X173799412Y-134873236D01*
X173799413Y-134873231D01*
X173827179Y-134681727D01*
X173827712Y-134678053D01*
X173829232Y-134620000D01*
X173826564Y-134590964D01*
X174151148Y-134590964D01*
X174164424Y-134793522D01*
X174165845Y-134799118D01*
X174165846Y-134799123D01*
X174186119Y-134878945D01*
X174214392Y-134990269D01*
X174216809Y-134995512D01*
X174254010Y-135076208D01*
X174299377Y-135174616D01*
X174416533Y-135340389D01*
X174561938Y-135482035D01*
X174730720Y-135594812D01*
X174736023Y-135597090D01*
X174736026Y-135597092D01*
X174824707Y-135635192D01*
X174917228Y-135674942D01*
X174990244Y-135691464D01*
X175109579Y-135718467D01*
X175109584Y-135718468D01*
X175115216Y-135719742D01*
X175120987Y-135719969D01*
X175120989Y-135719969D01*
X175180756Y-135722317D01*
X175318053Y-135727712D01*
X175418499Y-135713148D01*
X175513231Y-135699413D01*
X175513236Y-135699412D01*
X175518945Y-135698584D01*
X175524409Y-135696729D01*
X175524414Y-135696728D01*
X175705693Y-135635192D01*
X175705698Y-135635190D01*
X175711165Y-135633334D01*
X175888276Y-135534147D01*
X175950934Y-135482035D01*
X176039913Y-135408031D01*
X176044345Y-135404345D01*
X176174147Y-135248276D01*
X176273334Y-135071165D01*
X176275190Y-135065698D01*
X176275192Y-135065693D01*
X176336728Y-134884414D01*
X176336729Y-134884409D01*
X176338584Y-134878945D01*
X176339412Y-134873236D01*
X176339413Y-134873231D01*
X176367179Y-134681727D01*
X176367712Y-134678053D01*
X176369232Y-134620000D01*
X176366564Y-134590964D01*
X186851148Y-134590964D01*
X186864424Y-134793522D01*
X186865845Y-134799118D01*
X186865846Y-134799123D01*
X186886119Y-134878945D01*
X186914392Y-134990269D01*
X186916809Y-134995512D01*
X186954010Y-135076208D01*
X186999377Y-135174616D01*
X187116533Y-135340389D01*
X187261938Y-135482035D01*
X187430720Y-135594812D01*
X187436023Y-135597090D01*
X187436026Y-135597092D01*
X187524707Y-135635192D01*
X187617228Y-135674942D01*
X187690244Y-135691464D01*
X187809579Y-135718467D01*
X187809584Y-135718468D01*
X187815216Y-135719742D01*
X187820987Y-135719969D01*
X187820989Y-135719969D01*
X187880756Y-135722317D01*
X188018053Y-135727712D01*
X188118499Y-135713148D01*
X188213231Y-135699413D01*
X188213236Y-135699412D01*
X188218945Y-135698584D01*
X188224409Y-135696729D01*
X188224414Y-135696728D01*
X188405693Y-135635192D01*
X188405698Y-135635190D01*
X188411165Y-135633334D01*
X188588276Y-135534147D01*
X188650934Y-135482035D01*
X188739913Y-135408031D01*
X188744345Y-135404345D01*
X188874147Y-135248276D01*
X188973334Y-135071165D01*
X188975190Y-135065698D01*
X188975192Y-135065693D01*
X189036728Y-134884414D01*
X189036729Y-134884409D01*
X189038584Y-134878945D01*
X189039412Y-134873236D01*
X189039413Y-134873231D01*
X189067179Y-134681727D01*
X189067712Y-134678053D01*
X189069232Y-134620000D01*
X189066564Y-134590964D01*
X189391148Y-134590964D01*
X189404424Y-134793522D01*
X189405845Y-134799118D01*
X189405846Y-134799123D01*
X189426119Y-134878945D01*
X189454392Y-134990269D01*
X189456809Y-134995512D01*
X189494010Y-135076208D01*
X189539377Y-135174616D01*
X189656533Y-135340389D01*
X189801938Y-135482035D01*
X189970720Y-135594812D01*
X189976023Y-135597090D01*
X189976026Y-135597092D01*
X190064707Y-135635192D01*
X190157228Y-135674942D01*
X190230244Y-135691464D01*
X190349579Y-135718467D01*
X190349584Y-135718468D01*
X190355216Y-135719742D01*
X190360987Y-135719969D01*
X190360989Y-135719969D01*
X190420756Y-135722317D01*
X190558053Y-135727712D01*
X190658499Y-135713148D01*
X190753231Y-135699413D01*
X190753236Y-135699412D01*
X190758945Y-135698584D01*
X190764409Y-135696729D01*
X190764414Y-135696728D01*
X190945693Y-135635192D01*
X190945698Y-135635190D01*
X190951165Y-135633334D01*
X191128276Y-135534147D01*
X191190934Y-135482035D01*
X191279913Y-135408031D01*
X191284345Y-135404345D01*
X191414147Y-135248276D01*
X191513334Y-135071165D01*
X191515190Y-135065698D01*
X191515192Y-135065693D01*
X191576728Y-134884414D01*
X191576729Y-134884409D01*
X191578584Y-134878945D01*
X191579412Y-134873236D01*
X191579413Y-134873231D01*
X191607179Y-134681727D01*
X191607712Y-134678053D01*
X191609232Y-134620000D01*
X191590658Y-134417859D01*
X191589090Y-134412299D01*
X191537125Y-134228046D01*
X191537124Y-134228044D01*
X191535557Y-134222487D01*
X191524978Y-134201033D01*
X191448331Y-134045609D01*
X191445776Y-134040428D01*
X191324320Y-133877779D01*
X191175258Y-133739987D01*
X191170375Y-133736906D01*
X191170371Y-133736903D01*
X191008464Y-133634748D01*
X191003581Y-133631667D01*
X190815039Y-133556446D01*
X190809379Y-133555320D01*
X190809375Y-133555319D01*
X190621613Y-133517971D01*
X190621610Y-133517971D01*
X190615946Y-133516844D01*
X190610171Y-133516768D01*
X190610167Y-133516768D01*
X190508793Y-133515441D01*
X190412971Y-133514187D01*
X190407274Y-133515166D01*
X190407273Y-133515166D01*
X190218607Y-133547585D01*
X190212910Y-133548564D01*
X190022463Y-133618824D01*
X189848010Y-133722612D01*
X189843670Y-133726418D01*
X189843666Y-133726421D01*
X189823723Y-133743911D01*
X189695392Y-133856455D01*
X189569720Y-134015869D01*
X189567031Y-134020980D01*
X189567029Y-134020983D01*
X189554073Y-134045609D01*
X189475203Y-134195515D01*
X189415007Y-134389378D01*
X189391148Y-134590964D01*
X189066564Y-134590964D01*
X189050658Y-134417859D01*
X189049090Y-134412299D01*
X188997125Y-134228046D01*
X188997124Y-134228044D01*
X188995557Y-134222487D01*
X188984978Y-134201033D01*
X188908331Y-134045609D01*
X188905776Y-134040428D01*
X188784320Y-133877779D01*
X188635258Y-133739987D01*
X188630375Y-133736906D01*
X188630371Y-133736903D01*
X188468464Y-133634748D01*
X188463581Y-133631667D01*
X188275039Y-133556446D01*
X188269379Y-133555320D01*
X188269375Y-133555319D01*
X188081613Y-133517971D01*
X188081610Y-133517971D01*
X188075946Y-133516844D01*
X188070171Y-133516768D01*
X188070167Y-133516768D01*
X187968793Y-133515441D01*
X187872971Y-133514187D01*
X187867274Y-133515166D01*
X187867273Y-133515166D01*
X187678607Y-133547585D01*
X187672910Y-133548564D01*
X187482463Y-133618824D01*
X187308010Y-133722612D01*
X187303670Y-133726418D01*
X187303666Y-133726421D01*
X187283723Y-133743911D01*
X187155392Y-133856455D01*
X187029720Y-134015869D01*
X187027031Y-134020980D01*
X187027029Y-134020983D01*
X187014073Y-134045609D01*
X186935203Y-134195515D01*
X186875007Y-134389378D01*
X186851148Y-134590964D01*
X176366564Y-134590964D01*
X176350658Y-134417859D01*
X176349090Y-134412299D01*
X176297125Y-134228046D01*
X176297124Y-134228044D01*
X176295557Y-134222487D01*
X176284978Y-134201033D01*
X176208331Y-134045609D01*
X176205776Y-134040428D01*
X176084320Y-133877779D01*
X175935258Y-133739987D01*
X175930375Y-133736906D01*
X175930371Y-133736903D01*
X175768464Y-133634748D01*
X175763581Y-133631667D01*
X175575039Y-133556446D01*
X175569379Y-133555320D01*
X175569375Y-133555319D01*
X175381613Y-133517971D01*
X175381610Y-133517971D01*
X175375946Y-133516844D01*
X175370171Y-133516768D01*
X175370167Y-133516768D01*
X175268793Y-133515441D01*
X175172971Y-133514187D01*
X175167274Y-133515166D01*
X175167273Y-133515166D01*
X174978607Y-133547585D01*
X174972910Y-133548564D01*
X174782463Y-133618824D01*
X174608010Y-133722612D01*
X174603670Y-133726418D01*
X174603666Y-133726421D01*
X174583723Y-133743911D01*
X174455392Y-133856455D01*
X174329720Y-134015869D01*
X174327031Y-134020980D01*
X174327029Y-134020983D01*
X174314073Y-134045609D01*
X174235203Y-134195515D01*
X174175007Y-134389378D01*
X174151148Y-134590964D01*
X173826564Y-134590964D01*
X173810658Y-134417859D01*
X173809090Y-134412299D01*
X173757125Y-134228046D01*
X173757124Y-134228044D01*
X173755557Y-134222487D01*
X173744978Y-134201033D01*
X173668331Y-134045609D01*
X173665776Y-134040428D01*
X173544320Y-133877779D01*
X173395258Y-133739987D01*
X173390375Y-133736906D01*
X173390371Y-133736903D01*
X173228464Y-133634748D01*
X173223581Y-133631667D01*
X173035039Y-133556446D01*
X173029379Y-133555320D01*
X173029375Y-133555319D01*
X172841613Y-133517971D01*
X172841610Y-133517971D01*
X172835946Y-133516844D01*
X172830171Y-133516768D01*
X172830167Y-133516768D01*
X172728793Y-133515441D01*
X172632971Y-133514187D01*
X172627274Y-133515166D01*
X172627273Y-133515166D01*
X172438607Y-133547585D01*
X172432910Y-133548564D01*
X172242463Y-133618824D01*
X172068010Y-133722612D01*
X172063670Y-133726418D01*
X172063666Y-133726421D01*
X172043723Y-133743911D01*
X171915392Y-133856455D01*
X171789720Y-134015869D01*
X171787031Y-134020980D01*
X171787029Y-134020983D01*
X171774073Y-134045609D01*
X171695203Y-134195515D01*
X171635007Y-134389378D01*
X171611148Y-134590964D01*
X169164500Y-134590964D01*
X169164500Y-132050964D01*
X171611148Y-132050964D01*
X171624424Y-132253522D01*
X171625845Y-132259118D01*
X171625846Y-132259123D01*
X171646119Y-132338945D01*
X171674392Y-132450269D01*
X171676809Y-132455512D01*
X171714010Y-132536208D01*
X171759377Y-132634616D01*
X171876533Y-132800389D01*
X172021938Y-132942035D01*
X172190720Y-133054812D01*
X172196023Y-133057090D01*
X172196026Y-133057092D01*
X172327283Y-133113484D01*
X172377228Y-133134942D01*
X172450244Y-133151464D01*
X172569579Y-133178467D01*
X172569584Y-133178468D01*
X172575216Y-133179742D01*
X172580987Y-133179969D01*
X172580989Y-133179969D01*
X172640756Y-133182317D01*
X172778053Y-133187712D01*
X172885348Y-133172155D01*
X172973231Y-133159413D01*
X172973236Y-133159412D01*
X172978945Y-133158584D01*
X172984409Y-133156729D01*
X172984414Y-133156728D01*
X173165693Y-133095192D01*
X173165698Y-133095190D01*
X173171165Y-133093334D01*
X173348276Y-132994147D01*
X173387969Y-132961135D01*
X173499913Y-132868031D01*
X173504345Y-132864345D01*
X173634147Y-132708276D01*
X173733334Y-132531165D01*
X173735190Y-132525698D01*
X173735192Y-132525693D01*
X173796728Y-132344414D01*
X173796729Y-132344409D01*
X173798584Y-132338945D01*
X173799412Y-132333236D01*
X173799413Y-132333231D01*
X173827179Y-132141727D01*
X173827712Y-132138053D01*
X173829232Y-132080000D01*
X173810658Y-131877859D01*
X173809090Y-131872299D01*
X173757125Y-131688046D01*
X173757124Y-131688044D01*
X173755557Y-131682487D01*
X173744978Y-131661033D01*
X173668331Y-131505609D01*
X173665776Y-131500428D01*
X173544320Y-131337779D01*
X173400609Y-131204933D01*
X174155500Y-131204933D01*
X174155501Y-132955066D01*
X174170266Y-133029301D01*
X174177161Y-133039620D01*
X174177162Y-133039622D01*
X174217516Y-133100015D01*
X174226516Y-133113484D01*
X174310699Y-133169734D01*
X174384933Y-133184500D01*
X175259858Y-133184500D01*
X176135066Y-133184499D01*
X176170818Y-133177388D01*
X176197126Y-133172156D01*
X176197128Y-133172155D01*
X176209301Y-133169734D01*
X176219621Y-133162839D01*
X176219622Y-133162838D01*
X176283168Y-133120377D01*
X176293484Y-133113484D01*
X176349734Y-133029301D01*
X176364500Y-132955067D01*
X176364499Y-131204934D01*
X176364499Y-131204933D01*
X186855500Y-131204933D01*
X186855501Y-132955066D01*
X186870266Y-133029301D01*
X186877161Y-133039620D01*
X186877162Y-133039622D01*
X186917516Y-133100015D01*
X186926516Y-133113484D01*
X187010699Y-133169734D01*
X187084933Y-133184500D01*
X187959858Y-133184500D01*
X188835066Y-133184499D01*
X188870818Y-133177388D01*
X188897126Y-133172156D01*
X188897128Y-133172155D01*
X188909301Y-133169734D01*
X188919621Y-133162839D01*
X188919622Y-133162838D01*
X188983168Y-133120377D01*
X188993484Y-133113484D01*
X189049734Y-133029301D01*
X189064500Y-132955067D01*
X189064499Y-132050964D01*
X189391148Y-132050964D01*
X189404424Y-132253522D01*
X189405845Y-132259118D01*
X189405846Y-132259123D01*
X189426119Y-132338945D01*
X189454392Y-132450269D01*
X189456809Y-132455512D01*
X189494010Y-132536208D01*
X189539377Y-132634616D01*
X189656533Y-132800389D01*
X189801938Y-132942035D01*
X189970720Y-133054812D01*
X189976023Y-133057090D01*
X189976026Y-133057092D01*
X190107283Y-133113484D01*
X190157228Y-133134942D01*
X190230244Y-133151464D01*
X190349579Y-133178467D01*
X190349584Y-133178468D01*
X190355216Y-133179742D01*
X190360987Y-133179969D01*
X190360989Y-133179969D01*
X190420756Y-133182317D01*
X190558053Y-133187712D01*
X190665348Y-133172155D01*
X190753231Y-133159413D01*
X190753236Y-133159412D01*
X190758945Y-133158584D01*
X190764409Y-133156729D01*
X190764414Y-133156728D01*
X190945693Y-133095192D01*
X190945698Y-133095190D01*
X190951165Y-133093334D01*
X191128276Y-132994147D01*
X191167969Y-132961135D01*
X191279913Y-132868031D01*
X191284345Y-132864345D01*
X191414147Y-132708276D01*
X191513334Y-132531165D01*
X191515190Y-132525698D01*
X191515192Y-132525693D01*
X191576728Y-132344414D01*
X191576729Y-132344409D01*
X191578584Y-132338945D01*
X191579412Y-132333236D01*
X191579413Y-132333231D01*
X191607179Y-132141727D01*
X191607712Y-132138053D01*
X191609232Y-132080000D01*
X191590658Y-131877859D01*
X191589090Y-131872299D01*
X191537125Y-131688046D01*
X191537124Y-131688044D01*
X191535557Y-131682487D01*
X191524978Y-131661033D01*
X191448331Y-131505609D01*
X191445776Y-131500428D01*
X191324320Y-131337779D01*
X191175258Y-131199987D01*
X191170375Y-131196906D01*
X191170371Y-131196903D01*
X191008464Y-131094748D01*
X191003581Y-131091667D01*
X190815039Y-131016446D01*
X190809379Y-131015320D01*
X190809375Y-131015319D01*
X190621613Y-130977971D01*
X190621610Y-130977971D01*
X190615946Y-130976844D01*
X190610171Y-130976768D01*
X190610167Y-130976768D01*
X190508793Y-130975441D01*
X190412971Y-130974187D01*
X190407274Y-130975166D01*
X190407273Y-130975166D01*
X190319397Y-130990266D01*
X190212910Y-131008564D01*
X190022463Y-131078824D01*
X189848010Y-131182612D01*
X189843670Y-131186418D01*
X189843666Y-131186421D01*
X189699733Y-131312648D01*
X189695392Y-131316455D01*
X189569720Y-131475869D01*
X189567031Y-131480980D01*
X189567029Y-131480983D01*
X189554073Y-131505609D01*
X189475203Y-131655515D01*
X189415007Y-131849378D01*
X189391148Y-132050964D01*
X189064499Y-132050964D01*
X189064499Y-131204934D01*
X189049734Y-131130699D01*
X189023654Y-131091667D01*
X189000377Y-131056832D01*
X188993484Y-131046516D01*
X188909301Y-130990266D01*
X188835067Y-130975500D01*
X187960142Y-130975500D01*
X187084934Y-130975501D01*
X187049182Y-130982612D01*
X187022874Y-130987844D01*
X187022872Y-130987845D01*
X187010699Y-130990266D01*
X187000379Y-130997161D01*
X187000378Y-130997162D01*
X186939985Y-131037516D01*
X186926516Y-131046516D01*
X186870266Y-131130699D01*
X186855500Y-131204933D01*
X176364499Y-131204933D01*
X176349734Y-131130699D01*
X176323654Y-131091667D01*
X176300377Y-131056832D01*
X176293484Y-131046516D01*
X176209301Y-130990266D01*
X176135067Y-130975500D01*
X175260142Y-130975500D01*
X174384934Y-130975501D01*
X174349182Y-130982612D01*
X174322874Y-130987844D01*
X174322872Y-130987845D01*
X174310699Y-130990266D01*
X174300379Y-130997161D01*
X174300378Y-130997162D01*
X174239985Y-131037516D01*
X174226516Y-131046516D01*
X174170266Y-131130699D01*
X174155500Y-131204933D01*
X173400609Y-131204933D01*
X173395258Y-131199987D01*
X173390375Y-131196906D01*
X173390371Y-131196903D01*
X173228464Y-131094748D01*
X173223581Y-131091667D01*
X173035039Y-131016446D01*
X173029379Y-131015320D01*
X173029375Y-131015319D01*
X172841613Y-130977971D01*
X172841610Y-130977971D01*
X172835946Y-130976844D01*
X172830171Y-130976768D01*
X172830167Y-130976768D01*
X172728793Y-130975441D01*
X172632971Y-130974187D01*
X172627274Y-130975166D01*
X172627273Y-130975166D01*
X172539397Y-130990266D01*
X172432910Y-131008564D01*
X172242463Y-131078824D01*
X172068010Y-131182612D01*
X172063670Y-131186418D01*
X172063666Y-131186421D01*
X171919733Y-131312648D01*
X171915392Y-131316455D01*
X171789720Y-131475869D01*
X171787031Y-131480980D01*
X171787029Y-131480983D01*
X171774073Y-131505609D01*
X171695203Y-131655515D01*
X171635007Y-131849378D01*
X171611148Y-132050964D01*
X169164500Y-132050964D01*
X169164500Y-121890964D01*
X171611148Y-121890964D01*
X171624424Y-122093522D01*
X171625845Y-122099118D01*
X171625846Y-122099123D01*
X171646119Y-122178945D01*
X171674392Y-122290269D01*
X171676809Y-122295512D01*
X171714010Y-122376208D01*
X171759377Y-122474616D01*
X171876533Y-122640389D01*
X172021938Y-122782035D01*
X172190720Y-122894812D01*
X172196023Y-122897090D01*
X172196026Y-122897092D01*
X172284707Y-122935192D01*
X172377228Y-122974942D01*
X172450244Y-122991464D01*
X172569579Y-123018467D01*
X172569584Y-123018468D01*
X172575216Y-123019742D01*
X172580987Y-123019969D01*
X172580989Y-123019969D01*
X172640756Y-123022317D01*
X172778053Y-123027712D01*
X172878499Y-123013148D01*
X172973231Y-122999413D01*
X172973236Y-122999412D01*
X172978945Y-122998584D01*
X172984409Y-122996729D01*
X172984414Y-122996728D01*
X173165693Y-122935192D01*
X173165698Y-122935190D01*
X173171165Y-122933334D01*
X173348276Y-122834147D01*
X173410934Y-122782035D01*
X173499913Y-122708031D01*
X173504345Y-122704345D01*
X173634147Y-122548276D01*
X173733334Y-122371165D01*
X173735190Y-122365698D01*
X173735192Y-122365693D01*
X173796728Y-122184414D01*
X173796729Y-122184409D01*
X173798584Y-122178945D01*
X173799412Y-122173236D01*
X173799413Y-122173231D01*
X173827179Y-121981727D01*
X173827712Y-121978053D01*
X173829232Y-121920000D01*
X173826564Y-121890964D01*
X174151148Y-121890964D01*
X174164424Y-122093522D01*
X174165845Y-122099118D01*
X174165846Y-122099123D01*
X174186119Y-122178945D01*
X174214392Y-122290269D01*
X174216809Y-122295512D01*
X174254010Y-122376208D01*
X174299377Y-122474616D01*
X174416533Y-122640389D01*
X174561938Y-122782035D01*
X174730720Y-122894812D01*
X174736023Y-122897090D01*
X174736026Y-122897092D01*
X174824707Y-122935192D01*
X174917228Y-122974942D01*
X174990244Y-122991464D01*
X175109579Y-123018467D01*
X175109584Y-123018468D01*
X175115216Y-123019742D01*
X175120987Y-123019969D01*
X175120989Y-123019969D01*
X175180756Y-123022317D01*
X175318053Y-123027712D01*
X175418499Y-123013148D01*
X175513231Y-122999413D01*
X175513236Y-122999412D01*
X175518945Y-122998584D01*
X175524409Y-122996729D01*
X175524414Y-122996728D01*
X175705693Y-122935192D01*
X175705698Y-122935190D01*
X175711165Y-122933334D01*
X175888276Y-122834147D01*
X175950934Y-122782035D01*
X176039913Y-122708031D01*
X176044345Y-122704345D01*
X176174147Y-122548276D01*
X176273334Y-122371165D01*
X176275190Y-122365698D01*
X176275192Y-122365693D01*
X176336728Y-122184414D01*
X176336729Y-122184409D01*
X176338584Y-122178945D01*
X176339412Y-122173236D01*
X176339413Y-122173231D01*
X176367179Y-121981727D01*
X176367712Y-121978053D01*
X176369232Y-121920000D01*
X176366564Y-121890964D01*
X186851148Y-121890964D01*
X186864424Y-122093522D01*
X186865845Y-122099118D01*
X186865846Y-122099123D01*
X186886119Y-122178945D01*
X186914392Y-122290269D01*
X186916809Y-122295512D01*
X186954010Y-122376208D01*
X186999377Y-122474616D01*
X187116533Y-122640389D01*
X187261938Y-122782035D01*
X187430720Y-122894812D01*
X187436023Y-122897090D01*
X187436026Y-122897092D01*
X187524707Y-122935192D01*
X187617228Y-122974942D01*
X187690244Y-122991464D01*
X187809579Y-123018467D01*
X187809584Y-123018468D01*
X187815216Y-123019742D01*
X187820987Y-123019969D01*
X187820989Y-123019969D01*
X187880756Y-123022317D01*
X188018053Y-123027712D01*
X188118499Y-123013148D01*
X188213231Y-122999413D01*
X188213236Y-122999412D01*
X188218945Y-122998584D01*
X188224409Y-122996729D01*
X188224414Y-122996728D01*
X188405693Y-122935192D01*
X188405698Y-122935190D01*
X188411165Y-122933334D01*
X188588276Y-122834147D01*
X188650934Y-122782035D01*
X188739913Y-122708031D01*
X188744345Y-122704345D01*
X188874147Y-122548276D01*
X188973334Y-122371165D01*
X188975190Y-122365698D01*
X188975192Y-122365693D01*
X189036728Y-122184414D01*
X189036729Y-122184409D01*
X189038584Y-122178945D01*
X189039412Y-122173236D01*
X189039413Y-122173231D01*
X189067179Y-121981727D01*
X189067712Y-121978053D01*
X189069232Y-121920000D01*
X189066564Y-121890964D01*
X189391148Y-121890964D01*
X189404424Y-122093522D01*
X189405845Y-122099118D01*
X189405846Y-122099123D01*
X189426119Y-122178945D01*
X189454392Y-122290269D01*
X189456809Y-122295512D01*
X189494010Y-122376208D01*
X189539377Y-122474616D01*
X189656533Y-122640389D01*
X189801938Y-122782035D01*
X189970720Y-122894812D01*
X189976023Y-122897090D01*
X189976026Y-122897092D01*
X190064707Y-122935192D01*
X190157228Y-122974942D01*
X190230244Y-122991464D01*
X190349579Y-123018467D01*
X190349584Y-123018468D01*
X190355216Y-123019742D01*
X190360987Y-123019969D01*
X190360989Y-123019969D01*
X190420756Y-123022317D01*
X190558053Y-123027712D01*
X190658499Y-123013148D01*
X190753231Y-122999413D01*
X190753236Y-122999412D01*
X190758945Y-122998584D01*
X190764409Y-122996729D01*
X190764414Y-122996728D01*
X190945693Y-122935192D01*
X190945698Y-122935190D01*
X190951165Y-122933334D01*
X191128276Y-122834147D01*
X191190934Y-122782035D01*
X191279913Y-122708031D01*
X191284345Y-122704345D01*
X191414147Y-122548276D01*
X191513334Y-122371165D01*
X191515190Y-122365698D01*
X191515192Y-122365693D01*
X191576728Y-122184414D01*
X191576729Y-122184409D01*
X191578584Y-122178945D01*
X191579412Y-122173236D01*
X191579413Y-122173231D01*
X191607179Y-121981727D01*
X191607712Y-121978053D01*
X191609232Y-121920000D01*
X191590658Y-121717859D01*
X191589090Y-121712299D01*
X191537125Y-121528046D01*
X191537124Y-121528044D01*
X191535557Y-121522487D01*
X191524978Y-121501033D01*
X191448331Y-121345609D01*
X191445776Y-121340428D01*
X191324320Y-121177779D01*
X191175258Y-121039987D01*
X191170375Y-121036906D01*
X191170371Y-121036903D01*
X191008464Y-120934748D01*
X191003581Y-120931667D01*
X190815039Y-120856446D01*
X190809379Y-120855320D01*
X190809375Y-120855319D01*
X190621613Y-120817971D01*
X190621610Y-120817971D01*
X190615946Y-120816844D01*
X190610171Y-120816768D01*
X190610167Y-120816768D01*
X190508793Y-120815441D01*
X190412971Y-120814187D01*
X190407274Y-120815166D01*
X190407273Y-120815166D01*
X190218607Y-120847585D01*
X190212910Y-120848564D01*
X190022463Y-120918824D01*
X189848010Y-121022612D01*
X189843670Y-121026418D01*
X189843666Y-121026421D01*
X189823723Y-121043911D01*
X189695392Y-121156455D01*
X189569720Y-121315869D01*
X189567031Y-121320980D01*
X189567029Y-121320983D01*
X189554073Y-121345609D01*
X189475203Y-121495515D01*
X189415007Y-121689378D01*
X189391148Y-121890964D01*
X189066564Y-121890964D01*
X189050658Y-121717859D01*
X189049090Y-121712299D01*
X188997125Y-121528046D01*
X188997124Y-121528044D01*
X188995557Y-121522487D01*
X188984978Y-121501033D01*
X188908331Y-121345609D01*
X188905776Y-121340428D01*
X188784320Y-121177779D01*
X188635258Y-121039987D01*
X188630375Y-121036906D01*
X188630371Y-121036903D01*
X188468464Y-120934748D01*
X188463581Y-120931667D01*
X188275039Y-120856446D01*
X188269379Y-120855320D01*
X188269375Y-120855319D01*
X188081613Y-120817971D01*
X188081610Y-120817971D01*
X188075946Y-120816844D01*
X188070171Y-120816768D01*
X188070167Y-120816768D01*
X187968793Y-120815441D01*
X187872971Y-120814187D01*
X187867274Y-120815166D01*
X187867273Y-120815166D01*
X187678607Y-120847585D01*
X187672910Y-120848564D01*
X187482463Y-120918824D01*
X187308010Y-121022612D01*
X187303670Y-121026418D01*
X187303666Y-121026421D01*
X187283723Y-121043911D01*
X187155392Y-121156455D01*
X187029720Y-121315869D01*
X187027031Y-121320980D01*
X187027029Y-121320983D01*
X187014073Y-121345609D01*
X186935203Y-121495515D01*
X186875007Y-121689378D01*
X186851148Y-121890964D01*
X176366564Y-121890964D01*
X176350658Y-121717859D01*
X176349090Y-121712299D01*
X176297125Y-121528046D01*
X176297124Y-121528044D01*
X176295557Y-121522487D01*
X176284978Y-121501033D01*
X176208331Y-121345609D01*
X176205776Y-121340428D01*
X176084320Y-121177779D01*
X175935258Y-121039987D01*
X175930375Y-121036906D01*
X175930371Y-121036903D01*
X175768464Y-120934748D01*
X175763581Y-120931667D01*
X175575039Y-120856446D01*
X175569379Y-120855320D01*
X175569375Y-120855319D01*
X175381613Y-120817971D01*
X175381610Y-120817971D01*
X175375946Y-120816844D01*
X175370171Y-120816768D01*
X175370167Y-120816768D01*
X175268793Y-120815441D01*
X175172971Y-120814187D01*
X175167274Y-120815166D01*
X175167273Y-120815166D01*
X174978607Y-120847585D01*
X174972910Y-120848564D01*
X174782463Y-120918824D01*
X174608010Y-121022612D01*
X174603670Y-121026418D01*
X174603666Y-121026421D01*
X174583723Y-121043911D01*
X174455392Y-121156455D01*
X174329720Y-121315869D01*
X174327031Y-121320980D01*
X174327029Y-121320983D01*
X174314073Y-121345609D01*
X174235203Y-121495515D01*
X174175007Y-121689378D01*
X174151148Y-121890964D01*
X173826564Y-121890964D01*
X173810658Y-121717859D01*
X173809090Y-121712299D01*
X173757125Y-121528046D01*
X173757124Y-121528044D01*
X173755557Y-121522487D01*
X173744978Y-121501033D01*
X173668331Y-121345609D01*
X173665776Y-121340428D01*
X173544320Y-121177779D01*
X173395258Y-121039987D01*
X173390375Y-121036906D01*
X173390371Y-121036903D01*
X173228464Y-120934748D01*
X173223581Y-120931667D01*
X173035039Y-120856446D01*
X173029379Y-120855320D01*
X173029375Y-120855319D01*
X172841613Y-120817971D01*
X172841610Y-120817971D01*
X172835946Y-120816844D01*
X172830171Y-120816768D01*
X172830167Y-120816768D01*
X172728793Y-120815441D01*
X172632971Y-120814187D01*
X172627274Y-120815166D01*
X172627273Y-120815166D01*
X172438607Y-120847585D01*
X172432910Y-120848564D01*
X172242463Y-120918824D01*
X172068010Y-121022612D01*
X172063670Y-121026418D01*
X172063666Y-121026421D01*
X172043723Y-121043911D01*
X171915392Y-121156455D01*
X171789720Y-121315869D01*
X171787031Y-121320980D01*
X171787029Y-121320983D01*
X171774073Y-121345609D01*
X171695203Y-121495515D01*
X171635007Y-121689378D01*
X171611148Y-121890964D01*
X169164500Y-121890964D01*
X169164500Y-119646962D01*
X171648671Y-119646962D01*
X171673443Y-119744502D01*
X171677284Y-119755348D01*
X171757394Y-119929120D01*
X171763145Y-119939081D01*
X171873579Y-120095343D01*
X171881057Y-120104098D01*
X172018114Y-120237612D01*
X172027058Y-120244855D01*
X172186156Y-120351161D01*
X172196266Y-120356651D01*
X172372077Y-120432185D01*
X172383020Y-120435740D01*
X172448332Y-120450519D01*
X172462405Y-120449630D01*
X172465828Y-120440681D01*
X172974000Y-120440681D01*
X172977966Y-120454187D01*
X172986672Y-120455433D01*
X173165497Y-120394730D01*
X173175994Y-120390056D01*
X173342958Y-120296552D01*
X173352430Y-120290042D01*
X173499553Y-120167682D01*
X173507682Y-120159553D01*
X173630042Y-120012430D01*
X173636552Y-120002958D01*
X173730056Y-119835994D01*
X173734730Y-119825497D01*
X173795335Y-119646962D01*
X174188671Y-119646962D01*
X174213443Y-119744502D01*
X174217284Y-119755348D01*
X174297394Y-119929120D01*
X174303145Y-119939081D01*
X174413579Y-120095343D01*
X174421057Y-120104098D01*
X174558114Y-120237612D01*
X174567058Y-120244855D01*
X174726156Y-120351161D01*
X174736266Y-120356651D01*
X174912077Y-120432185D01*
X174923020Y-120435740D01*
X174988332Y-120450519D01*
X175002405Y-120449630D01*
X175005828Y-120440681D01*
X175514000Y-120440681D01*
X175517966Y-120454187D01*
X175526672Y-120455433D01*
X175705497Y-120394730D01*
X175715994Y-120390056D01*
X175882958Y-120296552D01*
X175892430Y-120290042D01*
X176039553Y-120167682D01*
X176047682Y-120159553D01*
X176170042Y-120012430D01*
X176176552Y-120002958D01*
X176270056Y-119835994D01*
X176274730Y-119825497D01*
X176335335Y-119646962D01*
X186888671Y-119646962D01*
X186913443Y-119744502D01*
X186917284Y-119755348D01*
X186997394Y-119929120D01*
X187003145Y-119939081D01*
X187113579Y-120095343D01*
X187121057Y-120104098D01*
X187258114Y-120237612D01*
X187267058Y-120244855D01*
X187426156Y-120351161D01*
X187436266Y-120356651D01*
X187612077Y-120432185D01*
X187623020Y-120435740D01*
X187688332Y-120450519D01*
X187702405Y-120449630D01*
X187705828Y-120440681D01*
X188214000Y-120440681D01*
X188217966Y-120454187D01*
X188226672Y-120455433D01*
X188405497Y-120394730D01*
X188415994Y-120390056D01*
X188582958Y-120296552D01*
X188592430Y-120290042D01*
X188739553Y-120167682D01*
X188747682Y-120159553D01*
X188870042Y-120012430D01*
X188876552Y-120002958D01*
X188970056Y-119835994D01*
X188974730Y-119825497D01*
X189035335Y-119646962D01*
X189428671Y-119646962D01*
X189453443Y-119744502D01*
X189457284Y-119755348D01*
X189537394Y-119929120D01*
X189543145Y-119939081D01*
X189653579Y-120095343D01*
X189661057Y-120104098D01*
X189798114Y-120237612D01*
X189807058Y-120244855D01*
X189966156Y-120351161D01*
X189976266Y-120356651D01*
X190152077Y-120432185D01*
X190163020Y-120435740D01*
X190228332Y-120450519D01*
X190242405Y-120449630D01*
X190245828Y-120440681D01*
X190754000Y-120440681D01*
X190757966Y-120454187D01*
X190766672Y-120455433D01*
X190945497Y-120394730D01*
X190955994Y-120390056D01*
X191122958Y-120296552D01*
X191132430Y-120290042D01*
X191279553Y-120167682D01*
X191287682Y-120159553D01*
X191410042Y-120012430D01*
X191416552Y-120002958D01*
X191510056Y-119835994D01*
X191514730Y-119825497D01*
X191575443Y-119646644D01*
X191574210Y-119637993D01*
X191560642Y-119634000D01*
X190772115Y-119634000D01*
X190756876Y-119638475D01*
X190755671Y-119639865D01*
X190754000Y-119647548D01*
X190754000Y-120440681D01*
X190245828Y-120440681D01*
X190246000Y-120440232D01*
X190246000Y-119652115D01*
X190241525Y-119636876D01*
X190240135Y-119635671D01*
X190232452Y-119634000D01*
X189443494Y-119634000D01*
X189429963Y-119637973D01*
X189428671Y-119646962D01*
X189035335Y-119646962D01*
X189035443Y-119646644D01*
X189034210Y-119637993D01*
X189020642Y-119634000D01*
X188232115Y-119634000D01*
X188216876Y-119638475D01*
X188215671Y-119639865D01*
X188214000Y-119647548D01*
X188214000Y-120440681D01*
X187705828Y-120440681D01*
X187706000Y-120440232D01*
X187706000Y-119652115D01*
X187701525Y-119636876D01*
X187700135Y-119635671D01*
X187692452Y-119634000D01*
X186903494Y-119634000D01*
X186889963Y-119637973D01*
X186888671Y-119646962D01*
X176335335Y-119646962D01*
X176335443Y-119646644D01*
X176334210Y-119637993D01*
X176320642Y-119634000D01*
X175532115Y-119634000D01*
X175516876Y-119638475D01*
X175515671Y-119639865D01*
X175514000Y-119647548D01*
X175514000Y-120440681D01*
X175005828Y-120440681D01*
X175006000Y-120440232D01*
X175006000Y-119652115D01*
X175001525Y-119636876D01*
X175000135Y-119635671D01*
X174992452Y-119634000D01*
X174203494Y-119634000D01*
X174189963Y-119637973D01*
X174188671Y-119646962D01*
X173795335Y-119646962D01*
X173795443Y-119646644D01*
X173794210Y-119637993D01*
X173780642Y-119634000D01*
X172992115Y-119634000D01*
X172976876Y-119638475D01*
X172975671Y-119639865D01*
X172974000Y-119647548D01*
X172974000Y-120440681D01*
X172465828Y-120440681D01*
X172466000Y-120440232D01*
X172466000Y-119652115D01*
X172461525Y-119636876D01*
X172460135Y-119635671D01*
X172452452Y-119634000D01*
X171663494Y-119634000D01*
X171649963Y-119637973D01*
X171648671Y-119646962D01*
X169164500Y-119646962D01*
X169164500Y-119122799D01*
X171647943Y-119122799D01*
X171654675Y-119126000D01*
X172447885Y-119126000D01*
X172463124Y-119121525D01*
X172464329Y-119120135D01*
X172466000Y-119112452D01*
X172466000Y-119107885D01*
X172974000Y-119107885D01*
X172978475Y-119123124D01*
X172979865Y-119124329D01*
X172987548Y-119126000D01*
X173777398Y-119126000D01*
X173788300Y-119122799D01*
X174187943Y-119122799D01*
X174194675Y-119126000D01*
X174987885Y-119126000D01*
X175003124Y-119121525D01*
X175004329Y-119120135D01*
X175006000Y-119112452D01*
X175006000Y-119107885D01*
X175514000Y-119107885D01*
X175518475Y-119123124D01*
X175519865Y-119124329D01*
X175527548Y-119126000D01*
X176317398Y-119126000D01*
X176328300Y-119122799D01*
X186887943Y-119122799D01*
X186894675Y-119126000D01*
X187687885Y-119126000D01*
X187703124Y-119121525D01*
X187704329Y-119120135D01*
X187706000Y-119112452D01*
X187706000Y-119107885D01*
X188214000Y-119107885D01*
X188218475Y-119123124D01*
X188219865Y-119124329D01*
X188227548Y-119126000D01*
X189017398Y-119126000D01*
X189028300Y-119122799D01*
X189427943Y-119122799D01*
X189434675Y-119126000D01*
X190227885Y-119126000D01*
X190243124Y-119121525D01*
X190244329Y-119120135D01*
X190246000Y-119112452D01*
X190246000Y-119107885D01*
X190754000Y-119107885D01*
X190758475Y-119123124D01*
X190759865Y-119124329D01*
X190767548Y-119126000D01*
X191557398Y-119126000D01*
X191570929Y-119122027D01*
X191572098Y-119113892D01*
X191536658Y-118988231D01*
X191532533Y-118977484D01*
X191447903Y-118805871D01*
X191441893Y-118796063D01*
X191327400Y-118642739D01*
X191319710Y-118634199D01*
X191179192Y-118504304D01*
X191170067Y-118497303D01*
X191008236Y-118395195D01*
X190997989Y-118389974D01*
X190820260Y-118319068D01*
X190809232Y-118315801D01*
X190771769Y-118308350D01*
X190758894Y-118309502D01*
X190754000Y-118324658D01*
X190754000Y-119107885D01*
X190246000Y-119107885D01*
X190246000Y-118321500D01*
X190242194Y-118308538D01*
X190227279Y-118306602D01*
X190218732Y-118308071D01*
X190207620Y-118311048D01*
X190028095Y-118377279D01*
X190017717Y-118382229D01*
X189853273Y-118480063D01*
X189843961Y-118486829D01*
X189700097Y-118612994D01*
X189692180Y-118621337D01*
X189573718Y-118771605D01*
X189567450Y-118781256D01*
X189478358Y-118950592D01*
X189473953Y-118961227D01*
X189428162Y-119108698D01*
X189427943Y-119122799D01*
X189028300Y-119122799D01*
X189030929Y-119122027D01*
X189032098Y-119113892D01*
X188996658Y-118988231D01*
X188992533Y-118977484D01*
X188907903Y-118805871D01*
X188901893Y-118796063D01*
X188787400Y-118642739D01*
X188779710Y-118634199D01*
X188639192Y-118504304D01*
X188630067Y-118497303D01*
X188468236Y-118395195D01*
X188457989Y-118389974D01*
X188280260Y-118319068D01*
X188269232Y-118315801D01*
X188231769Y-118308350D01*
X188218894Y-118309502D01*
X188214000Y-118324658D01*
X188214000Y-119107885D01*
X187706000Y-119107885D01*
X187706000Y-118321500D01*
X187702194Y-118308538D01*
X187687279Y-118306602D01*
X187678732Y-118308071D01*
X187667620Y-118311048D01*
X187488095Y-118377279D01*
X187477717Y-118382229D01*
X187313273Y-118480063D01*
X187303961Y-118486829D01*
X187160097Y-118612994D01*
X187152180Y-118621337D01*
X187033718Y-118771605D01*
X187027450Y-118781256D01*
X186938358Y-118950592D01*
X186933953Y-118961227D01*
X186888162Y-119108698D01*
X186887943Y-119122799D01*
X176328300Y-119122799D01*
X176330929Y-119122027D01*
X176332098Y-119113892D01*
X176296658Y-118988231D01*
X176292533Y-118977484D01*
X176207903Y-118805871D01*
X176201893Y-118796063D01*
X176087400Y-118642739D01*
X176079710Y-118634199D01*
X175939192Y-118504304D01*
X175930067Y-118497303D01*
X175768236Y-118395195D01*
X175757989Y-118389974D01*
X175580260Y-118319068D01*
X175569232Y-118315801D01*
X175531769Y-118308350D01*
X175518894Y-118309502D01*
X175514000Y-118324658D01*
X175514000Y-119107885D01*
X175006000Y-119107885D01*
X175006000Y-118321500D01*
X175002194Y-118308538D01*
X174987279Y-118306602D01*
X174978732Y-118308071D01*
X174967620Y-118311048D01*
X174788095Y-118377279D01*
X174777717Y-118382229D01*
X174613273Y-118480063D01*
X174603961Y-118486829D01*
X174460097Y-118612994D01*
X174452180Y-118621337D01*
X174333718Y-118771605D01*
X174327450Y-118781256D01*
X174238358Y-118950592D01*
X174233953Y-118961227D01*
X174188162Y-119108698D01*
X174187943Y-119122799D01*
X173788300Y-119122799D01*
X173790929Y-119122027D01*
X173792098Y-119113892D01*
X173756658Y-118988231D01*
X173752533Y-118977484D01*
X173667903Y-118805871D01*
X173661893Y-118796063D01*
X173547400Y-118642739D01*
X173539710Y-118634199D01*
X173399192Y-118504304D01*
X173390067Y-118497303D01*
X173228236Y-118395195D01*
X173217989Y-118389974D01*
X173040260Y-118319068D01*
X173029232Y-118315801D01*
X172991769Y-118308350D01*
X172978894Y-118309502D01*
X172974000Y-118324658D01*
X172974000Y-119107885D01*
X172466000Y-119107885D01*
X172466000Y-118321500D01*
X172462194Y-118308538D01*
X172447279Y-118306602D01*
X172438732Y-118308071D01*
X172427620Y-118311048D01*
X172248095Y-118377279D01*
X172237717Y-118382229D01*
X172073273Y-118480063D01*
X172063961Y-118486829D01*
X171920097Y-118612994D01*
X171912180Y-118621337D01*
X171793718Y-118771605D01*
X171787450Y-118781256D01*
X171698358Y-118950592D01*
X171693953Y-118961227D01*
X171648162Y-119108698D01*
X171647943Y-119122799D01*
X169164500Y-119122799D01*
X169164500Y-116810964D01*
X171611148Y-116810964D01*
X171624424Y-117013522D01*
X171625845Y-117019118D01*
X171625846Y-117019123D01*
X171646119Y-117098945D01*
X171674392Y-117210269D01*
X171676809Y-117215512D01*
X171714010Y-117296208D01*
X171759377Y-117394616D01*
X171876533Y-117560389D01*
X172021938Y-117702035D01*
X172190720Y-117814812D01*
X172196023Y-117817090D01*
X172196026Y-117817092D01*
X172284707Y-117855192D01*
X172377228Y-117894942D01*
X172450244Y-117911464D01*
X172569579Y-117938467D01*
X172569584Y-117938468D01*
X172575216Y-117939742D01*
X172580987Y-117939969D01*
X172580989Y-117939969D01*
X172640756Y-117942317D01*
X172778053Y-117947712D01*
X172878499Y-117933148D01*
X172973231Y-117919413D01*
X172973236Y-117919412D01*
X172978945Y-117918584D01*
X172984409Y-117916729D01*
X172984414Y-117916728D01*
X173165693Y-117855192D01*
X173165698Y-117855190D01*
X173171165Y-117853334D01*
X173348276Y-117754147D01*
X173410934Y-117702035D01*
X173499913Y-117628031D01*
X173504345Y-117624345D01*
X173634147Y-117468276D01*
X173733334Y-117291165D01*
X173735190Y-117285698D01*
X173735192Y-117285693D01*
X173796728Y-117104414D01*
X173796729Y-117104409D01*
X173798584Y-117098945D01*
X173799412Y-117093236D01*
X173799413Y-117093231D01*
X173827179Y-116901727D01*
X173827712Y-116898053D01*
X173829232Y-116840000D01*
X173826564Y-116810964D01*
X174151148Y-116810964D01*
X174164424Y-117013522D01*
X174165845Y-117019118D01*
X174165846Y-117019123D01*
X174186119Y-117098945D01*
X174214392Y-117210269D01*
X174216809Y-117215512D01*
X174254010Y-117296208D01*
X174299377Y-117394616D01*
X174416533Y-117560389D01*
X174561938Y-117702035D01*
X174730720Y-117814812D01*
X174736023Y-117817090D01*
X174736026Y-117817092D01*
X174824707Y-117855192D01*
X174917228Y-117894942D01*
X174990244Y-117911464D01*
X175109579Y-117938467D01*
X175109584Y-117938468D01*
X175115216Y-117939742D01*
X175120987Y-117939969D01*
X175120989Y-117939969D01*
X175180756Y-117942317D01*
X175318053Y-117947712D01*
X175418499Y-117933148D01*
X175513231Y-117919413D01*
X175513236Y-117919412D01*
X175518945Y-117918584D01*
X175524409Y-117916729D01*
X175524414Y-117916728D01*
X175705693Y-117855192D01*
X175705698Y-117855190D01*
X175711165Y-117853334D01*
X175888276Y-117754147D01*
X175950934Y-117702035D01*
X176039913Y-117628031D01*
X176044345Y-117624345D01*
X176174147Y-117468276D01*
X176273334Y-117291165D01*
X176275190Y-117285698D01*
X176275192Y-117285693D01*
X176336728Y-117104414D01*
X176336729Y-117104409D01*
X176338584Y-117098945D01*
X176339412Y-117093236D01*
X176339413Y-117093231D01*
X176367179Y-116901727D01*
X176367712Y-116898053D01*
X176369232Y-116840000D01*
X176366564Y-116810964D01*
X186851148Y-116810964D01*
X186864424Y-117013522D01*
X186865845Y-117019118D01*
X186865846Y-117019123D01*
X186886119Y-117098945D01*
X186914392Y-117210269D01*
X186916809Y-117215512D01*
X186954010Y-117296208D01*
X186999377Y-117394616D01*
X187116533Y-117560389D01*
X187261938Y-117702035D01*
X187430720Y-117814812D01*
X187436023Y-117817090D01*
X187436026Y-117817092D01*
X187524707Y-117855192D01*
X187617228Y-117894942D01*
X187690244Y-117911464D01*
X187809579Y-117938467D01*
X187809584Y-117938468D01*
X187815216Y-117939742D01*
X187820987Y-117939969D01*
X187820989Y-117939969D01*
X187880756Y-117942317D01*
X188018053Y-117947712D01*
X188118499Y-117933148D01*
X188213231Y-117919413D01*
X188213236Y-117919412D01*
X188218945Y-117918584D01*
X188224409Y-117916729D01*
X188224414Y-117916728D01*
X188405693Y-117855192D01*
X188405698Y-117855190D01*
X188411165Y-117853334D01*
X188588276Y-117754147D01*
X188650934Y-117702035D01*
X188739913Y-117628031D01*
X188744345Y-117624345D01*
X188874147Y-117468276D01*
X188973334Y-117291165D01*
X188975190Y-117285698D01*
X188975192Y-117285693D01*
X189036728Y-117104414D01*
X189036729Y-117104409D01*
X189038584Y-117098945D01*
X189039412Y-117093236D01*
X189039413Y-117093231D01*
X189067179Y-116901727D01*
X189067712Y-116898053D01*
X189069232Y-116840000D01*
X189066564Y-116810964D01*
X189391148Y-116810964D01*
X189404424Y-117013522D01*
X189405845Y-117019118D01*
X189405846Y-117019123D01*
X189426119Y-117098945D01*
X189454392Y-117210269D01*
X189456809Y-117215512D01*
X189494010Y-117296208D01*
X189539377Y-117394616D01*
X189656533Y-117560389D01*
X189801938Y-117702035D01*
X189970720Y-117814812D01*
X189976023Y-117817090D01*
X189976026Y-117817092D01*
X190064707Y-117855192D01*
X190157228Y-117894942D01*
X190230244Y-117911464D01*
X190349579Y-117938467D01*
X190349584Y-117938468D01*
X190355216Y-117939742D01*
X190360987Y-117939969D01*
X190360989Y-117939969D01*
X190420756Y-117942317D01*
X190558053Y-117947712D01*
X190658499Y-117933148D01*
X190753231Y-117919413D01*
X190753236Y-117919412D01*
X190758945Y-117918584D01*
X190764409Y-117916729D01*
X190764414Y-117916728D01*
X190945693Y-117855192D01*
X190945698Y-117855190D01*
X190951165Y-117853334D01*
X191128276Y-117754147D01*
X191190934Y-117702035D01*
X191279913Y-117628031D01*
X191284345Y-117624345D01*
X191414147Y-117468276D01*
X191513334Y-117291165D01*
X191515190Y-117285698D01*
X191515192Y-117285693D01*
X191576728Y-117104414D01*
X191576729Y-117104409D01*
X191578584Y-117098945D01*
X191579412Y-117093236D01*
X191579413Y-117093231D01*
X191607179Y-116901727D01*
X191607712Y-116898053D01*
X191609232Y-116840000D01*
X191590658Y-116637859D01*
X191589090Y-116632299D01*
X191537125Y-116448046D01*
X191537124Y-116448044D01*
X191535557Y-116442487D01*
X191524978Y-116421033D01*
X191448331Y-116265609D01*
X191445776Y-116260428D01*
X191324320Y-116097779D01*
X191175258Y-115959987D01*
X191170375Y-115956906D01*
X191170371Y-115956903D01*
X191008464Y-115854748D01*
X191003581Y-115851667D01*
X190815039Y-115776446D01*
X190809379Y-115775320D01*
X190809375Y-115775319D01*
X190621613Y-115737971D01*
X190621610Y-115737971D01*
X190615946Y-115736844D01*
X190610171Y-115736768D01*
X190610167Y-115736768D01*
X190508793Y-115735441D01*
X190412971Y-115734187D01*
X190407274Y-115735166D01*
X190407273Y-115735166D01*
X190218607Y-115767585D01*
X190212910Y-115768564D01*
X190022463Y-115838824D01*
X189848010Y-115942612D01*
X189843670Y-115946418D01*
X189843666Y-115946421D01*
X189823723Y-115963911D01*
X189695392Y-116076455D01*
X189569720Y-116235869D01*
X189567031Y-116240980D01*
X189567029Y-116240983D01*
X189554073Y-116265609D01*
X189475203Y-116415515D01*
X189415007Y-116609378D01*
X189391148Y-116810964D01*
X189066564Y-116810964D01*
X189050658Y-116637859D01*
X189049090Y-116632299D01*
X188997125Y-116448046D01*
X188997124Y-116448044D01*
X188995557Y-116442487D01*
X188984978Y-116421033D01*
X188908331Y-116265609D01*
X188905776Y-116260428D01*
X188784320Y-116097779D01*
X188635258Y-115959987D01*
X188630375Y-115956906D01*
X188630371Y-115956903D01*
X188468464Y-115854748D01*
X188463581Y-115851667D01*
X188275039Y-115776446D01*
X188269379Y-115775320D01*
X188269375Y-115775319D01*
X188081613Y-115737971D01*
X188081610Y-115737971D01*
X188075946Y-115736844D01*
X188070171Y-115736768D01*
X188070167Y-115736768D01*
X187968793Y-115735441D01*
X187872971Y-115734187D01*
X187867274Y-115735166D01*
X187867273Y-115735166D01*
X187678607Y-115767585D01*
X187672910Y-115768564D01*
X187482463Y-115838824D01*
X187308010Y-115942612D01*
X187303670Y-115946418D01*
X187303666Y-115946421D01*
X187283723Y-115963911D01*
X187155392Y-116076455D01*
X187029720Y-116235869D01*
X187027031Y-116240980D01*
X187027029Y-116240983D01*
X187014073Y-116265609D01*
X186935203Y-116415515D01*
X186875007Y-116609378D01*
X186851148Y-116810964D01*
X176366564Y-116810964D01*
X176350658Y-116637859D01*
X176349090Y-116632299D01*
X176297125Y-116448046D01*
X176297124Y-116448044D01*
X176295557Y-116442487D01*
X176284978Y-116421033D01*
X176208331Y-116265609D01*
X176205776Y-116260428D01*
X176084320Y-116097779D01*
X175935258Y-115959987D01*
X175930375Y-115956906D01*
X175930371Y-115956903D01*
X175768464Y-115854748D01*
X175763581Y-115851667D01*
X175575039Y-115776446D01*
X175569379Y-115775320D01*
X175569375Y-115775319D01*
X175381613Y-115737971D01*
X175381610Y-115737971D01*
X175375946Y-115736844D01*
X175370171Y-115736768D01*
X175370167Y-115736768D01*
X175268793Y-115735441D01*
X175172971Y-115734187D01*
X175167274Y-115735166D01*
X175167273Y-115735166D01*
X174978607Y-115767585D01*
X174972910Y-115768564D01*
X174782463Y-115838824D01*
X174608010Y-115942612D01*
X174603670Y-115946418D01*
X174603666Y-115946421D01*
X174583723Y-115963911D01*
X174455392Y-116076455D01*
X174329720Y-116235869D01*
X174327031Y-116240980D01*
X174327029Y-116240983D01*
X174314073Y-116265609D01*
X174235203Y-116415515D01*
X174175007Y-116609378D01*
X174151148Y-116810964D01*
X173826564Y-116810964D01*
X173810658Y-116637859D01*
X173809090Y-116632299D01*
X173757125Y-116448046D01*
X173757124Y-116448044D01*
X173755557Y-116442487D01*
X173744978Y-116421033D01*
X173668331Y-116265609D01*
X173665776Y-116260428D01*
X173544320Y-116097779D01*
X173395258Y-115959987D01*
X173390375Y-115956906D01*
X173390371Y-115956903D01*
X173228464Y-115854748D01*
X173223581Y-115851667D01*
X173035039Y-115776446D01*
X173029379Y-115775320D01*
X173029375Y-115775319D01*
X172841613Y-115737971D01*
X172841610Y-115737971D01*
X172835946Y-115736844D01*
X172830171Y-115736768D01*
X172830167Y-115736768D01*
X172728793Y-115735441D01*
X172632971Y-115734187D01*
X172627274Y-115735166D01*
X172627273Y-115735166D01*
X172438607Y-115767585D01*
X172432910Y-115768564D01*
X172242463Y-115838824D01*
X172068010Y-115942612D01*
X172063670Y-115946418D01*
X172063666Y-115946421D01*
X172043723Y-115963911D01*
X171915392Y-116076455D01*
X171789720Y-116235869D01*
X171787031Y-116240980D01*
X171787029Y-116240983D01*
X171774073Y-116265609D01*
X171695203Y-116415515D01*
X171635007Y-116609378D01*
X171611148Y-116810964D01*
X169164500Y-116810964D01*
X169164500Y-114270964D01*
X171611148Y-114270964D01*
X171624424Y-114473522D01*
X171625845Y-114479118D01*
X171625846Y-114479123D01*
X171646119Y-114558945D01*
X171674392Y-114670269D01*
X171676809Y-114675512D01*
X171714010Y-114756208D01*
X171759377Y-114854616D01*
X171876533Y-115020389D01*
X172021938Y-115162035D01*
X172190720Y-115274812D01*
X172196023Y-115277090D01*
X172196026Y-115277092D01*
X172284707Y-115315192D01*
X172377228Y-115354942D01*
X172450244Y-115371464D01*
X172569579Y-115398467D01*
X172569584Y-115398468D01*
X172575216Y-115399742D01*
X172580987Y-115399969D01*
X172580989Y-115399969D01*
X172640756Y-115402317D01*
X172778053Y-115407712D01*
X172878499Y-115393148D01*
X172973231Y-115379413D01*
X172973236Y-115379412D01*
X172978945Y-115378584D01*
X172984409Y-115376729D01*
X172984414Y-115376728D01*
X173165693Y-115315192D01*
X173165698Y-115315190D01*
X173171165Y-115313334D01*
X173348276Y-115214147D01*
X173410934Y-115162035D01*
X173499913Y-115088031D01*
X173504345Y-115084345D01*
X173634147Y-114928276D01*
X173733334Y-114751165D01*
X173735190Y-114745698D01*
X173735192Y-114745693D01*
X173796728Y-114564414D01*
X173796729Y-114564409D01*
X173798584Y-114558945D01*
X173799412Y-114553236D01*
X173799413Y-114553231D01*
X173827179Y-114361727D01*
X173827712Y-114358053D01*
X173829232Y-114300000D01*
X173826564Y-114270964D01*
X174151148Y-114270964D01*
X174164424Y-114473522D01*
X174165845Y-114479118D01*
X174165846Y-114479123D01*
X174186119Y-114558945D01*
X174214392Y-114670269D01*
X174216809Y-114675512D01*
X174254010Y-114756208D01*
X174299377Y-114854616D01*
X174416533Y-115020389D01*
X174561938Y-115162035D01*
X174730720Y-115274812D01*
X174736023Y-115277090D01*
X174736026Y-115277092D01*
X174824707Y-115315192D01*
X174917228Y-115354942D01*
X174990244Y-115371464D01*
X175109579Y-115398467D01*
X175109584Y-115398468D01*
X175115216Y-115399742D01*
X175120987Y-115399969D01*
X175120989Y-115399969D01*
X175180756Y-115402317D01*
X175318053Y-115407712D01*
X175418499Y-115393148D01*
X175513231Y-115379413D01*
X175513236Y-115379412D01*
X175518945Y-115378584D01*
X175524409Y-115376729D01*
X175524414Y-115376728D01*
X175705693Y-115315192D01*
X175705698Y-115315190D01*
X175711165Y-115313334D01*
X175888276Y-115214147D01*
X175950934Y-115162035D01*
X176039913Y-115088031D01*
X176044345Y-115084345D01*
X176174147Y-114928276D01*
X176273334Y-114751165D01*
X176275190Y-114745698D01*
X176275192Y-114745693D01*
X176336728Y-114564414D01*
X176336729Y-114564409D01*
X176338584Y-114558945D01*
X176339412Y-114553236D01*
X176339413Y-114553231D01*
X176367179Y-114361727D01*
X176367712Y-114358053D01*
X176369232Y-114300000D01*
X176366564Y-114270964D01*
X186851148Y-114270964D01*
X186864424Y-114473522D01*
X186865845Y-114479118D01*
X186865846Y-114479123D01*
X186886119Y-114558945D01*
X186914392Y-114670269D01*
X186916809Y-114675512D01*
X186954010Y-114756208D01*
X186999377Y-114854616D01*
X187116533Y-115020389D01*
X187261938Y-115162035D01*
X187430720Y-115274812D01*
X187436023Y-115277090D01*
X187436026Y-115277092D01*
X187524707Y-115315192D01*
X187617228Y-115354942D01*
X187690244Y-115371464D01*
X187809579Y-115398467D01*
X187809584Y-115398468D01*
X187815216Y-115399742D01*
X187820987Y-115399969D01*
X187820989Y-115399969D01*
X187880756Y-115402317D01*
X188018053Y-115407712D01*
X188118499Y-115393148D01*
X188213231Y-115379413D01*
X188213236Y-115379412D01*
X188218945Y-115378584D01*
X188224409Y-115376729D01*
X188224414Y-115376728D01*
X188405693Y-115315192D01*
X188405698Y-115315190D01*
X188411165Y-115313334D01*
X188588276Y-115214147D01*
X188650934Y-115162035D01*
X188739913Y-115088031D01*
X188744345Y-115084345D01*
X188874147Y-114928276D01*
X188973334Y-114751165D01*
X188975190Y-114745698D01*
X188975192Y-114745693D01*
X189036728Y-114564414D01*
X189036729Y-114564409D01*
X189038584Y-114558945D01*
X189039412Y-114553236D01*
X189039413Y-114553231D01*
X189067179Y-114361727D01*
X189067712Y-114358053D01*
X189069232Y-114300000D01*
X189066564Y-114270964D01*
X189391148Y-114270964D01*
X189404424Y-114473522D01*
X189405845Y-114479118D01*
X189405846Y-114479123D01*
X189426119Y-114558945D01*
X189454392Y-114670269D01*
X189456809Y-114675512D01*
X189494010Y-114756208D01*
X189539377Y-114854616D01*
X189656533Y-115020389D01*
X189801938Y-115162035D01*
X189970720Y-115274812D01*
X189976023Y-115277090D01*
X189976026Y-115277092D01*
X190064707Y-115315192D01*
X190157228Y-115354942D01*
X190230244Y-115371464D01*
X190349579Y-115398467D01*
X190349584Y-115398468D01*
X190355216Y-115399742D01*
X190360987Y-115399969D01*
X190360989Y-115399969D01*
X190420756Y-115402317D01*
X190558053Y-115407712D01*
X190658499Y-115393148D01*
X190753231Y-115379413D01*
X190753236Y-115379412D01*
X190758945Y-115378584D01*
X190764409Y-115376729D01*
X190764414Y-115376728D01*
X190945693Y-115315192D01*
X190945698Y-115315190D01*
X190951165Y-115313334D01*
X191128276Y-115214147D01*
X191190934Y-115162035D01*
X191279913Y-115088031D01*
X191284345Y-115084345D01*
X191414147Y-114928276D01*
X191513334Y-114751165D01*
X191515190Y-114745698D01*
X191515192Y-114745693D01*
X191576728Y-114564414D01*
X191576729Y-114564409D01*
X191578584Y-114558945D01*
X191579412Y-114553236D01*
X191579413Y-114553231D01*
X191607179Y-114361727D01*
X191607712Y-114358053D01*
X191609232Y-114300000D01*
X191590658Y-114097859D01*
X191589090Y-114092299D01*
X191537125Y-113908046D01*
X191537124Y-113908044D01*
X191535557Y-113902487D01*
X191524978Y-113881033D01*
X191448331Y-113725609D01*
X191445776Y-113720428D01*
X191324320Y-113557779D01*
X191175258Y-113419987D01*
X191170375Y-113416906D01*
X191170371Y-113416903D01*
X191008464Y-113314748D01*
X191003581Y-113311667D01*
X190815039Y-113236446D01*
X190809379Y-113235320D01*
X190809375Y-113235319D01*
X190621613Y-113197971D01*
X190621610Y-113197971D01*
X190615946Y-113196844D01*
X190610171Y-113196768D01*
X190610167Y-113196768D01*
X190508793Y-113195441D01*
X190412971Y-113194187D01*
X190407274Y-113195166D01*
X190407273Y-113195166D01*
X190218607Y-113227585D01*
X190212910Y-113228564D01*
X190022463Y-113298824D01*
X189848010Y-113402612D01*
X189843670Y-113406418D01*
X189843666Y-113406421D01*
X189823723Y-113423911D01*
X189695392Y-113536455D01*
X189569720Y-113695869D01*
X189567031Y-113700980D01*
X189567029Y-113700983D01*
X189554073Y-113725609D01*
X189475203Y-113875515D01*
X189415007Y-114069378D01*
X189391148Y-114270964D01*
X189066564Y-114270964D01*
X189050658Y-114097859D01*
X189049090Y-114092299D01*
X188997125Y-113908046D01*
X188997124Y-113908044D01*
X188995557Y-113902487D01*
X188984978Y-113881033D01*
X188908331Y-113725609D01*
X188905776Y-113720428D01*
X188784320Y-113557779D01*
X188635258Y-113419987D01*
X188630375Y-113416906D01*
X188630371Y-113416903D01*
X188468464Y-113314748D01*
X188463581Y-113311667D01*
X188275039Y-113236446D01*
X188269379Y-113235320D01*
X188269375Y-113235319D01*
X188081613Y-113197971D01*
X188081610Y-113197971D01*
X188075946Y-113196844D01*
X188070171Y-113196768D01*
X188070167Y-113196768D01*
X187968793Y-113195441D01*
X187872971Y-113194187D01*
X187867274Y-113195166D01*
X187867273Y-113195166D01*
X187678607Y-113227585D01*
X187672910Y-113228564D01*
X187482463Y-113298824D01*
X187308010Y-113402612D01*
X187303670Y-113406418D01*
X187303666Y-113406421D01*
X187283723Y-113423911D01*
X187155392Y-113536455D01*
X187029720Y-113695869D01*
X187027031Y-113700980D01*
X187027029Y-113700983D01*
X187014073Y-113725609D01*
X186935203Y-113875515D01*
X186875007Y-114069378D01*
X186851148Y-114270964D01*
X176366564Y-114270964D01*
X176350658Y-114097859D01*
X176349090Y-114092299D01*
X176297125Y-113908046D01*
X176297124Y-113908044D01*
X176295557Y-113902487D01*
X176284978Y-113881033D01*
X176208331Y-113725609D01*
X176205776Y-113720428D01*
X176084320Y-113557779D01*
X175935258Y-113419987D01*
X175930375Y-113416906D01*
X175930371Y-113416903D01*
X175768464Y-113314748D01*
X175763581Y-113311667D01*
X175575039Y-113236446D01*
X175569379Y-113235320D01*
X175569375Y-113235319D01*
X175381613Y-113197971D01*
X175381610Y-113197971D01*
X175375946Y-113196844D01*
X175370171Y-113196768D01*
X175370167Y-113196768D01*
X175268793Y-113195441D01*
X175172971Y-113194187D01*
X175167274Y-113195166D01*
X175167273Y-113195166D01*
X174978607Y-113227585D01*
X174972910Y-113228564D01*
X174782463Y-113298824D01*
X174608010Y-113402612D01*
X174603670Y-113406418D01*
X174603666Y-113406421D01*
X174583723Y-113423911D01*
X174455392Y-113536455D01*
X174329720Y-113695869D01*
X174327031Y-113700980D01*
X174327029Y-113700983D01*
X174314073Y-113725609D01*
X174235203Y-113875515D01*
X174175007Y-114069378D01*
X174151148Y-114270964D01*
X173826564Y-114270964D01*
X173810658Y-114097859D01*
X173809090Y-114092299D01*
X173757125Y-113908046D01*
X173757124Y-113908044D01*
X173755557Y-113902487D01*
X173744978Y-113881033D01*
X173668331Y-113725609D01*
X173665776Y-113720428D01*
X173544320Y-113557779D01*
X173395258Y-113419987D01*
X173390375Y-113416906D01*
X173390371Y-113416903D01*
X173228464Y-113314748D01*
X173223581Y-113311667D01*
X173035039Y-113236446D01*
X173029379Y-113235320D01*
X173029375Y-113235319D01*
X172841613Y-113197971D01*
X172841610Y-113197971D01*
X172835946Y-113196844D01*
X172830171Y-113196768D01*
X172830167Y-113196768D01*
X172728793Y-113195441D01*
X172632971Y-113194187D01*
X172627274Y-113195166D01*
X172627273Y-113195166D01*
X172438607Y-113227585D01*
X172432910Y-113228564D01*
X172242463Y-113298824D01*
X172068010Y-113402612D01*
X172063670Y-113406418D01*
X172063666Y-113406421D01*
X172043723Y-113423911D01*
X171915392Y-113536455D01*
X171789720Y-113695869D01*
X171787031Y-113700980D01*
X171787029Y-113700983D01*
X171774073Y-113725609D01*
X171695203Y-113875515D01*
X171635007Y-114069378D01*
X171611148Y-114270964D01*
X169164500Y-114270964D01*
X169164500Y-111730964D01*
X171611148Y-111730964D01*
X171624424Y-111933522D01*
X171625845Y-111939118D01*
X171625846Y-111939123D01*
X171646119Y-112018945D01*
X171674392Y-112130269D01*
X171676809Y-112135512D01*
X171714010Y-112216208D01*
X171759377Y-112314616D01*
X171876533Y-112480389D01*
X172021938Y-112622035D01*
X172190720Y-112734812D01*
X172196023Y-112737090D01*
X172196026Y-112737092D01*
X172284707Y-112775192D01*
X172377228Y-112814942D01*
X172450244Y-112831464D01*
X172569579Y-112858467D01*
X172569584Y-112858468D01*
X172575216Y-112859742D01*
X172580987Y-112859969D01*
X172580989Y-112859969D01*
X172640756Y-112862317D01*
X172778053Y-112867712D01*
X172878499Y-112853148D01*
X172973231Y-112839413D01*
X172973236Y-112839412D01*
X172978945Y-112838584D01*
X172984409Y-112836729D01*
X172984414Y-112836728D01*
X173165693Y-112775192D01*
X173165698Y-112775190D01*
X173171165Y-112773334D01*
X173348276Y-112674147D01*
X173410934Y-112622035D01*
X173499913Y-112548031D01*
X173504345Y-112544345D01*
X173634147Y-112388276D01*
X173733334Y-112211165D01*
X173735190Y-112205698D01*
X173735192Y-112205693D01*
X173796728Y-112024414D01*
X173796729Y-112024409D01*
X173798584Y-112018945D01*
X173799412Y-112013236D01*
X173799413Y-112013231D01*
X173827179Y-111821727D01*
X173827712Y-111818053D01*
X173829232Y-111760000D01*
X173826564Y-111730964D01*
X174151148Y-111730964D01*
X174164424Y-111933522D01*
X174165845Y-111939118D01*
X174165846Y-111939123D01*
X174186119Y-112018945D01*
X174214392Y-112130269D01*
X174216809Y-112135512D01*
X174254010Y-112216208D01*
X174299377Y-112314616D01*
X174416533Y-112480389D01*
X174561938Y-112622035D01*
X174730720Y-112734812D01*
X174736023Y-112737090D01*
X174736026Y-112737092D01*
X174824707Y-112775192D01*
X174917228Y-112814942D01*
X174990244Y-112831464D01*
X175109579Y-112858467D01*
X175109584Y-112858468D01*
X175115216Y-112859742D01*
X175120987Y-112859969D01*
X175120989Y-112859969D01*
X175180756Y-112862317D01*
X175318053Y-112867712D01*
X175418499Y-112853148D01*
X175513231Y-112839413D01*
X175513236Y-112839412D01*
X175518945Y-112838584D01*
X175524409Y-112836729D01*
X175524414Y-112836728D01*
X175705693Y-112775192D01*
X175705698Y-112775190D01*
X175711165Y-112773334D01*
X175888276Y-112674147D01*
X175950934Y-112622035D01*
X176039913Y-112548031D01*
X176044345Y-112544345D01*
X176174147Y-112388276D01*
X176273334Y-112211165D01*
X176275190Y-112205698D01*
X176275192Y-112205693D01*
X176336728Y-112024414D01*
X176336729Y-112024409D01*
X176338584Y-112018945D01*
X176339412Y-112013236D01*
X176339413Y-112013231D01*
X176367179Y-111821727D01*
X176367712Y-111818053D01*
X176369232Y-111760000D01*
X176366564Y-111730964D01*
X186851148Y-111730964D01*
X186864424Y-111933522D01*
X186865845Y-111939118D01*
X186865846Y-111939123D01*
X186886119Y-112018945D01*
X186914392Y-112130269D01*
X186916809Y-112135512D01*
X186954010Y-112216208D01*
X186999377Y-112314616D01*
X187116533Y-112480389D01*
X187261938Y-112622035D01*
X187430720Y-112734812D01*
X187436023Y-112737090D01*
X187436026Y-112737092D01*
X187524707Y-112775192D01*
X187617228Y-112814942D01*
X187690244Y-112831464D01*
X187809579Y-112858467D01*
X187809584Y-112858468D01*
X187815216Y-112859742D01*
X187820987Y-112859969D01*
X187820989Y-112859969D01*
X187880756Y-112862317D01*
X188018053Y-112867712D01*
X188118499Y-112853148D01*
X188213231Y-112839413D01*
X188213236Y-112839412D01*
X188218945Y-112838584D01*
X188224409Y-112836729D01*
X188224414Y-112836728D01*
X188405693Y-112775192D01*
X188405698Y-112775190D01*
X188411165Y-112773334D01*
X188588276Y-112674147D01*
X188650934Y-112622035D01*
X188739913Y-112548031D01*
X188744345Y-112544345D01*
X188874147Y-112388276D01*
X188973334Y-112211165D01*
X188975190Y-112205698D01*
X188975192Y-112205693D01*
X189036728Y-112024414D01*
X189036729Y-112024409D01*
X189038584Y-112018945D01*
X189039412Y-112013236D01*
X189039413Y-112013231D01*
X189067179Y-111821727D01*
X189067712Y-111818053D01*
X189069232Y-111760000D01*
X189066564Y-111730964D01*
X189391148Y-111730964D01*
X189404424Y-111933522D01*
X189405845Y-111939118D01*
X189405846Y-111939123D01*
X189426119Y-112018945D01*
X189454392Y-112130269D01*
X189456809Y-112135512D01*
X189494010Y-112216208D01*
X189539377Y-112314616D01*
X189656533Y-112480389D01*
X189801938Y-112622035D01*
X189970720Y-112734812D01*
X189976023Y-112737090D01*
X189976026Y-112737092D01*
X190064707Y-112775192D01*
X190157228Y-112814942D01*
X190230244Y-112831464D01*
X190349579Y-112858467D01*
X190349584Y-112858468D01*
X190355216Y-112859742D01*
X190360987Y-112859969D01*
X190360989Y-112859969D01*
X190420756Y-112862317D01*
X190558053Y-112867712D01*
X190658499Y-112853148D01*
X190753231Y-112839413D01*
X190753236Y-112839412D01*
X190758945Y-112838584D01*
X190764409Y-112836729D01*
X190764414Y-112836728D01*
X190945693Y-112775192D01*
X190945698Y-112775190D01*
X190951165Y-112773334D01*
X191128276Y-112674147D01*
X191190934Y-112622035D01*
X191279913Y-112548031D01*
X191284345Y-112544345D01*
X191414147Y-112388276D01*
X191513334Y-112211165D01*
X191515190Y-112205698D01*
X191515192Y-112205693D01*
X191576728Y-112024414D01*
X191576729Y-112024409D01*
X191578584Y-112018945D01*
X191579412Y-112013236D01*
X191579413Y-112013231D01*
X191607179Y-111821727D01*
X191607712Y-111818053D01*
X191609232Y-111760000D01*
X191590658Y-111557859D01*
X191589090Y-111552299D01*
X191537125Y-111368046D01*
X191537124Y-111368044D01*
X191535557Y-111362487D01*
X191524978Y-111341033D01*
X191448331Y-111185609D01*
X191445776Y-111180428D01*
X191324320Y-111017779D01*
X191175258Y-110879987D01*
X191170375Y-110876906D01*
X191170371Y-110876903D01*
X191008464Y-110774748D01*
X191003581Y-110771667D01*
X190815039Y-110696446D01*
X190809379Y-110695320D01*
X190809375Y-110695319D01*
X190621613Y-110657971D01*
X190621610Y-110657971D01*
X190615946Y-110656844D01*
X190610171Y-110656768D01*
X190610167Y-110656768D01*
X190508793Y-110655441D01*
X190412971Y-110654187D01*
X190407274Y-110655166D01*
X190407273Y-110655166D01*
X190218607Y-110687585D01*
X190212910Y-110688564D01*
X190022463Y-110758824D01*
X189848010Y-110862612D01*
X189843670Y-110866418D01*
X189843666Y-110866421D01*
X189823723Y-110883911D01*
X189695392Y-110996455D01*
X189569720Y-111155869D01*
X189567031Y-111160980D01*
X189567029Y-111160983D01*
X189554073Y-111185609D01*
X189475203Y-111335515D01*
X189415007Y-111529378D01*
X189391148Y-111730964D01*
X189066564Y-111730964D01*
X189050658Y-111557859D01*
X189049090Y-111552299D01*
X188997125Y-111368046D01*
X188997124Y-111368044D01*
X188995557Y-111362487D01*
X188984978Y-111341033D01*
X188908331Y-111185609D01*
X188905776Y-111180428D01*
X188784320Y-111017779D01*
X188635258Y-110879987D01*
X188630375Y-110876906D01*
X188630371Y-110876903D01*
X188468464Y-110774748D01*
X188463581Y-110771667D01*
X188275039Y-110696446D01*
X188269379Y-110695320D01*
X188269375Y-110695319D01*
X188081613Y-110657971D01*
X188081610Y-110657971D01*
X188075946Y-110656844D01*
X188070171Y-110656768D01*
X188070167Y-110656768D01*
X187968793Y-110655441D01*
X187872971Y-110654187D01*
X187867274Y-110655166D01*
X187867273Y-110655166D01*
X187678607Y-110687585D01*
X187672910Y-110688564D01*
X187482463Y-110758824D01*
X187308010Y-110862612D01*
X187303670Y-110866418D01*
X187303666Y-110866421D01*
X187283723Y-110883911D01*
X187155392Y-110996455D01*
X187029720Y-111155869D01*
X187027031Y-111160980D01*
X187027029Y-111160983D01*
X187014073Y-111185609D01*
X186935203Y-111335515D01*
X186875007Y-111529378D01*
X186851148Y-111730964D01*
X176366564Y-111730964D01*
X176350658Y-111557859D01*
X176349090Y-111552299D01*
X176297125Y-111368046D01*
X176297124Y-111368044D01*
X176295557Y-111362487D01*
X176284978Y-111341033D01*
X176208331Y-111185609D01*
X176205776Y-111180428D01*
X176084320Y-111017779D01*
X175935258Y-110879987D01*
X175930375Y-110876906D01*
X175930371Y-110876903D01*
X175768464Y-110774748D01*
X175763581Y-110771667D01*
X175575039Y-110696446D01*
X175569379Y-110695320D01*
X175569375Y-110695319D01*
X175381613Y-110657971D01*
X175381610Y-110657971D01*
X175375946Y-110656844D01*
X175370171Y-110656768D01*
X175370167Y-110656768D01*
X175268793Y-110655441D01*
X175172971Y-110654187D01*
X175167274Y-110655166D01*
X175167273Y-110655166D01*
X174978607Y-110687585D01*
X174972910Y-110688564D01*
X174782463Y-110758824D01*
X174608010Y-110862612D01*
X174603670Y-110866418D01*
X174603666Y-110866421D01*
X174583723Y-110883911D01*
X174455392Y-110996455D01*
X174329720Y-111155869D01*
X174327031Y-111160980D01*
X174327029Y-111160983D01*
X174314073Y-111185609D01*
X174235203Y-111335515D01*
X174175007Y-111529378D01*
X174151148Y-111730964D01*
X173826564Y-111730964D01*
X173810658Y-111557859D01*
X173809090Y-111552299D01*
X173757125Y-111368046D01*
X173757124Y-111368044D01*
X173755557Y-111362487D01*
X173744978Y-111341033D01*
X173668331Y-111185609D01*
X173665776Y-111180428D01*
X173544320Y-111017779D01*
X173395258Y-110879987D01*
X173390375Y-110876906D01*
X173390371Y-110876903D01*
X173228464Y-110774748D01*
X173223581Y-110771667D01*
X173035039Y-110696446D01*
X173029379Y-110695320D01*
X173029375Y-110695319D01*
X172841613Y-110657971D01*
X172841610Y-110657971D01*
X172835946Y-110656844D01*
X172830171Y-110656768D01*
X172830167Y-110656768D01*
X172728793Y-110655441D01*
X172632971Y-110654187D01*
X172627274Y-110655166D01*
X172627273Y-110655166D01*
X172438607Y-110687585D01*
X172432910Y-110688564D01*
X172242463Y-110758824D01*
X172068010Y-110862612D01*
X172063670Y-110866418D01*
X172063666Y-110866421D01*
X172043723Y-110883911D01*
X171915392Y-110996455D01*
X171789720Y-111155869D01*
X171787031Y-111160980D01*
X171787029Y-111160983D01*
X171774073Y-111185609D01*
X171695203Y-111335515D01*
X171635007Y-111529378D01*
X171611148Y-111730964D01*
X169164500Y-111730964D01*
X169164500Y-109190964D01*
X171611148Y-109190964D01*
X171624424Y-109393522D01*
X171625845Y-109399118D01*
X171625846Y-109399123D01*
X171646119Y-109478945D01*
X171674392Y-109590269D01*
X171676809Y-109595512D01*
X171714010Y-109676208D01*
X171759377Y-109774616D01*
X171876533Y-109940389D01*
X172021938Y-110082035D01*
X172190720Y-110194812D01*
X172196023Y-110197090D01*
X172196026Y-110197092D01*
X172327283Y-110253484D01*
X172377228Y-110274942D01*
X172450244Y-110291464D01*
X172569579Y-110318467D01*
X172569584Y-110318468D01*
X172575216Y-110319742D01*
X172580987Y-110319969D01*
X172580989Y-110319969D01*
X172640756Y-110322317D01*
X172778053Y-110327712D01*
X172885348Y-110312155D01*
X172973231Y-110299413D01*
X172973236Y-110299412D01*
X172978945Y-110298584D01*
X172984409Y-110296729D01*
X172984414Y-110296728D01*
X173165693Y-110235192D01*
X173165698Y-110235190D01*
X173171165Y-110233334D01*
X173348276Y-110134147D01*
X173387969Y-110101135D01*
X173499913Y-110008031D01*
X173504345Y-110004345D01*
X173634147Y-109848276D01*
X173733334Y-109671165D01*
X173735190Y-109665698D01*
X173735192Y-109665693D01*
X173796728Y-109484414D01*
X173796729Y-109484409D01*
X173798584Y-109478945D01*
X173799412Y-109473236D01*
X173799413Y-109473231D01*
X173827179Y-109281727D01*
X173827712Y-109278053D01*
X173829232Y-109220000D01*
X173810658Y-109017859D01*
X173809090Y-109012299D01*
X173757125Y-108828046D01*
X173757124Y-108828044D01*
X173755557Y-108822487D01*
X173744978Y-108801033D01*
X173668331Y-108645609D01*
X173665776Y-108640428D01*
X173544320Y-108477779D01*
X173400609Y-108344933D01*
X174155500Y-108344933D01*
X174155501Y-110095066D01*
X174170266Y-110169301D01*
X174177161Y-110179620D01*
X174177162Y-110179622D01*
X174217516Y-110240015D01*
X174226516Y-110253484D01*
X174310699Y-110309734D01*
X174384933Y-110324500D01*
X175259858Y-110324500D01*
X176135066Y-110324499D01*
X176170818Y-110317388D01*
X176197126Y-110312156D01*
X176197128Y-110312155D01*
X176209301Y-110309734D01*
X176219621Y-110302839D01*
X176219622Y-110302838D01*
X176283168Y-110260377D01*
X176293484Y-110253484D01*
X176349734Y-110169301D01*
X176364500Y-110095067D01*
X176364499Y-108344934D01*
X176364499Y-108344933D01*
X186855500Y-108344933D01*
X186855501Y-110095066D01*
X186870266Y-110169301D01*
X186877161Y-110179620D01*
X186877162Y-110179622D01*
X186917516Y-110240015D01*
X186926516Y-110253484D01*
X187010699Y-110309734D01*
X187084933Y-110324500D01*
X187959858Y-110324500D01*
X188835066Y-110324499D01*
X188870818Y-110317388D01*
X188897126Y-110312156D01*
X188897128Y-110312155D01*
X188909301Y-110309734D01*
X188919621Y-110302839D01*
X188919622Y-110302838D01*
X188983168Y-110260377D01*
X188993484Y-110253484D01*
X189049734Y-110169301D01*
X189064500Y-110095067D01*
X189064499Y-109190964D01*
X189391148Y-109190964D01*
X189404424Y-109393522D01*
X189405845Y-109399118D01*
X189405846Y-109399123D01*
X189426119Y-109478945D01*
X189454392Y-109590269D01*
X189456809Y-109595512D01*
X189494010Y-109676208D01*
X189539377Y-109774616D01*
X189656533Y-109940389D01*
X189801938Y-110082035D01*
X189970720Y-110194812D01*
X189976023Y-110197090D01*
X189976026Y-110197092D01*
X190107283Y-110253484D01*
X190157228Y-110274942D01*
X190230244Y-110291464D01*
X190349579Y-110318467D01*
X190349584Y-110318468D01*
X190355216Y-110319742D01*
X190360987Y-110319969D01*
X190360989Y-110319969D01*
X190420756Y-110322317D01*
X190558053Y-110327712D01*
X190665348Y-110312155D01*
X190753231Y-110299413D01*
X190753236Y-110299412D01*
X190758945Y-110298584D01*
X190764409Y-110296729D01*
X190764414Y-110296728D01*
X190945693Y-110235192D01*
X190945698Y-110235190D01*
X190951165Y-110233334D01*
X191128276Y-110134147D01*
X191167969Y-110101135D01*
X191279913Y-110008031D01*
X191284345Y-110004345D01*
X191414147Y-109848276D01*
X191513334Y-109671165D01*
X191515190Y-109665698D01*
X191515192Y-109665693D01*
X191576728Y-109484414D01*
X191576729Y-109484409D01*
X191578584Y-109478945D01*
X191579412Y-109473236D01*
X191579413Y-109473231D01*
X191607179Y-109281727D01*
X191607712Y-109278053D01*
X191609232Y-109220000D01*
X191590658Y-109017859D01*
X191589090Y-109012299D01*
X191537125Y-108828046D01*
X191537124Y-108828044D01*
X191535557Y-108822487D01*
X191524978Y-108801033D01*
X191448331Y-108645609D01*
X191445776Y-108640428D01*
X191324320Y-108477779D01*
X191175258Y-108339987D01*
X191170375Y-108336906D01*
X191170371Y-108336903D01*
X191008464Y-108234748D01*
X191003581Y-108231667D01*
X190815039Y-108156446D01*
X190809379Y-108155320D01*
X190809375Y-108155319D01*
X190621613Y-108117971D01*
X190621610Y-108117971D01*
X190615946Y-108116844D01*
X190610171Y-108116768D01*
X190610167Y-108116768D01*
X190508793Y-108115441D01*
X190412971Y-108114187D01*
X190407274Y-108115166D01*
X190407273Y-108115166D01*
X190319397Y-108130266D01*
X190212910Y-108148564D01*
X190022463Y-108218824D01*
X189848010Y-108322612D01*
X189843670Y-108326418D01*
X189843666Y-108326421D01*
X189699733Y-108452648D01*
X189695392Y-108456455D01*
X189569720Y-108615869D01*
X189567031Y-108620980D01*
X189567029Y-108620983D01*
X189554073Y-108645609D01*
X189475203Y-108795515D01*
X189415007Y-108989378D01*
X189391148Y-109190964D01*
X189064499Y-109190964D01*
X189064499Y-108344934D01*
X189049734Y-108270699D01*
X189023654Y-108231667D01*
X189000377Y-108196832D01*
X188993484Y-108186516D01*
X188909301Y-108130266D01*
X188835067Y-108115500D01*
X187960142Y-108115500D01*
X187084934Y-108115501D01*
X187049182Y-108122612D01*
X187022874Y-108127844D01*
X187022872Y-108127845D01*
X187010699Y-108130266D01*
X187000379Y-108137161D01*
X187000378Y-108137162D01*
X186939985Y-108177516D01*
X186926516Y-108186516D01*
X186870266Y-108270699D01*
X186855500Y-108344933D01*
X176364499Y-108344933D01*
X176349734Y-108270699D01*
X176323654Y-108231667D01*
X176300377Y-108196832D01*
X176293484Y-108186516D01*
X176209301Y-108130266D01*
X176135067Y-108115500D01*
X175260142Y-108115500D01*
X174384934Y-108115501D01*
X174349182Y-108122612D01*
X174322874Y-108127844D01*
X174322872Y-108127845D01*
X174310699Y-108130266D01*
X174300379Y-108137161D01*
X174300378Y-108137162D01*
X174239985Y-108177516D01*
X174226516Y-108186516D01*
X174170266Y-108270699D01*
X174155500Y-108344933D01*
X173400609Y-108344933D01*
X173395258Y-108339987D01*
X173390375Y-108336906D01*
X173390371Y-108336903D01*
X173228464Y-108234748D01*
X173223581Y-108231667D01*
X173035039Y-108156446D01*
X173029379Y-108155320D01*
X173029375Y-108155319D01*
X172841613Y-108117971D01*
X172841610Y-108117971D01*
X172835946Y-108116844D01*
X172830171Y-108116768D01*
X172830167Y-108116768D01*
X172728793Y-108115441D01*
X172632971Y-108114187D01*
X172627274Y-108115166D01*
X172627273Y-108115166D01*
X172539397Y-108130266D01*
X172432910Y-108148564D01*
X172242463Y-108218824D01*
X172068010Y-108322612D01*
X172063670Y-108326418D01*
X172063666Y-108326421D01*
X171919733Y-108452648D01*
X171915392Y-108456455D01*
X171789720Y-108615869D01*
X171787031Y-108620980D01*
X171787029Y-108620983D01*
X171774073Y-108645609D01*
X171695203Y-108795515D01*
X171635007Y-108989378D01*
X171611148Y-109190964D01*
X169164500Y-109190964D01*
X169164500Y-105790500D01*
X169184502Y-105722379D01*
X169238158Y-105675886D01*
X169290500Y-105664500D01*
X200279500Y-105664500D01*
X200347621Y-105684502D01*
G37*
G04 #@! TD.AperFunction*
M02*
