G04 #@! TF.GenerationSoftware,KiCad,Pcbnew,(6.0.9)*
G04 #@! TF.CreationDate,2022-11-21T19:08:44+01:00*
G04 #@! TF.ProjectId,PMOD series resistor board,504d4f44-2073-4657-9269-657320726573,V1.0*
G04 #@! TF.SameCoordinates,Original*
G04 #@! TF.FileFunction,Soldermask,Top*
G04 #@! TF.FilePolarity,Negative*
%FSLAX46Y46*%
G04 Gerber Fmt 4.6, Leading zero omitted, Abs format (unit mm)*
G04 Created by KiCad (PCBNEW (6.0.9)) date 2022-11-21 19:08:44*
%MOMM*%
%LPD*%
G01*
G04 APERTURE LIST*
%ADD10R,0.800000X0.500000*%
%ADD11R,0.800000X0.400000*%
%ADD12O,1.700000X1.700000*%
%ADD13R,1.700000X1.700000*%
G04 APERTURE END LIST*
D10*
X180710000Y-132150000D03*
D11*
X180710000Y-132950000D03*
X180710000Y-133750000D03*
D10*
X180710000Y-134550000D03*
X182510000Y-134550000D03*
D11*
X182510000Y-133750000D03*
X182510000Y-132950000D03*
D10*
X182510000Y-132150000D03*
X182510000Y-137230000D03*
D11*
X182510000Y-138030000D03*
X182510000Y-138830000D03*
D10*
X182510000Y-139630000D03*
X180710000Y-139630000D03*
D11*
X180710000Y-138830000D03*
X180710000Y-138030000D03*
D10*
X180710000Y-137230000D03*
D12*
X190500000Y-144780000D03*
X190500000Y-142240000D03*
X190500000Y-139700000D03*
X190500000Y-137160000D03*
X190500000Y-134620000D03*
X190500000Y-132080000D03*
X187960000Y-144780000D03*
X187960000Y-142240000D03*
X187960000Y-139700000D03*
X187960000Y-137160000D03*
X187960000Y-134620000D03*
D13*
X187960000Y-132080000D03*
X175260000Y-132080000D03*
D12*
X175260000Y-134620000D03*
X175260000Y-137160000D03*
X175260000Y-139700000D03*
X175260000Y-142240000D03*
X175260000Y-144780000D03*
X172720000Y-132080000D03*
X172720000Y-134620000D03*
X172720000Y-137160000D03*
X172720000Y-139700000D03*
X172720000Y-142240000D03*
X172720000Y-144780000D03*
D10*
X180710000Y-114370000D03*
D11*
X180710000Y-115170000D03*
X180710000Y-115970000D03*
D10*
X180710000Y-116770000D03*
X182510000Y-116770000D03*
D11*
X182510000Y-115970000D03*
X182510000Y-115170000D03*
D10*
X182510000Y-114370000D03*
X180710000Y-109290000D03*
D11*
X180710000Y-110090000D03*
X180710000Y-110890000D03*
D10*
X180710000Y-111690000D03*
X182510000Y-111690000D03*
D11*
X182510000Y-110890000D03*
X182510000Y-110090000D03*
D10*
X182510000Y-109290000D03*
D13*
X175260000Y-109220000D03*
D12*
X175260000Y-111760000D03*
X175260000Y-114300000D03*
X175260000Y-116840000D03*
X175260000Y-119380000D03*
X175260000Y-121920000D03*
X172720000Y-109220000D03*
X172720000Y-111760000D03*
X172720000Y-114300000D03*
X172720000Y-116840000D03*
X172720000Y-119380000D03*
X172720000Y-121920000D03*
D13*
X187960000Y-109220000D03*
D12*
X187960000Y-111760000D03*
X187960000Y-114300000D03*
X187960000Y-116840000D03*
X187960000Y-119380000D03*
X187960000Y-121920000D03*
X190500000Y-109220000D03*
X190500000Y-111760000D03*
X190500000Y-114300000D03*
X190500000Y-116840000D03*
X190500000Y-119380000D03*
X190500000Y-121920000D03*
M02*
